<svg xmlns="http://www.w3.org/2000/svg" xmlns:xlink="http://www.w3.org/1999/xlink" width="66.53" height="50.573" viewBox="0 0 66.53 50.573"><defs><style>.a{fill:#e6e6e6;}.b{fill:#a8a8a8;}.c{fill:#c7c7c7;}.d{fill:url(#a);}</style><radialGradient id="a" cx="0.62" cy="0.605" r="1.252" gradientTransform="matrix(0.627, -0.459, 0.246, 0.675, 1.596, -2.217)" gradientUnits="objectBoundingBox"><stop offset="0" stop-color="#d3d3d3"/><stop offset="0.286" stop-color="#cfcfcf"/><stop offset="0.504" stop-color="#c6c6c6"/><stop offset="0.701" stop-color="#b5b5b5"/><stop offset="0.884" stop-color="#9e9e9e"/><stop offset="1" stop-color="#8c8c8c"/></radialGradient></defs><path class="a" d="M2493.644,209.89a17.649,17.649,0,0,0-10.175,5.167c-2.27,2.57-1.394,4.423,1.956,4.139a17.649,17.649,0,0,0,10.175-5.167C2497.87,211.459,2496.994,209.606,2493.644,209.89Zm-1.447,4.428a7.748,7.748,0,0,1-4.467,2.269c-1.47.125-1.855-.689-.859-1.817a7.749,7.749,0,0,1,4.467-2.269C2492.81,212.375,2493.194,213.189,2492.2,214.317Z" transform="translate(-2459.079 -194.75)"/><path class="a" d="M2475.031,188.9c-7.537.639-17.788,5.844-22.894,11.626s-3.136,9.952,4.4,9.313,17.787-5.844,22.894-11.626S2482.569,188.26,2475.031,188.9Zm1,9.6c-3.834,4.34-11.528,8.248-17.186,8.727s-7.138-2.65-3.3-6.991,11.528-8.248,17.186-8.727S2479.864,194.159,2476.031,198.5Z" transform="translate(-2435.33 -179.575)"/><path class="a" d="M2456.419,167.907c-11.725.994-27.669,9.091-35.613,18.085s-4.878,15.481,6.847,14.487,27.669-9.091,35.613-18.085S2468.144,166.913,2456.419,167.907Zm3.444,14.776c-6.67,7.553-20.059,14.352-29.905,15.187s-12.42-4.612-5.749-12.165,20.059-14.352,29.906-15.187S2466.533,175.129,2459.863,182.682Z" transform="translate(-2411.58 -164.4)"/><path class="b" d="M2502.534,218.15l-.016-.031-.083-.161c-.163-.318-.624-.484-1.347-.423-.092.008-.186.019-.282.034l-.1.018c-.065.011-.13.022-.2.036h0c-.087.019-.176.041-.265.064l-.075.02-.088.024-.167.051-.009,0q-.092.029-.184.061l-.058.022c-.06.021-.12.044-.179.067-.031.012-.063.022-.094.035l-.05.021-.165.07-.1.044-.045.021-.165.078-.106.05-.039.02c-.06.03-.119.062-.178.093l-.1.054-.041.023-.047.026c-.086.048-.171.1-.255.148l-.006,0-.02.013c-.079.048-.156.1-.232.148l-.064.043-.059.04c-.029.019-.055.04-.083.059-.049.035-.1.07-.146.105s-.081.062-.121.093-.092.072-.137.109l-.051.04c-.04.034-.079.068-.118.1l-.024.021c-.067.06-.131.12-.193.181l-.043.043c-.062.062-.121.124-.177.187l-.059.068-.015.019-.044.055-.04.051-.04.054-.036.05-.036.053-.032.049-.031.052-.021.034-.006.011c-.022.038-.042.075-.06.112l0,0c-.017.035-.032.07-.046.1l0,.012c0,.009-.006.017-.009.026s-.014.038-.02.057l-.012.039c0,.018-.009.036-.014.054s0,.014-.006.021,0,.012,0,.018-.005.029-.007.044,0,.026-.005.039,0,.028,0,.042,0,.016,0,.024,0,.009,0,.014,0,.026,0,.038,0,.025,0,.037,0,.025.006.037,0,.016,0,.023l0,.012.009.036c0,.011.006.022.01.033s.009.023.013.034l.009.022.01.019.253.494c-.007-.013-.012-.027-.018-.041l-.013-.034c0-.011-.007-.022-.01-.033s-.007-.023-.009-.036,0-.023-.007-.035,0-.024,0-.037,0-.024,0-.037,0-.025,0-.038,0-.025,0-.038,0-.028,0-.043,0-.026,0-.039,0-.029.008-.044.005-.025.008-.038l.014-.054.012-.038c.006-.019.013-.038.02-.057l.014-.037c.014-.034.029-.069.046-.1l0,0c.018-.037.038-.074.06-.112l.027-.045.032-.052.032-.049.036-.053.036-.05.04-.054.041-.051.044-.055c.024-.029.048-.058.074-.087.056-.063.115-.125.177-.187l.043-.043c.062-.061.126-.121.193-.181l.024-.021c.055-.048.111-.095.169-.142s.091-.073.137-.109.08-.062.121-.092l.146-.105c.047-.033.094-.067.142-.1l.064-.043c.076-.05.154-.1.232-.148l.021-.013c.086-.052.173-.1.26-.152l.047-.026c.048-.026.1-.051.145-.077s.118-.063.178-.093.1-.047.145-.07.109-.053.165-.078l.148-.065.165-.07.144-.056.179-.067c.081-.029.162-.057.243-.083l.009,0c.086-.027.17-.051.255-.075l.074-.02c.09-.024.179-.045.267-.064.066-.014.13-.025.195-.036.033-.006.066-.013.1-.018.1-.015.19-.026.283-.034.723-.061,1.184.1,1.347.423l-.083-.162Z" transform="translate(-2469.082 -200.279)"/><path class="b" d="M2492.737,208.114c-.1.009-.211.02-.319.033l-.107.014c-.073.009-.144.019-.218.03l-.131.022c-.067.011-.133.021-.2.034l-.148.029-.188.037h0l-.02,0c-.135.029-.272.061-.409.1l-.12.03q-.182.047-.367.1l-.058.016-.021.007q-.19.055-.381.116l-.058.019c-.108.035-.217.071-.326.109l-.033.011-.12.043-.211.076-.16.061-.206.08-.058.022-.111.045-.187.077-.171.073-.186.081-.07.03-.1.046-.186.085-.169.08-.185.089-.079.038-.086.044-.2.1-.161.083-.194.1-.094.05-.06.034-.239.134-.13.074c-.094.055-.188.11-.281.166l-.071.042-.01.006q-.2.121-.393.246l-.106.069q-.148.1-.293.195l-.068.045-.051.036-.169.119-.143.1c-.056.04-.111.082-.166.122l-.137.1c-.055.042-.109.084-.163.126l-.131.1c-.055.043-.108.087-.161.131l-.1.083-.018.016q-.16.134-.311.269l-.066.061q-.118.107-.232.215l-.094.09c-.068.066-.134.133-.2.2l-.083.085c-.089.093-.176.187-.259.281-.046.052-.091.1-.135.156l-.034.043c-.035.042-.069.083-.1.125l-.092.116c-.032.041-.062.082-.092.122s-.056.076-.083.114-.055.08-.082.12-.05.074-.073.111-.048.078-.072.117l-.048.077-.023.041-.025.046c-.035.063-.068.126-.1.187l0,.006c-.031.063-.059.125-.084.187l-.018.044-.018.043c-.017.045-.033.088-.048.132,0,.008,0,.016-.008.025-.021.061-.039.122-.054.182h0c-.009.036-.018.072-.025.107,0,.014,0,.027-.007.04-.006.034-.012.067-.016.1s-.009.059-.011.089-.005.065-.007.1,0,.036,0,.054,0,.021,0,.031c0,.03,0,.059,0,.088s0,.056.006.083.007.057.012.084,0,.036.007.053,0,.018.007.027c.006.028.013.054.021.081s.014.05.023.075.02.051.03.077.012.033.019.049l.022.045.253.494c-.016-.03-.028-.062-.041-.094s-.021-.051-.03-.077-.016-.05-.022-.075-.015-.053-.021-.081-.01-.053-.014-.08-.009-.055-.012-.084,0-.056-.006-.084,0-.058,0-.088,0-.057,0-.086,0-.064.007-.1.007-.059.011-.088.01-.067.017-.1.019-.1.032-.148h0c.015-.06.034-.121.054-.182l.008-.024c.019-.058.042-.116.066-.175l.018-.044c.026-.061.054-.124.085-.187l0-.006c.03-.062.063-.124.1-.187l.025-.046c.022-.039.047-.079.071-.119s.047-.078.072-.117l.073-.111c.027-.04.053-.08.082-.12s.054-.076.083-.114l.091-.122c.03-.038.061-.077.092-.116s.066-.083.1-.125c.055-.066.11-.132.169-.2.083-.094.17-.188.259-.281l.083-.085q.1-.1.2-.2l.094-.09q.114-.108.232-.215l.066-.061q.152-.136.311-.269l.121-.1.161-.132.131-.1.163-.126.138-.1.166-.122.143-.1.169-.119.119-.081q.145-.1.293-.195l.106-.069q.195-.125.394-.247l.079-.047q.14-.084.281-.167l.13-.074.239-.134.153-.083.194-.1.162-.084.2-.1.165-.082.185-.089.169-.08.186-.085.17-.076.187-.081.17-.073.187-.077.169-.068.207-.08.16-.06.212-.076.152-.054c.109-.038.218-.074.327-.109l.057-.019q.191-.061.381-.116l.079-.022q.185-.053.368-.1l.119-.03c.138-.034.275-.067.41-.1l.023-.005.193-.038.143-.028c.066-.012.131-.022.2-.033l.135-.023c.074-.011.148-.021.221-.03l.1-.014q.161-.019.319-.033c1.647-.139,2.7.238,3.067.963l-.253-.495C2495.433,208.351,2494.384,207.974,2492.737,208.114Z" transform="translate(-2458.425 -193.469)"/><path class="b" d="M2487.848,198.539l-.063-.124-.063-.123-.01-.018-.053-.105c-.627-1.225-2.4-1.862-5.181-1.626q-.266.023-.538.055c-.061.007-.123.017-.185.025-.121.016-.242.031-.364.05-.076.012-.154.026-.23.039-.109.018-.218.035-.328.055-.082.015-.166.033-.249.049-.106.021-.212.04-.319.063h-.008c-.166.036-.333.074-.5.114l-.141.034q-.205.05-.413.1l-.12.031q-.234.063-.47.131l-.052.015-.078.023q-.256.076-.513.157l-.032.01c-.176.056-.353.115-.529.175l-.1.033-.083.028-.2.073c-.119.042-.238.084-.356.128l-.271.1c-.116.044-.232.089-.348.134l-.1.038-.187.077-.316.13-.289.123-.315.137-.117.051-.17.078-.314.144-.287.135-.312.15-.133.064-.146.074-.33.167-.273.142-.326.174-.159.085-.179.1-.087.048q-.247.138-.491.28l-.094.055q-.235.137-.468.278l-.023.014-.067.041q-.216.132-.428.266l-.125.079q-.24.154-.476.31l-.032.021q-.16.107-.319.215l-.087.061c-.1.067-.191.134-.286.2s-.162.114-.241.172c-.095.068-.187.137-.281.207-.078.058-.156.115-.232.173-.093.071-.184.142-.276.214-.074.058-.149.115-.221.173-.092.073-.182.148-.272.222-.057.047-.117.094-.173.141l-.047.04-.079.067q-.178.151-.35.3l-.069.061q-.192.171-.377.345l-.082.078c-.113.107-.224.214-.333.322l-.042.041q-.176.176-.344.353l-.079.083c-.112.12-.223.24-.33.361q-.107.12-.207.239l-.021.024-.059.071-.088.106-.079.1-.083.105-.076.1-.079.1-.072.1-.074.1-.068.1-.071.1-.064.1-.066.1-.06.094-.062.1-.057.093-.058.1-.023.04-.022.04c-.03.053-.059.105-.088.158l-.035.064c-.038.072-.074.143-.109.214l-.008.016c-.032.065-.062.13-.09.195-.01.021-.019.043-.028.064-.021.05-.042.1-.062.148,0,.013-.011.026-.016.039s-.007.019-.011.03c-.015.038-.029.075-.042.113s-.017.048-.025.071c-.014.041-.027.081-.04.122l-.019.059c-.017.058-.034.116-.048.174v0c-.015.058-.028.116-.041.174l0,.009c0,.021-.007.041-.011.061s-.012.062-.017.092-.007.048-.011.072-.009.059-.012.088-.005.048-.008.072-.006.057-.008.085,0,.047,0,.071,0,.055,0,.082c0,.006,0,.013,0,.019s0,.035,0,.053,0,.05,0,.075,0,.048,0,.071,0,.05,0,.074,0,.047.007.07,0,.048.008.072.007.045.01.068.008.047.012.07c0,.007,0,.014,0,.021s.007.03.01.045.01.046.016.069.012.043.018.064.013.045.02.067.014.042.021.063.015.044.023.066.016.04.025.061.018.043.027.064l.009.022c.012.025.024.05.037.075h0l.253.494c-.017-.032-.031-.065-.047-.1l-.027-.064c-.009-.02-.017-.04-.025-.061s-.015-.044-.023-.066-.014-.041-.021-.062-.013-.045-.02-.068-.012-.043-.017-.064-.011-.046-.016-.069-.01-.044-.014-.066-.008-.046-.012-.07-.007-.045-.01-.068-.005-.048-.008-.072,0-.047-.007-.07,0-.049,0-.073,0-.047,0-.071,0-.05,0-.075,0-.048,0-.073,0-.055,0-.082,0-.047,0-.071,0-.057.008-.085,0-.048.008-.072.008-.058.012-.088.007-.048.011-.072.011-.061.017-.092.009-.047.014-.07c.012-.057.026-.115.041-.174v0c.015-.058.031-.116.049-.175.006-.02.012-.04.019-.059.013-.04.026-.081.04-.121.008-.024.017-.047.025-.071s.027-.075.042-.113l.027-.068c.02-.049.04-.1.061-.148l.028-.064c.029-.065.058-.129.09-.195l.008-.016c.034-.07.071-.142.109-.214l.035-.064q.042-.078.088-.158l.045-.079.058-.1.056-.093.062-.1.06-.094.067-.1.064-.1.071-.1.068-.1.075-.1.072-.1.079-.1.075-.1.084-.105.079-.1.088-.106.08-.1c.067-.079.135-.159.206-.239.107-.121.217-.241.33-.361l.079-.084c.112-.118.226-.236.344-.353l.042-.041q.163-.161.332-.321l.083-.078q.185-.173.376-.344l.07-.061q.172-.152.349-.3l.079-.067c.072-.061.146-.121.22-.181.09-.074.18-.148.272-.222.073-.058.147-.116.222-.173.091-.072.183-.143.275-.214l.232-.173c.093-.069.186-.139.281-.207.079-.058.16-.114.241-.171s.19-.135.287-.2c.134-.093.268-.185.405-.276l.031-.021q.235-.157.476-.31l.125-.079q.212-.134.427-.266l.067-.041q.243-.148.49-.292l.094-.055q.244-.142.49-.279l.088-.048c.112-.062.224-.123.337-.183l.328-.175.273-.142q.164-.085.33-.168l.279-.138.312-.151.286-.135.314-.144.288-.129.315-.137.288-.122c.105-.044.211-.087.316-.13l.285-.115c.116-.046.232-.09.349-.134l.27-.1c.119-.044.238-.086.357-.129l.285-.1.1-.033q.265-.09.529-.175l.033-.01q.257-.081.513-.157l.079-.023q.262-.076.522-.146l.119-.031q.207-.054.413-.1l.141-.034c.17-.04.34-.079.509-.115.108-.023.214-.043.321-.064.082-.016.165-.034.246-.049.112-.02.221-.038.332-.056.076-.013.152-.026.227-.038.125-.019.248-.035.37-.051.059-.008.12-.017.179-.024q.272-.033.538-.055c2.783-.236,4.554.4,5.181,1.626l-.054-.105Z" transform="translate(-2445.333 -185.103)"/><path class="b" d="M2474.125,187.122q-.177.015-.356.033l-.118.013-.242.027-.151.019-.212.027-.162.023-.206.03-.163.026-.208.033-.168.03-.206.036-.174.033-.2.039-.177.036-.2.042-.01,0-.037.008c-.146.031-.293.064-.44.1l-.134.031c-.139.033-.279.067-.418.1l-.074.018q-.243.061-.487.127l-.126.035q-.2.054-.393.11l-.08.022-.047.014-.317.094-.112.033q-.215.065-.429.134l-.1.032-.333.109-.154.052-.281.1-.071.024-.107.038-.228.08-.185.067-.227.083-.185.069-.228.087-.185.071-.23.09-.125.049-.059.024-.213.086-.19.077-.213.089-.19.079-.214.092-.187.081-.216.1-.148.065-.037.017-.219.1-.182.083-.221.1-.179.083-.223.107-.175.084-.233.114-.149.073-.013.006-.37.186-.032.016-.4.206-.129.068-.269.142-.157.085-.239.129-.035.019-.107.059-.278.154-.157.089-.259.148-.161.092-.258.151-.154.09-.28.168-.1.061-.021.013q-.224.136-.445.274l-.111.07-.342.217-.131.084-.39.255-.047.031q-.216.144-.428.289l-.042.029-.111.077-.193.134-.162.114-.189.134-.161.116-.185.135-.16.118-.182.136-.157.119-.18.137-.154.12-.177.138-.152.121-.174.14-.149.121-.172.143-.1.08-.04.034q-.165.138-.326.277l-.031.026q-.175.152-.346.305l-.1.09q-.123.111-.244.223l-.109.1-.25.236-.081.077q-.16.155-.316.311l-.069.069q-.123.123-.241.246l-.1.1q-.108.113-.213.226l-.09.1q-.145.158-.286.316c-.094.107-.185.213-.275.319l-.027.032-.078.095-.117.142-.106.132-.111.14-.1.131-.106.138-.095.129-.1.137-.09.127-.094.136-.085.126-.088.134c-.028.042-.054.084-.081.125l-.083.132c-.026.041-.051.082-.076.123l-.077.131-.031.053c-.01.018-.02.035-.029.053-.041.07-.08.14-.117.21l-.046.085c-.051.1-.1.191-.146.285l-.009.021c-.042.087-.083.174-.121.26l-.037.086c-.028.066-.056.132-.082.2-.007.017-.015.035-.021.052l-.015.04c-.02.05-.038.1-.055.15-.011.032-.023.064-.034.1q-.028.081-.052.161c-.008.026-.017.053-.025.079q-.035.117-.065.232v0c-.02.078-.038.155-.054.231l0,.012c-.006.028-.01.054-.015.082s-.016.082-.023.122-.009.064-.014.1-.012.078-.016.117-.007.064-.01.1-.008.076-.01.113,0,.063-.006.095,0,.073-.005.109c0,.009,0,.018,0,.026,0,.024,0,.047,0,.071s0,.067,0,.1,0,.063,0,.095,0,.066.005.1.005.062.009.092.006.065.011.1.009.06.013.09.01.063.016.094c0,.009,0,.018,0,.027s.009.04.014.06.013.062.021.093.015.057.023.085.017.06.026.09.018.056.028.083.02.058.031.087.021.054.032.081.024.057.036.085l.013.03c.016.034.032.067.049.1l.253.494c-.022-.043-.042-.087-.062-.131-.013-.028-.024-.056-.036-.084l-.033-.082c-.011-.029-.021-.058-.031-.087s-.019-.055-.028-.084-.018-.06-.026-.09-.016-.057-.023-.085-.014-.062-.021-.092-.013-.058-.019-.088-.01-.062-.015-.093-.01-.06-.014-.091-.007-.064-.011-.1-.007-.061-.009-.093,0-.065-.006-.1,0-.063,0-.095,0-.067,0-.1,0-.064,0-.1,0-.073.005-.11,0-.063,0-.095.007-.075.011-.113.006-.063.01-.1.011-.078.017-.117.009-.064.014-.1.015-.081.023-.122.011-.063.018-.095c.016-.076.034-.153.054-.231l0-.006q.029-.114.064-.23c.008-.026.017-.053.026-.079.016-.054.033-.107.052-.161l.034-.095c.018-.05.036-.1.055-.15l.036-.092c.026-.065.053-.131.082-.2l.038-.086q.057-.129.12-.259l.01-.021c.046-.094.095-.189.145-.285l.046-.085q.056-.1.116-.21l.061-.106.078-.13.075-.124.083-.132.08-.125.089-.134.086-.126.094-.136c.03-.043.059-.085.09-.127s.066-.091.1-.137l.1-.129.105-.138.1-.131c.036-.046.074-.093.111-.14l.106-.131c.038-.047.078-.095.117-.142l.106-.127c.089-.106.18-.212.275-.319s.189-.211.286-.316l.09-.1c.07-.075.141-.151.212-.225l.1-.1q.119-.123.241-.246l.069-.069q.156-.156.317-.311l.081-.077q.123-.119.25-.236l.11-.1q.12-.112.244-.223l.1-.09c.114-.1.229-.2.346-.3l.033-.028q.16-.138.323-.276l.139-.115.171-.142.149-.121.174-.14.153-.121.176-.138.155-.12.179-.137.157-.119.182-.136.159-.118.184-.134.163-.117.188-.133.163-.115.192-.133.155-.107q.212-.145.428-.289l.048-.032.389-.255.131-.085.341-.217.111-.07q.222-.138.444-.274l.123-.074.281-.168.153-.09.258-.151.161-.093.259-.147.158-.09.277-.154.142-.078.239-.129.157-.085.269-.142.129-.068.4-.206.032-.016.37-.185.163-.08.233-.114.175-.084.223-.106.179-.083.221-.1.182-.082.219-.1.185-.082.217-.1.187-.081.214-.092.19-.08.212-.089.191-.078.212-.086.184-.073.23-.09.184-.071.229-.087.186-.069.227-.083.186-.067.227-.08.178-.062.281-.1.154-.052.333-.109.1-.032.429-.134.112-.033.317-.094.127-.036.393-.11.127-.035q.244-.066.487-.127l.074-.018c.14-.035.279-.069.419-.1l.135-.031q.22-.051.439-.1l.049-.011.2-.041.181-.037.2-.039.175-.033.205-.036.168-.03.21-.034.161-.026.208-.03.159-.023.217-.028.147-.019.246-.028.114-.013q.179-.018.356-.033c3.707-.314,6.067.535,6.9,2.166l-.252-.494C2480.192,187.657,2477.831,186.808,2474.125,187.122Z" transform="translate(-2434.676 -178.294)"/><path class="b" d="M2473.007,178.628l-.063-.124-.009-.018-.054-.105c-1.09-2.131-4.173-3.24-9.015-2.829q-.232.02-.466.043l-.165.018-.305.034-.189.024-.286.037-.2.03-.276.04-.218.035-.266.043-.224.039-.264.046-.229.044-.263.05-.231.047-.265.055-.013,0-.048.011q-.287.061-.575.128l-.176.041q-.272.064-.546.133l-.1.024q-.317.08-.636.166l-.166.045q-.256.07-.513.144l-.1.029-.062.018-.415.123-.145.043q-.279.085-.561.175l-.13.042-.434.141-.2.068-.366.125-.093.032-.14.049-.3.105-.242.087-.3.109-.242.09-.3.113-.241.093-.3.118-.162.063-.078.031-.277.112-.249.1-.278.116-.248.1-.28.12-.245.105-.282.124-.194.085-.049.022-.284.129-.239.109-.288.134-.234.109-.293.139-.228.109-.3.147-.2.1-.018.009-.476.239-.049.025q-.262.133-.522.269l-.169.089-.352.185-.2.11-.314.169-.045.024-.139.077-.364.2-.206.116-.338.192-.21.121-.337.2-.2.118-.367.22-.131.079-.028.018q-.292.177-.581.358l-.144.091-.446.284-.17.11q-.256.165-.508.333l-.063.041q-.281.187-.559.378l-.056.038-.146.1-.251.174-.213.15-.246.175-.21.152-.243.177-.208.153-.239.178-.205.155-.234.18-.2.156-.23.181-.2.158-.227.183-.195.158-.224.185-.128.106-.052.045q-.214.18-.424.36l-.042.036q-.229.2-.452.4l-.13.118-.319.291-.143.133q-.164.153-.326.308l-.106.1q-.21.2-.414.406l-.089.091q-.16.16-.315.321l-.129.135q-.14.147-.277.294l-.117.126q-.189.207-.373.414c-.094.107-.186.213-.276.319l-.062.073-.057.066-.1.124c-.052.062-.1.124-.154.185l-.138.171c-.049.061-.1.122-.146.183l-.131.17c-.047.06-.093.121-.138.181s-.083.112-.125.168-.088.119-.131.179l-.118.167-.123.176-.112.165-.116.175-.1.163c-.037.058-.073.116-.109.173l-.1.161-.1.171-.041.069c-.03.052-.059.1-.088.155l-.022.039c-.053.094-.1.188-.152.281l-.035.067c-.047.089-.092.178-.135.267l-.008.016q-.068.139-.13.276l-.03.065c-.041.091-.08.182-.118.272l-.006.015c-.024.059-.049.119-.072.178-.007.017-.012.034-.019.051-.025.066-.049.131-.072.2-.015.041-.03.083-.044.124-.025.071-.047.141-.069.211-.011.034-.022.069-.033.1-.03.1-.059.2-.084.3l0,.008c-.026.1-.05.2-.071.3l0,.016c-.008.036-.013.071-.02.106-.01.054-.021.107-.03.16s-.013.083-.019.124-.016.1-.022.154-.009.083-.013.124-.01.1-.014.148,0,.082-.007.123-.005.1-.007.144c0,.011,0,.023,0,.034,0,.031,0,.061,0,.092s0,.088,0,.131,0,.083.005.124,0,.086.007.128.008.081.012.121.008.084.014.125.011.079.018.118.012.082.021.122c0,.012,0,.024.006.036s.012.052.018.079.017.081.027.121.02.075.03.112.022.079.034.117.024.073.036.109.027.076.041.114.028.071.043.106.031.074.047.111l.017.039c.021.044.042.088.064.131l.253.494c-.029-.056-.055-.113-.081-.17-.017-.036-.032-.073-.048-.11s-.029-.07-.042-.106-.028-.076-.041-.114-.025-.072-.037-.109-.023-.078-.034-.117-.021-.074-.031-.112-.018-.08-.027-.121-.017-.076-.024-.115-.014-.081-.02-.122-.013-.079-.018-.119-.01-.083-.014-.125-.009-.08-.011-.121-.005-.085-.008-.128,0-.082-.005-.124,0-.087,0-.131,0-.084,0-.126,0-.1.006-.143,0-.082.007-.124.009-.1.014-.148.008-.083.013-.124.014-.1.022-.154.012-.082.019-.124.02-.107.031-.16.015-.081.023-.122c.021-.1.045-.2.071-.3v0q.039-.15.085-.3c.01-.034.022-.069.033-.1.022-.07.044-.14.068-.211.014-.041.03-.082.044-.124.023-.065.047-.131.073-.2s.058-.152.091-.229l.006-.015q.056-.135.118-.272l.029-.065q.062-.137.129-.276l.009-.017c.043-.088.088-.177.135-.267l.034-.066c.049-.093.1-.187.152-.281l.022-.039c.042-.075.085-.149.129-.225l.1-.17.1-.161.109-.173q.051-.081.1-.163c.038-.058.077-.116.116-.175l.112-.165.124-.177c.039-.055.078-.111.118-.166s.086-.119.13-.179l.125-.168c.045-.06.091-.12.138-.181l.132-.17.145-.183.138-.171c.05-.062.1-.123.153-.185l.159-.19.062-.072c.091-.106.182-.212.277-.319.122-.138.247-.276.373-.414l.117-.126q.137-.148.277-.3l.129-.134q.156-.161.315-.321l.09-.091q.2-.2.414-.406l.106-.1q.161-.154.325-.307l.144-.133q.157-.146.319-.291l.131-.118q.223-.2.452-.4l.042-.036q.21-.181.424-.36l.18-.151.224-.185.195-.158.227-.183.2-.158.23-.18.2-.157.233-.178.206-.156.238-.177.208-.154.242-.176.211-.152.246-.175.213-.151.25-.173.2-.14q.277-.19.558-.377l.064-.042q.253-.168.508-.333l.171-.11q.222-.143.446-.284l.144-.091q.289-.181.582-.358l.158-.1.368-.221.2-.118.337-.2.21-.121.337-.192.208-.117.362-.2.185-.1.314-.17.2-.109.353-.186.167-.088.522-.269.048-.024c.159-.08.318-.16.478-.239l.213-.1.305-.149.224-.107.3-.141.232-.108.289-.134.239-.109.284-.129.244-.108.28-.123.247-.106.279-.12.247-.1.279-.116.248-.1.279-.112.238-.094.3-.119.239-.092.3-.114.241-.09.3-.109.241-.087.3-.105.233-.081.366-.125.2-.068.435-.142.128-.042q.281-.089.562-.175l.144-.043.417-.124.165-.047q.257-.074.514-.144l.166-.045q.319-.086.636-.166l.1-.024q.275-.069.547-.133l.176-.041q.289-.066.575-.128l.062-.013.264-.054.232-.048.265-.051.227-.043.27-.048.219-.038.273-.044.211-.034.272-.04.208-.03.291-.037.184-.024.317-.035.154-.017q.234-.024.465-.044c4.842-.41,7.925.7,9.015,2.83l-.053-.1-.01-.019Z" transform="translate(-2421.585 -169.929)"/><path class="b" d="M2455.513,166.131q-.276.023-.555.052l-.191.021-.369.041-.24.031-.325.042-.26.038c-.1.015-.208.029-.312.045l-.265.042-.312.05-.268.047-.313.055-.272.052-.314.06-.278.057-.312.064-.016,0-.059.013q-.34.073-.683.153l-.21.049q-.324.076-.65.158l-.115.028q-.377.1-.757.2l-.2.054q-.305.083-.612.172l-.124.035-.073.022c-.165.048-.33.1-.5.147l-.172.051q-.334.1-.668.208l-.153.05-.518.169-.241.081-.435.148-.111.038-.167.059-.354.125-.288.1-.354.13-.288.107-.355.135-.286.11-.358.141-.193.076-.093.038-.33.133-.3.121-.332.138-.294.123-.334.143-.291.126-.336.148-.231.1-.058.026-.339.154-.284.129-.344.16-.277.129-.354.169-.265.127-.367.18-.23.112-.02.01q-.29.143-.577.289l-.049.024q-.312.158-.623.32l-.2.106-.419.221-.242.13-.375.2-.053.029-.166.092-.433.24-.246.139-.4.229-.251.144-.4.235-.238.14-.439.263-.155.093-.033.02q-.348.212-.692.427l-.172.108q-.267.168-.532.338l-.2.131q-.3.2-.606.4l-.075.049q-.335.223-.666.449l-.066.045-.174.121-.3.207-.253.178-.294.209-.25.181-.289.21-.248.183-.284.212-.244.185-.279.213-.241.186-.275.215-.236.188-.271.218-.231.188-.267.22-.153.126-.063.053q-.255.214-.5.429l-.049.042q-.272.236-.538.474l-.156.14q-.191.173-.379.346l-.17.158q-.2.183-.388.367l-.125.12q-.25.241-.492.483l-.107.108q-.19.191-.375.382l-.154.16q-.167.175-.33.351l-.14.15q-.226.246-.445.493-.168.191-.33.38l-.073.086-.067.079-.122.147c-.062.074-.123.147-.183.221l-.164.2c-.059.073-.117.146-.174.219s-.1.135-.156.2l-.164.215-.149.2-.155.213c-.048.066-.094.132-.141.2l-.147.211-.133.2-.138.208-.125.194c-.043.068-.087.137-.129.205s-.079.128-.117.192l-.121.2c-.016.027-.033.055-.049.082-.036.062-.07.123-.1.185l-.027.047c-.062.112-.123.224-.181.335l-.041.079c-.055.106-.109.212-.16.317l-.01.02c-.054.11-.1.22-.154.329l-.035.078c-.048.109-.1.217-.14.324l-.008.018q-.044.106-.085.211c-.008.021-.015.041-.022.061-.03.078-.058.156-.086.233-.018.049-.036.1-.053.148-.029.084-.056.168-.082.251-.013.041-.027.082-.039.123q-.055.181-.1.36v.007q-.047.182-.084.36l0,.019c-.009.043-.015.085-.024.127-.012.063-.025.127-.036.19s-.015.1-.022.149-.018.122-.026.182-.01.1-.015.148-.012.118-.017.176-.006.1-.009.147-.006.114-.008.171c0,.013,0,.027,0,.04,0,.037,0,.074,0,.11,0,.052,0,.1,0,.156s0,.1.006.148,0,.1.009.153.009.1.013.144.01.1.017.149.014.094.021.141.015.1.024.145c0,.014,0,.029.008.043.006.031.015.062.021.094.01.048.021.1.033.144s.024.089.036.133.026.094.041.14.029.087.043.129.031.091.049.136.033.084.05.126.037.088.057.132c.007.015.013.031.02.046.024.053.05.1.076.156l.253.495c-.034-.067-.065-.135-.1-.2q-.029-.065-.056-.132t-.051-.126c-.017-.045-.032-.09-.049-.136s-.03-.086-.043-.13-.028-.093-.041-.14-.025-.089-.036-.133-.022-.1-.033-.144-.02-.091-.029-.137-.017-.1-.024-.145-.015-.094-.021-.141-.011-.1-.017-.149-.01-.1-.014-.144-.006-.1-.009-.153,0-.1-.006-.148,0-.1,0-.156,0-.1,0-.15,0-.113.008-.17,0-.1.008-.148.011-.117.017-.176.009-.1.015-.148.017-.122.026-.183.013-.1.022-.148.024-.127.036-.191c.009-.048.018-.1.028-.146.025-.119.053-.239.084-.36l0-.008c.03-.119.064-.238.1-.359.012-.041.026-.082.039-.123.027-.083.053-.167.082-.251.017-.049.035-.1.053-.148.028-.078.056-.155.086-.234s.07-.181.108-.272l.008-.018c.044-.107.092-.215.14-.324l.035-.078c.05-.109.1-.218.155-.329l.01-.02c.052-.105.106-.211.161-.318l.041-.078c.059-.111.119-.223.181-.335l.026-.046c.05-.089.1-.178.154-.268l.12-.2.117-.193.129-.205c.041-.065.082-.129.125-.194s.091-.139.138-.208l.132-.2.147-.211c.046-.066.093-.132.14-.2l.156-.213.148-.2.165-.215.156-.2c.057-.073.115-.146.174-.218s.108-.136.164-.2l.183-.221c.063-.075.125-.15.189-.226l.073-.086q.161-.189.33-.38c.145-.164.294-.329.445-.492l.139-.15q.163-.176.33-.351l.154-.16q.186-.192.375-.383l.107-.108q.243-.242.493-.483l.125-.119q.192-.184.388-.367l.171-.158q.188-.173.38-.346l.155-.14c.178-.159.357-.317.539-.474l.049-.042q.25-.215.5-.429l.216-.18.267-.22.232-.188.271-.218.237-.188.274-.215.242-.187.278-.213.245-.185.283-.212.248-.183.288-.21.251-.181.293-.208.253-.178.3-.207.24-.166q.33-.226.665-.449l.075-.049q.3-.2.606-.4l.2-.131q.265-.17.532-.338l.172-.108q.344-.215.692-.427l.189-.114.438-.263.238-.14.4-.235.25-.144.4-.229.246-.139.433-.24.219-.121.374-.2.242-.13.419-.221.2-.105q.311-.162.622-.32l.049-.025.577-.289.252-.123.365-.178.27-.129.35-.167.28-.131.341-.158.286-.13.338-.153.29-.129.334-.147.293-.126.332-.142.3-.124.33-.138.3-.121.33-.133.285-.113.358-.14.287-.11.354-.134.288-.107.354-.13.288-.1.354-.125.278-.1.435-.148.241-.081q.259-.086.518-.169l.154-.05q.335-.107.668-.208l.171-.051.5-.147.2-.056q.307-.088.612-.172l.2-.054q.38-.1.757-.2l.115-.028q.326-.081.65-.158l.21-.049q.343-.079.684-.153l.074-.016.313-.065.278-.057.314-.06.272-.052.315-.055.266-.047.317-.051.26-.042.317-.046.255-.037.328-.042.237-.03.369-.041.191-.021q.279-.028.554-.052c5.766-.488,9.438.832,10.736,3.37l-.253-.494C2464.95,166.962,2461.279,165.642,2455.513,166.131Z" transform="translate(-2410.927 -163.118)"/><path class="a" d="M2501.089,217.534a7.749,7.749,0,0,0-4.467,2.269c-1,1.128-.612,1.942.859,1.817a7.749,7.749,0,0,0,4.467-2.269C2502.944,218.223,2502.56,217.41,2501.089,217.534Z" transform="translate(-2469.082 -200.279)"/><path class="c" d="M2502.625,219.127c0,.011.009.022.013.034l.01.033c0,.012.006.023.009.036s0,.023.006.035,0,.024.005.037,0,.024,0,.036,0,.026,0,.039,0,.025,0,.038,0,.028,0,.043,0,.026-.005.039,0,.029-.007.044-.005.026-.009.039-.008.036-.014.054-.007.026-.011.038-.013.038-.02.057l-.014.037q-.02.051-.045.1l0,0c-.018.037-.038.074-.06.112l-.027.045c-.01.017-.02.034-.031.051l-.032.049-.036.052-.036.05-.04.054-.04.051-.044.055c-.024.029-.049.058-.074.087-.055.063-.115.125-.177.187l-.043.043q-.092.091-.192.181l-.024.021c-.054.048-.111.1-.168.142s-.091.073-.137.109-.08.062-.121.092l-.146.105c-.047.033-.094.067-.143.1l-.063.043c-.076.05-.154.1-.232.148l-.02.013c-.086.052-.173.1-.261.152l-.047.026c-.048.026-.1.051-.145.077s-.118.063-.178.093l-.145.07c-.055.026-.109.053-.165.077l-.148.065-.165.07-.144.056c-.06.023-.12.046-.179.067-.081.029-.162.058-.242.083l-.009,0c-.085.027-.17.051-.254.075l-.075.02c-.09.023-.179.045-.267.064-.066.014-.131.025-.2.036l-.1.018q-.144.022-.283.034a1.841,1.841,0,0,1-1.108-.171.642.642,0,0,1-.239-.251l.253.494c.163.318.624.484,1.346.423q.139-.012.283-.034c.032,0,.066-.012.1-.018.064-.011.128-.021.194-.035h0c.087-.019.176-.04.265-.064l.074-.02.088-.024.167-.051.009,0,.184-.061.058-.022.179-.067.094-.035.05-.021.165-.07.1-.044.045-.021c.055-.025.11-.051.165-.078l.106-.05.039-.02c.06-.03.119-.062.179-.093l.1-.054.04-.023.047-.026c.086-.048.171-.1.255-.148l.006,0,.021-.013q.118-.072.232-.148l.064-.043.059-.04.083-.06q.075-.052.147-.106c.041-.03.081-.061.121-.092s.092-.072.136-.109l.051-.04.117-.1.024-.021c.067-.06.13-.12.192-.181l.043-.043c.062-.062.121-.124.176-.187h0c.02-.023.04-.046.059-.068l.015-.019.044-.055.04-.051c.014-.018.027-.036.04-.054l.036-.05.036-.053.032-.048.032-.052.021-.034s0-.008.006-.011c.021-.038.042-.075.06-.112l0,0c.017-.035.032-.07.046-.1a.1.1,0,0,1,.005-.012l.009-.026c.007-.019.014-.038.02-.057l.012-.038c0-.018.01-.036.014-.054s0-.014.005-.021,0-.011,0-.018.005-.03.008-.044,0-.026,0-.039,0-.028,0-.043,0-.016,0-.024,0-.009,0-.014,0-.026,0-.038,0-.025,0-.037,0-.025-.005-.037,0-.016,0-.023l0-.012c0-.012-.006-.024-.009-.036s-.006-.022-.01-.033-.008-.023-.013-.034-.005-.015-.009-.022a.2.2,0,0,0-.01-.019l-.253-.494C2502.614,219.1,2502.619,219.113,2502.625,219.127Z" transform="translate(-2469.253 -201.408)"/><path class="c" d="M2496.383,212.018l-.063-.124-.063-.123-.01-.019-.053-.105c.015.031.028.062.041.094s.021.051.03.077.015.05.023.075.015.053.021.081.01.053.014.079.009.056.012.084,0,.056.006.084,0,.058,0,.088,0,.057,0,.086,0,.064-.007.1-.007.059-.011.089-.01.067-.017.1-.019.1-.032.148h0c-.015.06-.034.121-.054.182,0,.008,0,.016-.008.024-.019.058-.042.116-.066.175l-.018.044c-.026.062-.054.124-.084.187l0,.006c-.03.062-.063.124-.1.187l-.025.046c-.022.039-.046.079-.07.119s-.047.078-.072.117-.048.074-.073.111-.053.08-.082.12l-.083.114c-.03.041-.06.082-.092.123l-.092.116c-.033.041-.067.083-.1.125-.054.066-.11.132-.169.2q-.125.141-.259.281c-.027.029-.055.057-.083.085q-.1.1-.2.2l-.094.09q-.113.108-.231.215l-.066.061q-.152.136-.312.269l-.12.1-.161.132-.131.1-.163.127-.138.1-.166.122-.143.1-.169.119-.119.081q-.145.1-.293.195l-.106.069q-.195.125-.394.247l-.079.047c-.094.056-.187.112-.282.166l-.13.074-.239.134-.154.083-.194.1-.161.084-.2.1-.165.082-.185.089-.169.08-.186.085-.17.076-.187.081-.171.073-.187.077-.169.068-.206.08-.16.06-.211.076-.152.054q-.164.056-.327.109l-.057.019c-.127.041-.254.079-.381.116l-.079.022q-.185.053-.367.1l-.12.031c-.137.034-.274.066-.41.1l-.023.005-.193.038-.143.028-.2.033-.134.023c-.074.011-.148.021-.222.03l-.1.014q-.161.019-.319.033c-1.647.14-2.7-.238-3.067-.963l.053.105.01.019.063.123.063.124.01.019.054.1c.37.725,1.42,1.1,3.067.963.1-.009.211-.02.318-.033l.108-.014c.072-.009.145-.019.218-.03l.131-.022.2-.034.148-.029.188-.037h0l.019,0c.135-.029.271-.061.409-.1l.12-.031c.122-.031.244-.064.367-.1l.058-.016.021-.006q.19-.055.381-.116l.058-.019q.163-.053.326-.109l.032-.011.12-.043.211-.076.16-.06.207-.08.058-.022.111-.045.188-.077.171-.073.186-.081.07-.03.1-.046.187-.085.169-.08.184-.089.079-.038.086-.044.2-.1.161-.084.194-.1.094-.05.06-.033.239-.134.13-.074q.141-.082.281-.166l.071-.041.009-.006q.2-.121.394-.247l.106-.069c.1-.064.2-.129.292-.195l.068-.045.051-.036.169-.119.143-.1.166-.122.137-.1c.055-.042.109-.084.163-.126l.131-.1.161-.131.1-.084.018-.016q.159-.134.311-.269l.066-.061q.118-.107.232-.215l.093-.09q.1-.1.2-.2l.083-.085c.089-.094.176-.187.259-.281.046-.052.091-.1.135-.156l.035-.043.1-.125.092-.116c.032-.041.062-.082.092-.123l.082-.113.082-.12c.025-.037.05-.074.073-.111s.049-.078.072-.117.033-.052.048-.077l.023-.042.026-.046c.034-.063.067-.126.1-.187l0-.006c.031-.063.058-.126.085-.187l.018-.044c.006-.014.013-.029.018-.043.017-.044.033-.088.048-.132l.007-.024c.021-.062.039-.122.055-.182h0c.009-.036.018-.072.025-.108,0-.014,0-.026.006-.04.007-.034.012-.067.017-.1s.009-.059.011-.089.005-.065.007-.1,0-.036,0-.054,0-.021,0-.031c0-.03,0-.059,0-.088s0-.056-.006-.083-.007-.056-.011-.084,0-.035-.008-.053,0-.018-.007-.027c-.006-.028-.013-.054-.021-.081s-.014-.05-.022-.075-.019-.051-.03-.077-.012-.033-.019-.049-.014-.03-.022-.045l-.054-.105Z" transform="translate(-2458.814 -196.039)"/><path class="c" d="M2488.362,202.609c.009.021.018.042.027.063s.017.041.025.061.016.043.023.065l.021.063.02.068c.006.021.012.043.018.064l.016.069.014.066c0,.023.008.046.012.07s.007.045.01.068.006.048.008.072.005.046.007.07,0,.049,0,.074,0,.047,0,.071,0,.05,0,.075,0,.048,0,.073,0,.055,0,.082,0,.047,0,.071-.005.057-.008.085,0,.048-.008.072-.008.058-.012.088-.007.048-.01.072-.011.062-.017.092-.009.047-.013.07c-.012.058-.026.116-.041.174v0c-.014.058-.031.116-.049.175-.006.02-.012.04-.019.059-.013.04-.026.081-.04.121l-.025.071-.042.113-.027.068c-.02.049-.041.1-.062.148-.009.021-.018.043-.028.064-.029.065-.059.13-.09.2l-.007.016c-.034.071-.071.142-.109.214l-.035.064c-.029.052-.058.1-.088.158l-.045.079-.058.1-.057.092-.062.1-.06.094-.066.1-.064.1-.071.1-.068.1-.075.1-.072.1-.079.1-.075.1-.083.1-.079.1-.089.106-.079.095c-.067.079-.135.159-.207.239-.107.121-.217.241-.33.361l-.079.084c-.112.118-.227.236-.344.353l-.042.041c-.108.107-.219.214-.332.321l-.083.078q-.185.173-.377.344l-.07.062q-.172.152-.349.3l-.079.068c-.072.061-.146.121-.22.181-.09.074-.18.148-.271.221-.073.058-.147.116-.221.174-.092.071-.183.143-.276.213l-.232.173c-.093.069-.187.139-.281.207l-.24.172c-.1.067-.19.135-.287.2-.134.092-.269.185-.405.276l-.031.021c-.157.1-.316.208-.476.31l-.125.079q-.213.134-.428.266l-.067.041q-.243.148-.49.292l-.094.055q-.243.142-.49.279l-.087.048-.337.183-.328.175-.272.141-.33.168-.279.138-.312.151-.286.135-.314.144-.287.129-.315.137-.288.122-.316.13-.285.115c-.116.046-.232.09-.349.134l-.27.1c-.119.044-.238.086-.357.129-.095.034-.19.068-.285.1l-.1.033c-.176.06-.353.119-.529.175l-.032.01q-.257.081-.513.157l-.079.023q-.262.076-.522.146l-.119.031q-.207.055-.413.1l-.14.034c-.171.04-.34.079-.509.115-.108.023-.215.043-.322.064-.082.016-.165.034-.246.049-.112.02-.222.038-.332.056-.076.012-.152.026-.227.038-.124.019-.247.035-.37.051-.059.008-.119.017-.178.024q-.272.033-.538.055a11.172,11.172,0,0,1-2.1,0q-.207-.022-.4-.053t-.376-.071a5.086,5.086,0,0,1-.831-.254,3.767,3.767,0,0,1-.422-.2q-.131-.074-.25-.156a2.752,2.752,0,0,1-.325-.263,2.293,2.293,0,0,1-.473-.625h0l.253.494c.626,1.225,2.4,1.862,5.181,1.626q.266-.023.538-.055l.185-.025c.121-.016.242-.031.364-.05.076-.011.154-.026.23-.038.109-.018.218-.035.328-.055.083-.015.166-.033.249-.049.106-.021.212-.041.319-.063l.008,0c.166-.035.333-.074.5-.114l.141-.034q.206-.05.413-.1l.12-.031c.156-.042.313-.085.471-.131l.052-.015.078-.023q.256-.076.513-.157l.033-.01q.264-.084.529-.175l.1-.033.083-.028.2-.073c.119-.042.237-.084.356-.128l.271-.1.348-.134.1-.038.187-.077.316-.13.288-.123.315-.137.117-.051.17-.078.314-.144.286-.135.312-.151.133-.064.146-.074.33-.168.272-.142.327-.175.159-.085.179-.1.087-.048c.164-.092.328-.185.491-.28l.094-.055q.235-.137.468-.278l.023-.014.068-.041q.215-.132.427-.266l.125-.079q.24-.154.476-.31l.032-.021c.107-.072.213-.143.319-.216l.086-.061c.1-.066.191-.134.286-.2s.162-.114.241-.172.188-.138.281-.207c.078-.058.156-.115.232-.174.093-.071.184-.142.276-.213.074-.058.149-.115.222-.173.092-.073.182-.148.272-.222.057-.047.116-.094.173-.141l.047-.04.079-.067q.178-.151.35-.3l.069-.061q.192-.172.377-.345l.082-.078c.113-.107.224-.214.333-.321l.041-.041c.118-.117.232-.235.344-.353l.079-.084q.169-.18.33-.361h0q.106-.12.206-.239l.021-.024.059-.071.088-.106.079-.1c.028-.035.057-.07.083-.105l.076-.1.079-.1.072-.1.075-.1.068-.1.07-.1.064-.1c.023-.033.045-.067.066-.1l.061-.094.063-.1.056-.093.058-.1.024-.04.022-.039c.03-.053.059-.106.087-.158l.035-.064c.038-.072.074-.143.109-.213l.008-.016c.031-.065.062-.13.09-.195l.028-.064q.032-.075.061-.148l.016-.039.011-.03c.015-.038.028-.075.042-.113s.018-.048.026-.071c.014-.041.027-.081.039-.121.006-.02.013-.04.019-.06q.026-.087.049-.173v0q.022-.088.041-.174l0-.009c0-.021.008-.041.011-.061s.012-.062.017-.092.007-.048.011-.072.009-.059.012-.088,0-.048.007-.072.006-.057.008-.085,0-.047,0-.071,0-.055,0-.082c0-.006,0-.013,0-.02s0-.036,0-.053,0-.05,0-.075,0-.048,0-.072,0-.049,0-.073,0-.047-.007-.07-.005-.048-.008-.072-.007-.045-.01-.068-.008-.047-.012-.07c0-.007,0-.014,0-.021s-.007-.03-.01-.046-.01-.046-.015-.069-.012-.043-.018-.065-.012-.045-.019-.067-.014-.042-.021-.063-.015-.044-.023-.065-.017-.041-.025-.061-.018-.043-.027-.063l-.01-.023c-.012-.025-.024-.05-.037-.075l-.253-.494C2488.333,202.543,2488.348,202.576,2488.362,202.609Z" transform="translate(-2445.991 -189.446)"/><path class="a" d="M2482.476,196.542c-5.658.48-13.353,4.387-17.186,8.728s-2.354,7.471,3.3,6.991,13.353-4.387,17.186-8.728S2488.134,196.063,2482.476,196.542Zm-.875,7.345a17.651,17.651,0,0,1-10.175,5.167c-3.35.284-4.226-1.569-1.956-4.139a17.647,17.647,0,0,1,10.175-5.167C2482.994,199.465,2483.87,201.318,2481.6,203.888Z" transform="translate(-2445.332 -185.104)"/><path class="c" d="M2482.057,195.374l-.071-.14-.083-.162c.022.043.042.087.062.13l.036.085c.011.027.022.054.032.081s.021.058.031.087.019.055.028.083.018.06.026.09.016.056.023.085.014.061.021.092.013.058.019.088.01.062.016.094.01.06.014.091.008.064.011.1.006.062.009.093,0,.065.006.1,0,.063,0,.095,0,.067,0,.1,0,.064,0,.1,0,.073,0,.11,0,.063-.006.094-.007.075-.01.113-.006.063-.01.1-.011.077-.017.116-.009.064-.014.1-.015.081-.023.121-.012.063-.019.095c-.017.076-.034.153-.054.231l0,.008c-.02.075-.041.152-.064.228-.008.026-.017.053-.026.08-.017.053-.033.107-.052.161-.011.032-.022.063-.034.1-.018.05-.036.1-.055.15l-.036.092q-.039.1-.082.2c-.012.029-.024.057-.037.086-.039.086-.078.173-.12.26l-.01.021q-.069.141-.145.285l-.046.085q-.057.1-.117.21l-.061.105c-.025.043-.051.087-.077.13l-.075.123-.083.132-.081.125-.088.134-.085.126-.094.136-.09.128-.1.137-.1.129-.105.138-.1.13-.111.14-.106.131-.117.142-.106.127c-.09.106-.181.212-.275.318s-.189.211-.286.316l-.09.1c-.07.075-.141.151-.212.225l-.1.1q-.119.123-.241.246l-.069.07q-.156.156-.317.311l-.081.077-.25.236-.11.1-.244.223-.1.09q-.171.153-.346.3l-.032.027q-.16.138-.324.276l-.138.116-.172.141-.15.122-.173.139-.152.121-.176.139-.155.12-.179.137-.158.119-.182.136-.16.118-.185.134-.162.117-.188.134-.163.115-.192.133-.154.107q-.213.145-.428.289l-.048.031q-.194.129-.389.255l-.131.084-.341.217-.111.07q-.221.138-.445.274l-.122.074-.281.168-.154.09-.258.151-.161.093-.259.147-.158.089-.278.154-.142.078-.239.129-.157.085-.269.142-.129.068-.4.206-.033.016-.37.185-.163.08-.233.114-.175.084-.223.106-.179.084-.221.1-.181.082-.219.1-.185.082-.217.1-.187.081-.214.092-.19.08-.212.088-.191.078-.212.085-.183.073-.23.09-.184.071-.229.087-.185.069-.227.083-.185.067-.228.081-.178.062-.281.1-.153.051-.333.109-.1.032-.429.134-.111.033-.317.094-.126.036-.394.11-.127.035q-.244.066-.487.128l-.074.018q-.21.053-.418.1l-.135.031c-.147.034-.293.067-.439.1l-.049.011-.2.041-.182.037-.2.038-.176.033-.206.036-.168.03-.208.033-.163.026-.206.03-.162.023-.212.027-.152.02-.242.027-.118.013q-.18.018-.356.033c-3.707.314-6.067-.535-6.9-2.166l.054.105.009.018.063.124.063.123.01.019.054.1c.834,1.632,3.195,2.48,6.9,2.166q.177-.015.356-.033l.127-.014.234-.026.152-.019.212-.027.161-.023.206-.03.165-.026.206-.033.17-.03.2-.036.174-.033.2-.039.177-.036.2-.042.01,0,.037-.008q.219-.047.44-.1l.135-.031q.208-.049.418-.1l.074-.018c.162-.041.324-.084.487-.127l.126-.035.394-.11.08-.023.047-.014.317-.094.111-.033.43-.134.1-.032.333-.109.154-.052.281-.1.071-.024.107-.038.227-.08.186-.067.228-.083.185-.068.229-.087.184-.071.23-.09.124-.049.06-.024.212-.086.19-.078.213-.089.19-.079.214-.092.187-.081.217-.1.148-.065.037-.017.22-.1.181-.082.221-.1.179-.083.223-.106.175-.084.233-.114.15-.073.013-.007.37-.185.033-.016.4-.206.129-.068.269-.142.158-.085.239-.129.035-.019.106-.059.278-.154.157-.089.259-.147.161-.093.258-.151.154-.09.281-.168.1-.06.022-.013q.223-.136.444-.274l.111-.07.342-.217.13-.084.39-.255.048-.031q.216-.144.428-.289l.042-.029.111-.077.193-.134.162-.114.189-.134.161-.116.185-.135.159-.118.183-.136.157-.119.179-.137.155-.12.177-.138.152-.121.174-.14.148-.121.173-.143.1-.081.04-.034q.165-.138.325-.277l.031-.026q.175-.152.346-.3l.1-.09.244-.223.11-.1q.126-.118.25-.236l.081-.077q.16-.155.316-.311l.069-.07q.122-.122.241-.246l.1-.1c.072-.075.142-.15.212-.225l.09-.1c.1-.105.193-.211.286-.316h0c.094-.107.186-.213.275-.319l.027-.032.078-.095c.04-.047.079-.094.117-.142l.106-.131.111-.14.1-.131.1-.138.1-.129.1-.137.091-.127.094-.135.085-.126.089-.134.08-.125.083-.132.075-.124.078-.13.032-.053.029-.053c.041-.07.079-.141.117-.21l.046-.085c.05-.1.1-.191.145-.285,0-.007.007-.014.01-.021q.063-.131.12-.259l.037-.086q.043-.1.082-.2c.007-.017.015-.035.021-.052s.01-.026.015-.04c.02-.05.038-.1.056-.15q.018-.048.034-.095c.019-.054.036-.108.053-.162.008-.026.017-.053.025-.079.023-.078.045-.155.065-.232v0c.02-.078.038-.155.054-.232l0-.012c.005-.027.01-.054.015-.081s.016-.082.023-.123.01-.064.015-.1.011-.078.016-.117.007-.063.01-.1.008-.076.011-.113,0-.063.005-.095,0-.073,0-.11c0-.008,0-.017,0-.026,0-.024,0-.047,0-.071s0-.067,0-.1,0-.063,0-.095,0-.066-.005-.1-.006-.062-.009-.093-.007-.064-.011-.1-.009-.06-.014-.09-.01-.063-.016-.094c0-.009,0-.018,0-.027s-.01-.04-.014-.06-.014-.062-.021-.093-.015-.057-.023-.085-.017-.06-.026-.09-.018-.056-.028-.083-.02-.058-.031-.087-.021-.054-.033-.081-.024-.057-.036-.085c0-.01-.008-.02-.013-.03-.015-.034-.032-.067-.049-.1l-.083-.161Z" transform="translate(-2435.552 -184.078)"/><path class="c" d="M2474.025,185.936c.029.056.055.113.081.171.016.036.032.073.047.11s.029.07.043.106.028.076.041.114.025.072.036.109.023.078.034.117.021.074.03.112.019.08.027.121.017.076.024.115.014.081.021.122.012.079.018.119.01.083.014.125.009.08.012.121.005.085.008.128,0,.083.005.124,0,.087,0,.131,0,.084,0,.126,0,.1-.007.143,0,.082-.007.124-.009.1-.014.148-.008.083-.013.125-.014.1-.021.153-.012.083-.019.125-.02.106-.03.159-.015.082-.024.123c-.022.1-.044.2-.071.3v.007c-.026.1-.054.2-.084.3-.011.035-.023.069-.033.1-.022.07-.044.14-.069.21l-.044.124c-.023.065-.047.13-.072.2s-.059.153-.091.229l-.006.015c-.037.09-.077.181-.118.272-.009.022-.019.043-.029.065-.042.092-.084.184-.13.276l-.008.016c-.043.089-.089.178-.135.267l-.034.066c-.049.093-.1.187-.152.282l-.022.038c-.042.075-.085.15-.129.225l-.1.17c-.032.053-.065.107-.1.161s-.072.115-.109.173l-.1.163c-.038.058-.077.116-.116.175l-.112.165c-.04.059-.082.118-.123.177l-.118.167c-.042.059-.086.119-.13.178l-.125.169-.138.181c-.043.057-.087.113-.132.17s-.1.122-.145.183l-.138.171-.153.185-.159.19-.062.072c-.091.106-.182.212-.277.319h0q-.183.207-.374.413l-.117.126q-.137.148-.278.3l-.129.134q-.156.161-.315.321l-.09.091q-.2.2-.414.406l-.106.1c-.108.1-.216.205-.326.308l-.143.133q-.158.146-.319.291l-.131.118c-.149.133-.3.266-.452.4l-.042.036q-.209.181-.423.36l-.181.151-.224.185-.194.158-.227.183-.2.158-.23.18-.2.157-.234.179-.206.156-.238.177-.208.154-.242.176-.211.152-.245.175-.214.151-.249.173-.2.14q-.277.19-.558.377l-.063.042q-.253.168-.508.333l-.17.11q-.222.143-.446.284l-.145.091q-.289.181-.581.358l-.158.1-.369.221-.2.118-.338.2-.21.121-.337.192-.207.117-.362.2-.185.1-.314.17-.2.109-.353.186-.167.088q-.26.136-.522.269l-.048.024q-.238.121-.477.24l-.213.1-.305.149-.224.107-.3.141-.232.109-.289.134-.239.109-.285.129-.244.108-.28.123-.247.106-.279.12-.248.1-.278.116-.248.1-.278.112-.238.094-.3.119-.24.092-.3.114-.241.09-.3.109-.241.087-.3.105-.234.081-.365.124-.2.068-.435.142-.128.042q-.281.09-.561.175l-.144.043-.416.124-.165.047q-.257.074-.514.144l-.166.046q-.319.086-.636.166l-.1.024q-.275.069-.547.133l-.176.041q-.288.066-.575.128l-.061.014-.263.054-.232.048-.264.05-.228.043-.266.047-.222.039-.269.043-.215.035-.272.04-.208.03-.28.036-.2.025-.306.034-.165.018q-.234.024-.466.044c-4.842.41-7.925-.7-9.015-2.83l.253.494c1.09,2.131,4.173,3.24,9.015,2.83q.232-.02.466-.044l.165-.018.305-.034.189-.024.286-.037.2-.029.276-.04.218-.035.266-.043.224-.04.264-.046.229-.043.263-.05.231-.047.265-.055.013,0,.049-.011q.286-.061.574-.128l.176-.041q.273-.064.547-.133l.1-.024q.317-.08.636-.167l.166-.045q.257-.07.514-.144l.1-.029.061-.018.416-.123.144-.043q.28-.085.561-.175l.13-.042.434-.141.2-.068.366-.125.093-.032.14-.05.3-.105.241-.087.3-.109.242-.09.3-.113.241-.092.3-.118.161-.063.078-.031.277-.112.249-.1.279-.116.247-.1.28-.12.245-.106.281-.124.194-.086.049-.022.284-.129.239-.109.288-.134.234-.109.293-.139.228-.109.3-.148.2-.1.017-.009.486-.244.039-.019q.263-.133.523-.269l.165-.087c.118-.062.237-.124.354-.187l.2-.11.314-.169.044-.024.139-.077.364-.2.206-.116.338-.192.21-.121.337-.2.2-.118.367-.22.131-.078.028-.018q.292-.177.581-.358l.144-.091q.224-.141.447-.284l.17-.11q.256-.166.509-.333l.063-.041q.282-.187.559-.378l.056-.038.146-.1.251-.174.213-.15.246-.175.21-.151.243-.177.207-.153.239-.178.205-.155.235-.18.2-.156.231-.181.2-.157.228-.183.195-.158.224-.185.128-.106.052-.045q.214-.18.424-.36l.042-.036c.153-.132.3-.265.452-.4l.131-.118c.108-.1.214-.193.319-.291l.144-.133q.164-.153.325-.307l.106-.1q.21-.2.414-.406l.09-.091q.159-.16.315-.321l.129-.135q.14-.147.277-.294l.117-.126c.126-.137.251-.275.373-.413q.141-.16.277-.319l.062-.073.057-.066.1-.123.153-.186c.047-.057.092-.114.138-.171l.146-.183.132-.17c.046-.06.093-.121.138-.181l.125-.168.13-.179.118-.167c.042-.059.083-.118.123-.176s.075-.111.112-.165l.116-.174.1-.163.109-.173.1-.161c.034-.057.068-.114.1-.17l.041-.069c.03-.052.059-.1.088-.155l.022-.039c.053-.094.1-.188.152-.281l.034-.066c.046-.09.092-.179.135-.267l.008-.016c.045-.093.088-.185.13-.276l.03-.065c.041-.091.08-.182.118-.272l.006-.015c.024-.06.049-.119.072-.178l.019-.051c.025-.066.049-.131.072-.2.015-.041.031-.083.045-.124.024-.071.047-.141.068-.211.011-.034.023-.069.033-.1.031-.1.059-.2.084-.3l0-.008q.039-.152.071-.3l0-.016c.007-.036.013-.071.019-.107.011-.053.021-.107.03-.16s.013-.083.019-.124.015-.1.022-.153.009-.083.013-.124.01-.1.014-.148,0-.082.007-.123.005-.1.007-.144c0-.011,0-.022,0-.033,0-.031,0-.062,0-.092s0-.088,0-.132,0-.083-.005-.124,0-.086-.008-.128-.007-.081-.011-.121-.009-.084-.014-.125-.011-.079-.018-.118-.012-.082-.02-.122c0-.012,0-.024-.006-.036s-.012-.052-.018-.079-.017-.081-.027-.121-.02-.075-.03-.112-.022-.079-.034-.117-.024-.073-.036-.109-.026-.077-.041-.114-.028-.071-.042-.106-.031-.074-.047-.111l-.016-.039c-.021-.044-.042-.088-.064-.131h0Z" transform="translate(-2422.73 -177.484)"/><path class="a" d="M2463.863,175.551c-9.846.834-23.235,7.634-29.905,15.187s-4.1,13,5.75,12.165,23.235-7.634,29.905-15.187S2473.709,174.717,2463.863,175.551Zm1.57,12.519c-5.107,5.782-15.357,10.988-22.894,11.626s-9.508-3.531-4.4-9.313,15.356-10.987,22.894-11.626S2470.54,182.288,2465.433,188.07Z" transform="translate(-2421.583 -169.929)"/><path class="c" d="M2467.711,178.691l-.016-.031-.083-.162c.034.067.065.135.1.2q.029.066.056.132c.017.042.035.084.051.126s.033.09.049.136.03.086.043.13.027.093.04.14.025.088.036.133.022.1.033.144.02.09.028.136.016.1.024.146.015.094.021.141.012.1.017.149.01.1.014.144.006.1.009.152.005.1.007.148,0,.1,0,.156,0,.1,0,.15,0,.114-.007.171,0,.1-.009.147-.011.117-.016.176-.01.1-.016.148-.017.122-.026.183-.014.1-.022.148-.023.127-.036.191c-.009.048-.018.1-.028.146q-.038.178-.084.36l0,.008q-.046.178-.1.359c-.012.041-.026.082-.039.123-.026.083-.053.167-.082.251-.017.049-.035.1-.053.148-.028.077-.056.155-.086.234s-.07.181-.108.272l-.007.018c-.044.107-.092.215-.14.324l-.035.078q-.075.163-.155.329l-.01.019q-.077.158-.16.318l-.041.078c-.059.111-.119.223-.181.335l-.026.046c-.05.089-.1.178-.154.268q-.059.1-.12.2c-.039.064-.077.128-.118.192s-.085.137-.129.205l-.125.194-.138.208c-.044.065-.087.131-.133.2l-.147.211-.141.2c-.051.071-.1.142-.155.213l-.149.2c-.054.072-.11.143-.164.215l-.157.2c-.056.073-.115.146-.174.218s-.108.136-.164.2-.121.147-.182.221l-.189.226-.073.086c-.108.126-.218.253-.33.38-.145.164-.294.328-.445.492l-.14.15q-.163.175-.331.351l-.154.16q-.185.191-.375.382l-.107.108q-.242.242-.493.483l-.126.12q-.192.184-.388.367l-.17.158q-.188.174-.38.346l-.156.14q-.266.238-.538.474l-.049.042q-.25.215-.505.43l-.216.18-.266.22-.232.189-.271.218-.237.188-.274.215-.241.187-.279.213-.245.185-.284.212-.248.183-.288.21-.251.181-.293.208-.253.178-.3.207-.24.165q-.33.226-.666.45l-.075.049q-.3.2-.606.4l-.2.13q-.265.17-.532.338l-.171.108q-.344.215-.692.427l-.188.113-.439.263-.237.14-.4.235-.25.144-.4.228-.246.139-.433.24-.219.121-.375.2-.242.13-.422.222-.2.1q-.311.162-.623.32l-.049.025q-.288.146-.577.289l-.252.124-.365.178-.268.128-.352.168-.277.129-.344.16-.283.129-.341.154-.289.128-.335.147-.293.127-.332.142-.3.124-.331.138-.3.121-.331.134-.284.113-.359.141-.287.11-.355.135-.288.107-.354.13-.288.1-.354.125-.278.1-.436.148-.24.081-.518.169-.154.05q-.334.106-.668.208l-.171.051-.5.147-.2.056q-.307.088-.612.172l-.2.054q-.38.1-.757.2l-.115.028q-.326.082-.651.158l-.209.049q-.344.079-.685.153l-.073.016-.319.065-.271.056-.321.061-.265.05-.321.057-.261.046-.321.052-.256.041-.323.046-.249.036-.34.044-.226.029c-.126.015-.251.028-.377.042l-.183.021q-.279.028-.555.052c-5.766.489-9.438-.832-10.736-3.37l.083.162.016.031.072.14.083.162c1.3,2.538,4.97,3.858,10.736,3.37q.276-.023.555-.052l.191-.021.37-.041.237-.03.329-.042.255-.037.317-.046.26-.042.316-.051.266-.047.315-.055.272-.052.314-.06.278-.057.313-.065.016,0,.058-.013q.34-.073.683-.152l.21-.049q.324-.076.65-.158l.115-.029q.377-.1.757-.2l.2-.054q.305-.083.612-.172l.124-.035.073-.021.5-.147.171-.051q.334-.1.668-.208l.154-.05.518-.169.24-.081.435-.148.111-.038.167-.059.353-.125.289-.1.354-.13.288-.107.356-.135.286-.11.359-.141.193-.075.093-.038.33-.133.3-.121.332-.138.294-.124.334-.143.291-.126.335-.148.231-.1.058-.026.339-.153.284-.129.343-.159.279-.13.35-.167.27-.129.365-.178.231-.113.021-.01q.285-.141.568-.285l.058-.029q.312-.158.623-.32l.2-.1.422-.222.242-.13.375-.2.053-.029.165-.092.433-.24.247-.139.4-.229.25-.144.4-.235.238-.14.439-.263.155-.093.033-.02q.348-.212.692-.427l.172-.109q.267-.168.532-.338l.2-.131q.3-.2.606-.4l.074-.049q.335-.223.666-.449l.066-.045.174-.121.3-.207.253-.178.293-.208.251-.181.289-.21.248-.183.283-.212.245-.185.279-.213.241-.186.274-.215.237-.188.271-.218.232-.188.267-.22.153-.126.063-.053q.255-.214.5-.429l.05-.043q.272-.236.538-.474l.156-.141q.192-.172.379-.345l.171-.159q.2-.183.388-.367l.126-.12q.249-.241.492-.483l.106-.108q.19-.191.376-.383l.153-.16q.168-.175.331-.351l.139-.15q.226-.245.445-.492h0c.112-.127.222-.254.33-.38l.073-.086.068-.079.122-.148c.061-.073.123-.147.182-.22l.164-.2.174-.218.156-.2c.055-.072.111-.144.164-.215s.1-.134.149-.2.1-.142.155-.212.094-.133.141-.2.1-.14.146-.21.089-.131.133-.2.093-.139.138-.208l.125-.194c.043-.069.087-.137.129-.205s.079-.128.117-.192.081-.135.121-.2c.016-.028.033-.055.049-.082.036-.062.07-.123.1-.185l.027-.047q.094-.168.181-.335l.041-.079q.083-.16.16-.318l.01-.02c.053-.11.1-.22.154-.329l.035-.078c.049-.109.1-.217.14-.324l.007-.018c.029-.071.058-.141.085-.211.008-.021.015-.041.023-.061.03-.078.058-.156.086-.234.018-.049.036-.1.053-.148.029-.084.056-.168.082-.251.013-.041.027-.082.039-.123.036-.121.07-.241.1-.36l0-.007c.031-.121.059-.241.084-.36l0-.019c.009-.043.016-.085.024-.127.012-.063.025-.127.036-.19s.015-.1.022-.149.019-.122.026-.182.01-.1.015-.148.012-.118.017-.176.006-.1.008-.147.007-.114.008-.171c0-.013,0-.027,0-.04,0-.037,0-.073,0-.11,0-.052,0-.1,0-.156s0-.1-.006-.147,0-.1-.009-.153-.009-.1-.014-.144-.01-.1-.017-.149-.014-.094-.021-.141-.016-.1-.024-.145c0-.014,0-.029-.007-.043-.006-.032-.015-.062-.022-.094-.01-.048-.021-.1-.032-.144s-.023-.089-.036-.133-.026-.094-.041-.14-.028-.087-.043-.13-.032-.091-.049-.136-.033-.084-.051-.126-.037-.088-.057-.132c-.007-.016-.012-.031-.02-.047-.025-.053-.05-.1-.076-.156l-.083-.162Z" transform="translate(-2412.291 -172.116)"/><path class="a" d="M2446.251,155.687c-13.809,1.17-32.586,10.706-41.941,21.3s-5.745,18.231,8.063,17.061,32.586-10.706,41.941-21.3S2460.059,154.517,2446.251,155.687Zm4.291,17.381c-7.944,8.995-23.888,17.092-35.613,18.085s-14.79-5.492-6.847-14.487,23.888-17.092,35.613-18.085S2458.485,164.074,2450.542,173.068Z" transform="translate(-2399.109 -155.569)"/><path class="d" d="M2460.616,170.491c.023.051.045.1.066.155s.041.1.06.148.039.107.057.16.035.1.051.153.033.109.048.164.029.1.042.157.026.113.039.17.023.107.034.161.02.114.029.171.018.11.025.166.014.117.02.176.012.113.016.17.007.119.01.18.006.115.007.174,0,.122,0,.184,0,.117,0,.176-.006.134-.009.2-.006.115-.01.173-.012.138-.02.208-.011.116-.018.174-.02.143-.03.215-.016.116-.026.175c-.012.074-.027.149-.042.224s-.022.121-.035.182c0,.016-.007.031-.01.047-.026.121-.054.242-.086.365v0c-.031.123-.066.247-.1.372l-.015.05c-.035.119-.074.239-.114.36l-.022.065q-.062.18-.13.363l-.024.062c-.047.123-.1.247-.147.372l-.009.021c-.052.126-.108.254-.165.382l-.042.092q-.087.192-.182.387l-.012.025c-.06.124-.124.248-.189.374l-.048.093q-.1.2-.213.394l-.031.055c-.059.1-.119.209-.181.314q-.07.119-.142.239c-.045.075-.091.15-.137.225s-.1.161-.153.242l-.147.229c-.053.081-.108.163-.163.245l-.156.231-.173.248c-.055.078-.109.156-.166.234s-.122.167-.183.251-.116.157-.175.236-.128.169-.193.254l-.185.239c-.067.085-.135.171-.2.257l-.193.24c-.071.087-.143.173-.215.26s-.147.177-.223.266l-.086.1c-.127.149-.256.3-.388.447h0q-.257.291-.523.58l-.164.177q-.192.207-.389.414l-.18.188q-.219.226-.442.451l-.125.127q-.286.286-.58.569l-.148.141q-.226.216-.457.432l-.2.186q-.221.2-.447.407l-.183.165q-.313.28-.634.558l-.057.049q-.294.254-.594.506l-.254.212-.314.259-.274.222-.318.255-.28.222-.323.253-.284.22-.328.251-.289.218-.333.249-.292.216-.339.247-.3.213-.345.245-.3.21-.352.245-.282.195q-.389.266-.784.529l-.089.058q-.354.235-.713.467l-.238.154q-.312.2-.627.4l-.2.127q-.405.253-.815.5l-.223.134-.515.309-.281.165-.473.276-.294.17-.474.27-.289.163-.509.282-.259.142-.438.236-.288.155-.5.261-.233.123q-.366.19-.733.377l-.062.031q-.337.171-.675.338l-.3.148-.426.208-.319.152-.411.2-.327.153-.405.188-.333.151-.4.181-.34.151-.395.174-.344.148-.392.168-.347.146-.39.163-.349.142-.389.158-.335.132-.423.166-.337.129-.419.159-.339.126-.417.153-.338.122-.417.148-.327.114-.513.175-.283.1-.61.2-.18.058q-.394.125-.787.245l-.2.061-.582.173-.232.066q-.361.1-.72.2l-.233.063q-.447.121-.892.234l-.135.034q-.384.1-.766.186l-.247.058q-.4.093-.8.18l-.088.019-.369.076-.326.067c-.124.025-.248.048-.372.071l-.319.061c-.125.023-.249.044-.374.066l-.311.055-.376.06-.3.048-.377.055-.3.043c-.132.018-.264.034-.4.051l-.271.035c-.146.017-.29.033-.435.048l-.226.025q-.328.034-.653.061c-6.791.576-11.115-.979-12.643-3.968l6.125,11.977c1.529,2.989,5.853,4.544,12.644,3.968q.325-.028.653-.061l.221-.025c.146-.016.292-.031.439-.049l.267-.034.4-.051.3-.043.377-.055.3-.049.376-.06.309-.054.376-.066.316-.06.373-.071.323-.066.373-.077.018,0,.068-.015q.4-.086.806-.18l.247-.057q.382-.09.767-.186l.135-.033q.445-.113.892-.234l.232-.063q.36-.1.721-.2l.146-.041.086-.025q.291-.085.582-.173l.2-.061q.392-.12.786-.245l.182-.059q.3-.1.609-.2l.283-.1.513-.175.131-.045.2-.069.417-.148.34-.122.416-.153.34-.126.418-.159.338-.13.422-.166.227-.089.109-.044.389-.158.348-.142.392-.163.346-.145.393-.168.344-.148.395-.174.272-.12.068-.031.4-.181.335-.152.4-.188.329-.153.413-.2.316-.151.428-.209.274-.134.025-.012q.338-.167.675-.338l.062-.031q.368-.187.734-.377l.231-.122q.249-.131.5-.262l.285-.153.441-.238.063-.034.2-.108.509-.282.291-.164.473-.269.294-.17q.238-.137.474-.277l.279-.165q.26-.154.518-.31l.182-.109.039-.024q.41-.249.815-.5l.2-.127q.314-.2.626-.4l.24-.154q.358-.232.713-.467l.089-.058q.395-.263.784-.53l.078-.053.2-.142.353-.245.3-.21.345-.246.3-.213.339-.247.293-.216.333-.249.289-.218.328-.251.284-.22c.109-.084.216-.169.323-.253l.279-.221.319-.257.273-.222.315-.26.179-.149.074-.063q.3-.252.594-.505l.058-.05q.321-.278.634-.558l.184-.166q.225-.2.447-.407l.2-.186q.231-.216.458-.433l.147-.14q.295-.284.581-.569l.125-.127q.224-.225.442-.451l.18-.188q.2-.206.39-.414l.164-.176c.177-.193.353-.386.524-.58h0c.132-.15.261-.3.388-.448l.087-.1.079-.093c.049-.058.1-.116.144-.173.072-.087.145-.173.215-.26s.13-.16.194-.24.137-.171.2-.256l.184-.239c.065-.085.13-.169.193-.254l.175-.237c.062-.083.123-.167.183-.25s.111-.156.166-.234.116-.165.173-.247.1-.154.157-.232.109-.163.162-.245.1-.153.147-.229.1-.161.152-.242.093-.151.138-.226.1-.16.143-.239c.018-.032.039-.065.058-.1l.123-.218.031-.055c.074-.132.145-.264.213-.394l.048-.093c.065-.125.129-.25.189-.374l.012-.024c.063-.13.124-.259.182-.387l.042-.091c.057-.128.113-.255.165-.382,0-.007.005-.014.008-.021q.052-.125.1-.249c.016-.041.031-.082.047-.122l.023-.061q.068-.183.13-.363l.022-.065c.041-.121.079-.241.115-.36.005-.017.01-.033.015-.05.037-.125.072-.249.1-.372v0c.031-.123.06-.244.086-.365,0-.016.007-.032.01-.047l.007-.032c.011-.05.019-.1.028-.149.015-.075.03-.15.042-.225.01-.058.017-.116.026-.174s.022-.144.031-.216.012-.116.018-.174.014-.139.02-.208.007-.115.01-.173.008-.135.009-.2c0-.016,0-.032,0-.047,0-.044,0-.086,0-.13,0-.062,0-.123,0-.184s0-.116-.008-.174-.006-.12-.01-.18-.01-.114-.016-.17-.012-.117-.02-.175-.016-.111-.025-.166-.018-.115-.029-.171c0-.017-.005-.034-.008-.05-.008-.037-.017-.073-.025-.11-.012-.057-.025-.114-.039-.169s-.028-.1-.042-.157-.031-.11-.048-.165-.033-.1-.051-.153-.037-.107-.057-.16-.039-.1-.06-.149-.044-.1-.067-.155c-.008-.018-.015-.037-.023-.055-.029-.062-.059-.124-.09-.184l-6.126-11.977C2460.543,170.33,2460.58,170.411,2460.616,170.491Z" transform="translate(-2400.719 -166.165)"/></svg>