<svg xmlns="http://www.w3.org/2000/svg" xmlns:xlink="http://www.w3.org/1999/xlink" width="33.933" height="39.666" viewBox="0 0 33.933 39.666"><defs><style>.a{fill:#e6e6e6;}.b{fill:#a8a8a8;}.c{fill:#c7c7c7;}.d{fill:url(#a);}</style><radialGradient id="a" cx="0.62" cy="0.605" r="1.252" gradientTransform="matrix(0.627, -0.459, 0.246, 0.675, 1.596, -2.217)" gradientUnits="objectBoundingBox"><stop offset="0" stop-color="#d3d3d3"/><stop offset="0.286" stop-color="#cfcfcf"/><stop offset="0.504" stop-color="#c6c6c6"/><stop offset="0.701" stop-color="#b5b5b5"/><stop offset="0.884" stop-color="#9e9e9e"/><stop offset="1" stop-color="#8c8c8c"/></radialGradient></defs><g transform="translate(23.231 0) rotate(69)"><path class="a" d="M5.654.014A8.725,8.725,0,0,0,.624,2.569C-.5,3.839-.065,4.755,1.591,4.615A8.725,8.725,0,0,0,6.621,2.06C7.743.79,7.31-.126,5.654.014ZM4.939,2.2A3.831,3.831,0,0,1,2.73,3.325c-.727.062-.917-.341-.425-.9A3.832,3.832,0,0,1,4.514,1.3C5.241,1.243,5.431,1.645,4.939,2.2Z" transform="translate(11.434 7.47)"/><path class="a" d="M12.722.032A19.632,19.632,0,0,0,1.4,5.78c-2.525,2.859-1.551,4.92,2.176,4.6A19.632,19.632,0,0,0,14.9,4.636C17.422,1.777,16.448-.284,12.722.032Zm.494,4.747a14.738,14.738,0,0,1-8.5,4.315c-2.8.237-3.529-1.31-1.634-3.456a14.737,14.737,0,0,1,8.5-4.315C14.379,1.085,15.11,2.633,13.215,4.779Z" transform="translate(6.906 4.577)"/><path class="a" d="M19.789.05C13.993.541,6.11,4.544,2.183,8.991s-2.411,7.653,3.385,7.162,13.679-4.494,17.606-8.941S25.585-.441,19.789.05Zm1.7,7.3c-3.3,3.734-9.917,7.1-14.784,7.508s-6.14-2.28-2.842-6.014,9.917-7.1,14.784-7.508S24.79,3.62,21.492,7.354Z" transform="translate(2.378 1.684)"/><path class="b" d="M3.2.311,3.189.3,3.148.215C3.068.058,2.84-.024,2.482.006c-.045,0-.092.009-.139.017L2.3.032,2.2.049h0c-.043.009-.087.02-.131.031l-.037.01L1.985.1,1.9.128h0L1.808.16,1.779.17,1.69.2,1.644.221l-.025.01L1.538.266,1.486.287,1.464.3,1.383.336,1.33.361l-.019.01L1.223.417,1.172.443l-.02.011L1.128.468,1,.541l0,0L.989.549C.95.573.912.6.875.622L.843.643.814.663.773.692.7.744.641.79.573.844.548.864.49.914.478.924c-.033.029-.065.059-.1.089l-.021.021C.331,1.066.3,1.1.274,1.128l-.029.034-.008.009L.215,1.2.2,1.223l-.02.027-.018.025L.14,1.3l-.016.024L.108,1.35.1,1.367l0,.006c-.011.019-.021.037-.029.055v0c-.008.017-.016.035-.023.051l0,.006s0,.008,0,.013l-.01.028-.006.019c0,.009,0,.018-.007.027l0,.01v.009c0,.007,0,.015,0,.022l0,.019,0,.021s0,.008,0,.012,0,0,0,.007,0,.013,0,.019S0,1.7,0,1.711l0,.018s0,.008,0,.011v.006l0,.018c0,.006,0,.011,0,.016L.024,1.8a.1.1,0,0,0,0,.011l0,.01.125.244a.213.213,0,0,1-.009-.02L.142,2.024l0-.016c0-.006,0-.012,0-.018s0-.011,0-.017a.181.181,0,0,1,0-.018c0-.006,0-.012,0-.018s0-.013,0-.019,0-.012,0-.019,0-.014,0-.021,0-.013,0-.019,0-.014,0-.022,0-.013,0-.019l.007-.027L.15,1.773c0-.009.006-.019.01-.028l.006-.018c.007-.017.015-.034.023-.052v0c.009-.018.019-.037.03-.056l.013-.022.016-.025.016-.024.018-.026L.3,1.494l.02-.027.02-.025.022-.027L.4,1.372c.027-.031.057-.062.087-.093l.021-.021c.031-.03.062-.06.1-.089l.012-.01L.7,1.088l.068-.054L.825.989.9.937.968.888,1,.867,1.114.794l.01-.006c.042-.026.085-.051.129-.075L1.277.7,1.348.661,1.436.615,1.508.58,1.589.542,1.662.51,1.744.476,1.815.448,1.9.415c.04-.014.08-.028.12-.041h0L2.154.335l.037-.01C2.235.314,2.279.3,2.323.294l.1-.018L2.468.267q.071-.011.14-.017c.358-.03.585.052.666.209L3.232.38Z" transform="translate(13.341 8.524)"/><path class="b" d="M5.654.014,5.5.03,5.443.038,5.336.052,5.271.063l-.1.017L5.1.094,5.006.113H5l-.01,0c-.067.014-.135.03-.2.047l-.06.015L4.551.227,4.522.234l-.01,0L4.323.295,4.295.3,4.134.358,4.117.364,4.058.385l-.1.038-.079.03-.1.039L3.744.5,3.689.525,3.6.563,3.512.6,3.42.639,3.386.654l-.05.023L3.244.719,3.16.759,3.069.8,3.03.822,2.987.843l-.1.049-.08.041-.1.051-.046.025-.03.017-.118.066-.064.037-.139.082-.035.021,0,0q-.1.06-.194.122l-.052.034-.145.1-.033.022-.025.018-.084.059-.071.05L1.591,1.7l-.068.051-.081.062-.065.051-.08.065-.051.041-.009.008c-.053.044-.1.088-.154.133l-.033.03-.115.106-.046.045-.1.1L.752,2.43c-.044.046-.087.092-.128.139l-.067.077L.54,2.667l-.05.062-.045.058L.4,2.847.359,2.9c-.014.02-.027.039-.041.059l-.036.055-.035.058-.023.038-.011.021L.2,3.157c-.017.031-.033.062-.048.093l0,0c-.015.031-.029.062-.042.092L.1,3.366l-.009.021c-.008.022-.016.044-.024.065l0,.012c-.01.03-.019.061-.027.09h0c0,.018-.009.036-.012.053s0,.013,0,.02-.006.033-.008.05,0,.029-.005.044,0,.032,0,.048S0,3.788,0,3.8s0,.01,0,.016,0,.029,0,.043S0,3.883,0,3.9s0,.028.006.042,0,.018,0,.026,0,.009,0,.013.007.027.01.04.007.025.011.037.01.025.015.038l.009.024.011.022L.2,4.383c-.008-.015-.014-.031-.02-.046S.168,4.312.164,4.3.156,4.274.153,4.262s-.007-.026-.01-.04,0-.026-.007-.039,0-.027-.006-.041,0-.028,0-.041,0-.029,0-.043,0-.028,0-.042,0-.032,0-.048,0-.029.005-.044.005-.033.008-.05S.153,3.824.16,3.8h0c.007-.03.017-.06.027-.09l0-.012q.015-.043.033-.087l.009-.022c.013-.03.027-.061.042-.092v0C.29,3.463.307,3.432.324,3.4l.013-.023.035-.059.036-.058.036-.055.04-.059.041-.056.045-.061.046-.058.05-.062c.027-.032.054-.065.084-.1s.084-.093.128-.139l.041-.042.1-.1.046-.045.115-.106.033-.03c.05-.045.1-.089.153-.133l.06-.049.08-.065.065-.051.081-.062.068-.051L1.8,1.881l.071-.05.083-.059.059-.04.145-.1L2.208,1.6c.064-.041.129-.082.195-.122l.039-.023.139-.082.064-.036.118-.066L2.84,1.23l.1-.051.08-.042.1-.049.081-.04L3.285,1,3.369.964,3.461.921,3.545.884l.092-.04L3.722.808,3.814.77,3.9.736,4,.7l.079-.03.1-.038L4.258.6,4.42.549,4.448.539,4.637.482,4.676.471,4.858.422,4.917.407c.068-.017.136-.033.2-.047l.011,0,.1-.019L5.3.324l.1-.016L5.461.3,5.57.282,5.621.275,5.779.259C6.593.19,7.112.376,7.3.735L7.17.49C6.987.132,6.468-.055,5.654.014Z" transform="translate(11.309 7.226)"/><path class="b" d="M12.2,1.011,12.173.95,12.142.889l0-.009L12.111.828C11.8.222,10.925-.093,9.55.024q-.131.011-.266.027L9.192.064l-.18.024L8.9.107,8.736.135,8.613.159,8.456.19h0C8.37.209,8.287.228,8.2.247l-.07.017-.2.052L7.871.331,7.639.4,7.613.4,7.574.415q-.127.037-.254.078L7.3.5c-.087.028-.174.057-.262.086L7,.6,6.955.614l-.1.036L6.678.714,6.545.764,6.373.831,6.324.85,6.231.888,6.075.952l-.143.061-.156.068-.058.025-.084.039-.155.071-.141.067-.154.074-.066.032-.072.037-.163.083-.135.07-.161.086-.079.042-.089.049-.043.024q-.122.068-.243.138l-.046.027-.231.137-.011.007-.033.02L3.6,2.24l-.062.039L3.3,2.433l-.016.011L3.13,2.55l-.043.03-.141.1-.119.085-.139.1-.115.086-.136.106-.109.086-.134.11-.086.07-.023.02-.039.033c-.058.05-.116.1-.173.15l-.034.03q-.1.085-.187.17l-.041.038c-.056.053-.111.106-.164.159l-.021.02q-.087.087-.17.175l-.039.041c-.056.059-.11.119-.163.179Q1,4.4.951,4.457l-.01.012L.912,4.5l-.044.053-.039.049-.041.052L.75,4.706l-.039.051L.676,4.8l-.037.051L.605,4.9l-.035.05L.539,5l-.033.049L.476,5.1l-.031.049-.028.046-.029.048-.011.02-.011.02-.043.078-.017.032c-.019.035-.037.071-.054.106l0,.008c-.016.032-.03.064-.045.1L.189,5.63.159,5.7l-.008.019-.005.015-.021.056-.012.035c-.007.02-.013.04-.02.06l-.009.029C.075,5.946.067,5.974.06,6V6q-.011.043-.02.086v0c0,.01,0,.02-.006.03s-.006.031-.009.046,0,.024-.005.036,0,.029-.006.043,0,.024,0,.035l0,.042c0,.012,0,.023,0,.035S0,6.389,0,6.4s0,.006,0,.01,0,.017,0,.026,0,.025,0,.037S0,6.5,0,6.511s0,.024,0,.036,0,.023,0,.034,0,.024,0,.036,0,.022,0,.034l.006.035,0,.01.005.022.008.034.009.032c0,.011.006.022.01.033l.01.031c0,.011.007.022.012.032l.012.03L.1,6.943l0,.011c.006.013.012.025.018.037h0l.125.244C.242,7.219.235,7.2.228,7.187L.214,7.155.2,7.125C.2,7.115.194,7.1.191,7.093L.18,7.062.17,7.029C.168,7.018.164,7.008.162,7S.157,6.974.154,6.963s0-.022-.007-.033,0-.023-.006-.035,0-.022-.005-.034,0-.024,0-.035l0-.035c0-.012,0-.024,0-.036s0-.023,0-.035,0-.025,0-.037,0-.024,0-.036,0-.027,0-.041,0-.023,0-.035,0-.028,0-.042,0-.024,0-.035,0-.029.006-.043l.005-.035c0-.015.005-.03.008-.045s0-.023.007-.035c.006-.028.013-.057.02-.086h0C.192,6.219.2,6.19.209,6.161l.009-.029.019-.06L.25,6.037l.02-.056.013-.034.031-.073.014-.032c.014-.032.029-.064.045-.1l0-.008c.017-.035.035-.07.054-.106L.448,5.6l.043-.078.022-.039.029-.048L.57,5.389.6,5.34l.03-.046.033-.049L.7,5.2l.035-.05L.764,5.1.8,5.049.836,5,.876,4.95.913,4.9.954,4.85.994,4.8l.044-.053L1.077,4.7l.1-.118c.053-.06.107-.119.163-.178l.039-.041q.083-.088.17-.175l.021-.02c.054-.053.109-.106.164-.159l.041-.039c.061-.057.123-.114.186-.17L2,3.77c.057-.05.114-.1.173-.15l.039-.033.109-.09.134-.11.11-.086L2.7,3.2l.115-.086.139-.1.119-.085.142-.1.2-.136.016-.01c.077-.052.156-.1.235-.153l.062-.039.211-.132.033-.02q.12-.073.242-.144l.047-.027L4.5,2.023,4.545,2l.166-.091.162-.086.135-.07.163-.083L5.309,1.6l.154-.075L5.6,1.459l.155-.071L5.9,1.324l.156-.068L6.2,1.2l.156-.064L6.5,1.075l.172-.066L6.8.958,6.98.895l.141-.05L7.168.828,7.43.742l.016,0L7.7.66,7.738.648,8,.576,8.055.56l.2-.052L8.329.492C8.413.472,8.5.452,8.58.435L8.739.4,8.861.379,9.025.351,9.137.333C9.2.323,9.259.316,9.32.308L9.409.3Q9.543.28,9.675.268c1.376-.117,2.252.2,2.561.8l-.027-.052Z" transform="translate(8.813 5.631)"/><path class="b" d="M12.721.032l-.176.017-.058.006-.12.013-.075.009-.1.013L12.107.1l-.1.015-.08.013-.1.016-.083.015-.1.018L11.552.2l-.1.019-.088.018-.1.021h-.005l-.018,0-.218.049-.066.015-.207.05-.037.009-.241.063-.062.017-.195.055-.04.011-.023.007L10,.581,9.94.6,9.728.664,9.679.679,9.515.733,9.438.759,9.3.806,9.264.818,9.212.837,9.1.877,9.007.91,8.9.951,8.8.985l-.113.043L8.6,1.063l-.114.045-.061.024-.03.012-.1.043L8.2,1.224l-.106.044L8,1.307l-.106.045-.092.04-.107.047-.073.032L7.6,1.48l-.108.049L7.4,1.57l-.109.051L7.2,1.662l-.11.053-.086.041-.116.056-.074.036-.007,0-.183.092-.016.008-.2.1-.064.034-.133.07L6.14,2.2l-.118.064L6,2.272,5.952,2.3l-.137.076-.078.044-.128.073-.079.046L5.4,2.615l-.076.045-.139.083-.05.03-.011.007-.22.136-.055.034-.169.107L4.618,3.1l-.193.126L4.4,3.24l-.212.143L4.17,3.4l-.055.038-.1.066-.08.056-.093.066-.08.058-.092.067L3.6,3.806l-.09.067-.078.059L3.339,4l-.076.059-.087.068-.076.06-.086.069-.073.06-.085.07-.048.04-.02.017-.161.137-.015.013-.171.151-.049.044L2.27,4.9l-.054.05-.124.117-.04.038L1.9,5.257l-.034.034-.119.122-.049.051-.1.112-.044.048c-.048.052-.1.1-.141.156s-.092.105-.136.158l-.014.016L1.215,6l-.058.07L1.1,6.135,1.05,6.2,1,6.268l-.052.068L.9,6.4l-.05.068-.045.063L.759,6.6.717,6.66l-.043.066-.04.062-.041.065-.037.061-.038.065L.5,7.005l-.014.026c-.02.035-.039.069-.058.1l-.023.042c-.025.047-.049.094-.072.141l0,.01c-.021.043-.041.086-.06.128L.252,7.5c-.014.033-.028.065-.041.1L.2,7.622l-.007.02c-.01.025-.019.05-.028.074L.15,7.763c-.009.027-.018.053-.026.08l-.013.039C.1,7.921.089,7.959.079,8V8c-.01.038-.019.077-.027.114v.006c0,.014-.005.027-.008.04L.031,8.22c0,.016,0,.032-.007.047s-.006.039-.008.058,0,.032-.005.047,0,.037-.005.056,0,.031,0,.047,0,.036,0,.054,0,.009,0,.013,0,.023,0,.035,0,.033,0,.05,0,.031,0,.047,0,.032,0,.049,0,.03,0,.046,0,.032.005.048,0,.03.006.044l.008.047,0,.013c0,.01,0,.02.007.03S.045,8.98.049,9s.007.028.011.042.008.03.013.044l.014.041L.1,9.166l.016.04.018.042.006.015.024.05.125.244C.281,9.536.271,9.514.261,9.493L.244,9.451l-.016-.04C.222,9.4.217,9.382.212,9.368L.2,9.326.185,9.282.174,9.24c0-.015-.007-.03-.01-.046S.157,9.165.154,9.15L.147,9.1c0-.015,0-.03-.007-.045s0-.032-.005-.047,0-.03,0-.046,0-.032,0-.049,0-.031,0-.047,0-.033,0-.05,0-.032,0-.048,0-.036,0-.054,0-.031,0-.047,0-.037.005-.056,0-.031,0-.047.006-.039.008-.058,0-.032.007-.047.007-.04.011-.06.005-.031.009-.047C.184,8.32.193,8.282.2,8.243v0c.009-.038.02-.076.032-.114l.012-.039c.008-.027.017-.053.026-.08l.017-.047.027-.074.018-.045c.013-.032.026-.065.04-.1L.4,7.7q.028-.064.059-.128L.46,7.562c.022-.047.047-.094.072-.141l.023-.042q.028-.052.058-.1l.03-.052.038-.064L.718,7.1l.041-.065L.8,6.971.842,6.9l.042-.062.047-.067.045-.063.049-.068.047-.064.052-.068.05-.065.055-.069.052-.065.058-.07.052-.063c.044-.052.089-.1.136-.158s.094-.1.141-.156l.044-.048.105-.111.048-.051.119-.122L2.021,5.5c.051-.051.1-.1.157-.154l.04-.038.124-.117.054-.05.12-.11.049-.044c.057-.05.113-.1.171-.151l.016-.014.16-.136.069-.057.085-.07.074-.06.086-.069.075-.06L3.387,4.3l.077-.059.089-.068.078-.059.09-.067L3.8,3.992l.091-.066.08-.058L4.064,3.8l.081-.057.095-.066.077-.053.211-.143.024-.016.193-.126L4.808,3.3l.169-.107.055-.035.22-.136.061-.037L5.451,2.9l.076-.045.128-.074.079-.046.128-.073.078-.044.137-.076.07-.039.118-.064L6.343,2.4l.133-.07L6.539,2.3l.2-.1.016-.008L6.936,2.1l.081-.039L7.132,2l.086-.041.11-.053.089-.041.109-.051.09-.041.108-.049.091-.04.107-.047.093-.04.106-.045.094-.039.1-.044.095-.039.1-.042.091-.036.114-.045.091-.035.113-.043L9.02,1.2l.112-.041.092-.033.112-.04.088-.031L9.563,1,9.64.978,9.8.924,9.853.908l.212-.066L10.12.825l.157-.047L10.34.761l.195-.054L10.6.689l.241-.063.036-.009.207-.05.066-.016L11.365.5,11.389.5l.1-.02.089-.018.1-.019.086-.017.1-.018.083-.015.1-.017L12.13.362l.1-.015.079-.011.107-.014.073-.009L12.614.3,12.67.293l.176-.017c1.833-.155,3,.264,3.412,1.071L16.133,1.1C15.721.3,14.554-.123,12.721.032Z" transform="translate(6.781 4.333)"/><path class="b" d="M21.136,1.563,21.105,1.5l0-.009-.027-.052c-.539-1.054-2.063-1.6-4.457-1.4l-.23.021-.082.009-.151.017L16.06.1l-.141.018-.1.015-.136.02-.108.017-.132.021-.111.019L15.2.234l-.113.022-.13.025L14.844.3l-.131.027h-.007l-.024.005L14.4.4l-.087.02-.27.066L13.993.5l-.314.082L13.6.6l-.254.071-.052.015L13.261.7l-.205.061-.072.021-.277.086-.064.021-.214.07-.1.034-.181.062-.046.016-.069.024-.147.052-.119.043-.147.054-.12.044-.147.056-.119.046-.149.058L11,1.478l-.038.016-.137.055-.123.05-.137.057-.122.051-.138.059-.121.052-.139.061-.1.042-.024.011L9.787,2l-.118.054-.142.066-.116.054-.145.069-.112.054L9,2.367l-.1.048-.009,0-.236.118-.024.012-.258.133L8.3,2.726l-.174.092-.1.054-.155.084-.022.012-.068.038-.18.1-.1.057-.167.1-.1.06-.167.1-.1.058-.182.109-.065.039L6.7,3.63l-.287.177-.071.045-.221.14-.084.054-.251.165-.031.021-.276.187-.028.019-.072.05-.124.086-.105.074-.122.087-.1.075L4.8,4.9l-.1.076-.118.088-.1.077-.116.089-.1.077-.114.089-.1.078-.112.09-.1.078L3.73,5.73l-.063.052L3.641,5.8l-.209.178L3.411,6c-.076.065-.15.131-.223.2l-.065.058L2.965,6.4l-.071.066-.161.152-.052.05q-.1.1-.2.2l-.044.045-.156.159-.064.067-.137.146-.058.062c-.062.068-.124.136-.185.2-.047.053-.092.105-.137.158l-.031.036-.028.033-.05.061-.076.092-.068.085L1.371,8.1l-.065.084-.068.089-.062.083-.064.088-.059.083-.061.087L.937,8.7.88,8.786l-.052.08-.054.086-.048.079-.05.084-.02.034-.044.077L.6,9.246q-.039.07-.075.139l-.017.033q-.034.066-.067.132l0,.008Q.4,9.627.374,9.695l-.015.032q-.03.068-.058.135l0,.007-.035.088-.009.025c-.012.032-.024.065-.036.1L.2,10.141c-.012.035-.023.069-.034.1-.005.017-.011.034-.016.051-.015.05-.029.1-.042.149v0c-.013.05-.024.1-.035.149l0,.008c0,.018-.006.035-.01.053s-.01.053-.015.079-.006.041-.009.061-.008.051-.011.076,0,.041-.006.061-.005.049-.007.073,0,.04,0,.061,0,.048,0,.071c0,.006,0,.011,0,.017s0,.03,0,.046,0,.043,0,.065,0,.041,0,.061,0,.042,0,.063,0,.04.006.06,0,.041.007.062.006.039.009.058.006.04.01.06l0,.018c0,.013.006.026.009.039s.009.04.014.06.009.037.015.055.011.039.017.058l.018.054.02.056.021.052.023.055.008.019.031.065.125.244c-.014-.028-.027-.056-.04-.084L.28,12.27c-.007-.017-.015-.035-.021-.052l-.02-.056-.018-.054C.215,12.089.209,12.069.2,12.05s-.01-.037-.015-.055-.009-.04-.013-.06S.167,11.9.163,11.878l-.01-.06c0-.02-.006-.039-.009-.059s0-.041-.007-.062,0-.04-.005-.06,0-.042,0-.063,0-.041,0-.061,0-.043,0-.065,0-.041,0-.062,0-.047,0-.071,0-.041,0-.061,0-.049.007-.073,0-.041.007-.061.007-.051.011-.076.006-.041.009-.061.01-.053.015-.079.007-.04.012-.06q.016-.074.035-.15v0q.019-.074.042-.15l.016-.051c.011-.035.022-.069.034-.1l.022-.061c.011-.032.024-.065.036-.1s.029-.075.045-.113l0-.008c.019-.044.038-.089.058-.134L.5,9.939Q.529,9.871.563,9.8l0-.008Q.6,9.729.634,9.663L.651,9.63q.036-.069.075-.139l.011-.019L.8,9.361l.05-.084L.9,9.2l.054-.085L1,9.031l.057-.086.055-.082.061-.087.058-.082L1.3,8.6l.062-.083.068-.089L1.5,8.348l.072-.09.068-.085.076-.092.078-.094.031-.036c.045-.052.09-.1.137-.158.06-.068.122-.136.184-.2L2.2,7.527l.137-.146L2.4,7.315l.156-.159L2.6,7.111q.1-.1.2-.2l.053-.05.161-.152.071-.066L3.248,6.5l.065-.058.224-.2.021-.018.209-.178.089-.074.111-.091.1-.078.112-.09.1-.078.114-.089.1-.078L4.6,5.381,4.7,5.3l.117-.088.1-.076.12-.087.1-.075.121-.086.105-.074L5.5,4.732l.1-.069.276-.186.031-.021.251-.165.084-.054.221-.14.071-.045.287-.177L6.9,3.827l.182-.109.1-.058.167-.1.1-.06.167-.095.1-.058.179-.1.092-.05.155-.084.1-.054.175-.092L8.5,2.927l.258-.133.024-.012.236-.118.105-.052.151-.074.111-.053.146-.07.115-.054L9.793,2.3l.118-.054.141-.064.12-.053.138-.061.122-.052.138-.059.122-.051.138-.057.123-.05.138-.056.118-.047.15-.059.118-.045.148-.056.119-.044.147-.054.119-.043.147-.052.115-.04.181-.062.1-.034.215-.07.063-.021.278-.086L13.18,1l.206-.061.081-.023.254-.071L13.8.825l.314-.082.047-.012.27-.066.087-.02.284-.063.031-.007.13-.027.115-.024L15.214.5l.112-.021.133-.024.108-.019L15.7.415l.1-.017.134-.02.1-.015.144-.018.091-.012.157-.017.076-.008.23-.022c2.394-.2,3.918.345,4.457,1.4l-.027-.052,0-.01Z" transform="translate(4.285 2.738)"/><path class="b" d="M19.789.05l-.274.026-.095.01-.182.02-.119.015-.161.021-.129.019-.154.022L18.544.2,18.39.229l-.133.023L18.1.279,17.968.3l-.155.03-.137.028-.154.032-.008,0L17.484.4l-.338.075-.1.024L16.721.58l-.057.014q-.186.047-.374.1l-.1.027L15.89.8l-.061.017-.036.011L15.547.9,15.463.93l-.331.1-.076.025-.256.084-.119.04-.215.073-.055.019-.082.029-.175.062-.142.051-.175.064-.142.053-.176.067-.142.054-.177.069-.1.037-.046.019-.163.066-.147.06-.164.068-.145.061-.165.071-.144.062-.166.073-.114.05-.029.013-.168.076-.141.064-.17.079-.137.064-.175.083-.131.063-.182.089-.113.055-.01.005-.285.143-.024.012-.308.158-.1.052-.207.109-.12.064-.185.1-.026.014-.082.045L9.045,3.7l-.122.069-.2.113L8.6,3.951l-.2.116-.118.069-.217.13-.077.046-.016.01q-.172.1-.342.211l-.085.053-.263.167-.1.065-.3.2-.037.024q-.166.11-.329.222l-.033.022-.086.06-.148.1-.125.088-.145.1-.124.089-.143.1-.123.09-.14.1-.121.091-.138.106-.119.092-.136.107-.117.093-.134.108-.115.093-.132.109-.076.062-.031.026-.249.212-.024.021q-.135.117-.266.234l-.077.069-.187.171L3.446,7.7l-.192.181-.062.059q-.123.119-.243.239L2.9,8.231l-.185.189L2.635,8.5l-.163.173L2.4,8.747q-.112.122-.22.244l-.163.188-.036.043L1.95,9.26l-.06.073-.09.109-.081.1-.086.108-.077.1-.081.107-.074.1-.077.105-.07.1-.073.1-.066.1-.068.1-.062.1-.064.1-.058.095-.06.1L.78,10.9l-.052.091-.013.023c-.031.055-.061.111-.09.166l-.021.039c-.027.053-.054.1-.079.157l-.005.01c-.027.054-.052.109-.076.162l-.017.039c-.024.054-.047.107-.069.16l0,.009q-.022.052-.042.1l-.011.03c-.015.039-.029.077-.043.115l-.026.073c-.014.042-.027.083-.04.124l-.02.061c-.018.06-.035.119-.05.178v0q-.023.09-.042.178l0,.009c0,.021-.008.042-.012.063s-.012.063-.017.094-.008.049-.011.073-.009.06-.013.09S.02,13,.017,13.023s-.006.058-.008.087,0,.048,0,.073,0,.056,0,.084c0,.007,0,.013,0,.02s0,.036,0,.055,0,.052,0,.077,0,.049,0,.073,0,.051,0,.075,0,.048.007.071.005.049.008.074.007.047.011.07.008.048.012.072c0,.007,0,.014,0,.021s.007.031.01.046.01.048.016.071.012.044.018.066.013.046.02.069.014.043.021.064.016.045.024.067.017.042.025.062.018.044.028.065l.01.023c.012.026.025.052.038.077l.125.245c-.017-.033-.032-.067-.048-.1l-.028-.065L.284,14.5c-.008-.022-.016-.045-.024-.067s-.015-.043-.021-.064S.225,14.326.219,14.3.207,14.259.2,14.237.19,14.19.185,14.166s-.01-.045-.014-.068-.008-.048-.012-.072-.008-.046-.011-.07-.006-.049-.008-.074,0-.047-.007-.071,0-.05,0-.075,0-.048,0-.073,0-.051,0-.077,0-.049,0-.074,0-.056,0-.084,0-.048,0-.073.005-.058.008-.087,0-.049.008-.073.008-.06.013-.09.007-.049.011-.073.012-.063.018-.094.009-.048.014-.072c.013-.059.026-.118.042-.178v0c.015-.059.032-.118.05-.177.006-.02.013-.04.019-.061.013-.041.026-.082.04-.124l.026-.073c.014-.038.028-.077.042-.115S.461,12.043.479,12l0-.009c.022-.053.045-.106.069-.16L.57,11.79c.025-.054.05-.108.076-.162l0-.01q.038-.078.079-.157l.02-.039q.043-.083.089-.166l.013-.023c.025-.044.05-.088.076-.133L.989,11l.058-.1.064-.1.062-.1.068-.1.065-.1.073-.1.069-.1.077-.105.074-.1.081-.107.077-.1.086-.108.081-.1.09-.109.094-.112.036-.043.163-.188q.108-.122.22-.243L2.6,8.917l.163-.174.076-.079q.092-.095.186-.189l.053-.053q.12-.12.244-.239l.062-.059.192-.181.084-.078.188-.171.077-.069c.088-.078.176-.157.266-.234l.024-.021c.082-.071.166-.142.249-.212l.106-.089L4.7,6.959l.114-.093.134-.108.117-.093L5.2,6.559l.12-.092.137-.105.121-.091.14-.1.123-.091.142-.1.124-.09.145-.1.125-.088.148-.1.119-.082q.164-.112.329-.222l.037-.024.3-.2L7.409,5l.263-.167.085-.053L8.1,4.567l.094-.056.217-.13.118-.069.2-.116.124-.071.2-.113.121-.069.214-.119.108-.06.185-.1L9.8,3.6,10,3.491l.1-.052.308-.158.024-.012.286-.143.125-.061.18-.088.133-.064.173-.082.139-.065.169-.078.141-.064.167-.076.143-.064.165-.073.145-.062.164-.07.146-.061.163-.068.147-.06.163-.066.141-.056L13.5,1.9l.142-.055.175-.066.143-.053.175-.064.142-.051.175-.062.138-.048.215-.073.119-.04.256-.084.076-.024.33-.1.085-.025.245-.073.1-.028.3-.085.1-.027q.188-.051.375-.1l.057-.014.322-.078.1-.024.338-.075.037-.008L17.8.607l.137-.028.155-.03.135-.026L18.383.5l.132-.023.156-.025L18.8.427,18.957.4l.126-.018.162-.021.117-.015.182-.02L19.64.32l.274-.026c2.851-.241,4.666.411,5.308,1.666L25.1,1.716C24.454.461,22.639-.192,19.789.05Z" transform="translate(2.253 1.439)"/><path class="a" d="M2.482.006A3.831,3.831,0,0,0,.274,1.128c-.493.558-.3.96.425.9A3.83,3.83,0,0,0,2.907.9C3.4.347,3.209-.055,2.482.006Z" transform="translate(13.341 8.524)"/><path class="c" d="M3.124.02l.006.017,0,.016,0,.018,0,.017,0,.018c0,.006,0,.012,0,.018s0,.013,0,.019,0,.012,0,.019,0,.014,0,.021l0,.019,0,.022,0,.019c0,.009,0,.018-.007.027s0,.013-.006.019l-.01.028L3.106.336Q3.1.361,3.083.387v0c-.009.018-.019.037-.03.055L3.04.467,3.024.492,3.008.517,2.99.543,2.973.567l-.02.027-.02.025L2.911.646,2.874.689c-.028.031-.057.062-.088.092L2.765.8q-.046.045-.1.09L2.658.9C2.632.927,2.6.95,2.575.973l-.068.054-.06.046-.072.052L2.3,1.174l-.032.021-.115.073-.01.006c-.042.026-.085.051-.129.075L2,1.362,1.925,1.4l-.088.046-.072.035-.081.038-.074.032-.081.034-.071.028-.089.033-.12.041h0c-.042.013-.084.025-.126.037l-.037.01c-.045.012-.089.022-.132.032s-.065.012-.1.018l-.047.009q-.071.011-.14.017a.909.909,0,0,1-.548-.085A.32.32,0,0,1,0,1.6l.125.244c.08.157.308.239.666.209.046,0,.092-.009.14-.017L.979,2.03l.1-.017h0c.043-.009.087-.02.131-.031l.037-.01.044-.012.082-.025h0l.091-.03.029-.011.089-.033.046-.017.025-.01L1.735,1.8l.051-.022.022-.01.082-.038L1.943,1.7l.019-.01.089-.046L2.1,1.618l.02-.011.023-.013.126-.073,0,0,.01-.006L2.4,1.439l.031-.021.029-.02L2.5,1.369l.073-.052.06-.046L2.7,1.218l.026-.02.058-.05.012-.01q.049-.044.1-.089l.021-.021Q2.958.98,3,.934H3L3.028.9,3.036.891,3.058.864l.02-.025L3.1.812,3.116.787,3.133.761,3.149.737,3.165.711l.01-.017,0-.006C3.189.67,3.2.652,3.208.633v0C3.217.614,3.224.6,3.231.58l0-.006,0-.013.01-.028L3.254.514c0-.009,0-.018.007-.027s0-.007,0-.01V.469c0-.007,0-.015,0-.022s0-.013,0-.019,0-.014,0-.021,0-.008,0-.012V.388c0-.006,0-.013,0-.019a.177.177,0,0,0,0-.018l0-.018s0-.008,0-.011l0-.006c0-.006,0-.012,0-.018L3.256.281,3.249.265l0-.011,0-.01L3.115,0C3.119.006,3.121.013,3.124.02Z" transform="translate(13.374 8.74)"/><path class="c" d="M7.19.183,7.159.122,7.127.061l0-.009L7.1,0c.008.015.014.031.02.047s.01.025.015.038.008.025.011.037.007.026.01.04,0,.026.007.039,0,.027.006.042,0,.028,0,.041,0,.029,0,.043,0,.028,0,.042,0,.032,0,.048,0,.029-.005.044-.005.033-.008.05-.009.048-.016.073h0q-.012.044-.027.09a.092.092,0,0,1,0,.012c-.009.028-.02.057-.032.087L7.063.794c-.013.031-.027.061-.042.092v0c-.015.03-.031.061-.048.093l-.013.023-.035.059-.036.058-.036.055-.04.059-.041.056-.045.061-.045.057-.05.062c-.027.033-.055.065-.084.1s-.084.093-.128.139l-.041.042-.1.1-.046.045L6.119,2l-.033.03q-.075.067-.154.133l-.059.049-.079.065-.065.051-.081.063-.068.051L5.5,2.5l-.071.05-.083.059-.059.04-.145.1-.052.034q-.1.062-.195.122l-.039.023-.139.082-.064.037-.118.066-.076.041-.1.051-.08.041-.1.049-.082.04L4.01,3.38l-.083.039-.092.042L3.75,3.5l-.092.04-.084.036-.092.038L3.4,3.647l-.1.039-.079.03-.1.038-.075.027-.161.054-.028.009L2.659,3.9l-.039.011-.182.049-.059.015c-.068.017-.136.033-.2.047l-.011,0-.1.019L2,4.059l-.1.016-.066.011-.11.015-.051.007-.158.016C.7,4.194.184,4.007,0,3.649L.027,3.7l0,.009.031.061.031.061,0,.009.027.052c.183.359.7.545,1.516.476L1.8,4.353l.053-.007.108-.015.065-.011.1-.017L2.2,4.289l.093-.018h0l.01,0c.067-.014.134-.03.2-.047l.059-.015.182-.049.029-.008.011,0,.188-.057L3,4.079l.161-.054.016-.005L3.237,4l.1-.038.079-.03.1-.039.029-.011.055-.022L3.7,3.82l.084-.036.092-.04.034-.015.05-.023.092-.042.084-.04.091-.044.039-.019.043-.022.1-.049.08-.041.1-.051.046-.025.03-.017.118-.066.064-.037.139-.082.035-.02,0,0c.066-.04.13-.081.194-.122l.052-.034.145-.1.034-.022.025-.018L5.551,2.8l.071-.05L5.7,2.686l.068-.051.081-.062.065-.051L6,2.457l.051-.041.009-.008c.052-.044.1-.088.154-.133l.033-.03.115-.106L6.4,2.094,6.5,2l.041-.042c.044-.046.087-.092.128-.139l.067-.077.017-.021.05-.062L6.851,1.6,6.9,1.537l.04-.056.041-.059.036-.055.036-.058.023-.038.011-.021L7.1,1.227c.017-.031.033-.062.048-.093l0,0c.015-.031.029-.062.042-.092L7.2,1.017,7.206,1c.009-.022.016-.043.024-.065l0-.012c.01-.03.019-.061.027-.09h0c0-.018.009-.036.013-.053s0-.013,0-.02.006-.033.008-.05,0-.029.006-.044,0-.032,0-.048S7.3.6,7.3.587s0-.01,0-.016,0-.029,0-.044,0-.028,0-.041,0-.028-.006-.042,0-.017,0-.026l0-.013c0-.014-.007-.027-.01-.04S7.26.341,7.256.329,7.247.3,7.241.291,7.235.274,7.232.267L7.221.245,7.195.192Z" transform="translate(11.383 7.716)"/><path class="c" d="M12.008.048l.013.031.012.03c0,.011.008.021.012.032l.01.031.01.033c0,.01.006.021.009.032s.005.023.008.034,0,.022.007.033,0,.023.006.035,0,.022.005.034,0,.024,0,.035,0,.023,0,.035,0,.024,0,.036,0,.023,0,.035,0,.025,0,.037V.588c0,.013,0,.027,0,.041s0,.023,0,.035,0,.028,0,.042,0,.024,0,.035,0,.029-.006.044L12.088.82l-.009.046L12.073.9c-.006.028-.013.057-.021.086h0c-.007.029-.015.058-.024.087l-.009.029L12,1.163l-.013.035-.021.056-.013.034-.031.073-.014.032c-.014.032-.029.064-.045.1l0,.008c-.017.035-.035.07-.054.106l-.017.032-.043.078-.022.039-.029.049-.028.046-.031.049-.03.047-.033.049-.032.047-.035.05-.034.047-.037.051-.035.048-.039.051-.037.048-.041.052-.039.049-.044.053-.039.047c-.034.039-.067.079-.1.118-.053.06-.107.119-.163.179l-.039.041c-.056.058-.112.117-.17.175l-.021.02q-.08.08-.164.159l-.041.039q-.091.086-.186.17l-.034.03c-.057.05-.114.1-.173.15l-.039.033-.109.09-.134.109-.109.086-.136.106-.115.086-.139.1-.119.085-.142.1c-.066.046-.133.091-.2.136l-.016.011c-.078.052-.156.1-.235.153l-.062.039L8.3,4.882l-.033.02q-.12.073-.242.144l-.047.027-.242.138-.043.024-.167.091-.162.086-.134.07-.163.083-.138.068-.154.074-.141.067-.155.071-.142.064-.156.068-.142.061L5.879,6.1l-.141.057-.173.066-.133.05-.176.064-.141.05-.047.016c-.087.03-.174.059-.262.086L4.79,6.5l-.253.077L4.5,6.587q-.13.038-.258.072l-.059.015-.2.052-.069.017c-.085.02-.168.039-.252.057L3.5,6.832l-.122.024-.164.028L3.1,6.9l-.183.025-.088.012q-.134.016-.266.027a5.524,5.524,0,0,1-1.041,0q-.1-.011-.2-.026T1.137,6.9a2.521,2.521,0,0,1-.411-.126,1.852,1.852,0,0,1-.208-.1C.474,6.654.433,6.629.394,6.6a1.353,1.353,0,0,1-.161-.13A1.132,1.132,0,0,1,0,6.163H0l.125.244c.31.605,1.186.921,2.561.8q.132-.011.266-.027l.091-.012c.06-.008.119-.015.18-.025l.114-.019L3.5,7.1l.123-.024.158-.031h0c.082-.017.165-.036.248-.056L4.1,6.971l.2-.052L4.365,6.9,4.6,6.839l.026-.008.039-.012.254-.077.016,0,.262-.086.047-.016.041-.014.1-.036.176-.063.134-.051L5.863,6.4l.049-.019L6,6.348l.156-.064L6.3,6.223l.156-.068.058-.025L6.6,6.092l.155-.071L6.9,5.954l.154-.074.066-.032.072-.037.163-.083.135-.07.162-.086.078-.042.089-.049.043-.024L8.1,5.319l.046-.027.231-.137.011-.007.033-.02.211-.132L8.7,4.956c.079-.051.158-.1.235-.153l.016-.01.158-.107.043-.03.141-.1.119-.085.139-.1.115-.086L9.8,4.177l.109-.086.134-.11.085-.07.023-.02.039-.033c.058-.05.116-.1.173-.15l.034-.03q.1-.085.187-.17l.041-.039c.056-.053.111-.106.164-.159l.02-.02c.058-.058.115-.116.17-.175l.039-.041c.056-.059.11-.119.163-.178h0l.1-.118.011-.012.029-.035.043-.053.039-.049.041-.052.037-.048.039-.051.036-.048L11.6,2.38l.034-.047.035-.05.032-.047.033-.049.03-.046.031-.049.028-.046L11.848,2l.012-.02.011-.019.043-.078.017-.032c.019-.035.037-.071.054-.106l0-.008c.016-.032.031-.064.045-.1l.014-.032.03-.073.008-.019L12.09,1.5c.007-.019.014-.037.021-.056l.013-.035.019-.06.01-.03c.009-.029.016-.057.024-.086v0c.007-.029.014-.058.02-.086v0c0-.01,0-.02.006-.03s.006-.031.009-.046,0-.024.005-.035,0-.029.006-.043,0-.024,0-.035,0-.028,0-.042,0-.023,0-.035,0-.027,0-.041,0-.006,0-.01,0-.018,0-.026,0-.025,0-.037,0-.024,0-.035,0-.024,0-.036,0-.023,0-.035,0-.024,0-.035,0-.022-.005-.034,0-.023-.006-.035l0-.01c0-.008,0-.015-.005-.023L12.2.483,12.191.451,12.181.418,12.171.387,12.159.354l-.012-.03L12.134.293l0-.011L12.111.244,11.985,0C11.994.016,12,.032,12.008.048Z" transform="translate(8.938 6.459)"/><path class="a" d="M9.55.024a14.738,14.738,0,0,0-8.5,4.315C-.842,6.485-.11,8.032,2.687,7.795a14.737,14.737,0,0,0,8.5-4.315C13.078,1.334,12.347-.213,9.55.024ZM9.117,3.655A8.725,8.725,0,0,1,4.087,6.21C2.431,6.35,2,5.434,3.12,4.164A8.725,8.725,0,0,1,8.15,1.609C9.806,1.469,10.239,2.385,9.117,3.655Z" transform="translate(8.813 5.631)"/><path class="c" d="M16.042.149,16.007.08,15.966,0c.011.021.021.043.031.064l.018.042.016.04.016.043c0,.014.01.027.014.041s.009.03.013.045.008.028.011.042.007.03.011.046L16.1.407c0,.015.005.031.008.046s0,.03.007.045,0,.032.005.047,0,.03,0,.046,0,.032,0,.049,0,.031,0,.047,0,.033,0,.05,0,.032,0,.048,0,.036,0,.054,0,.031,0,.047,0,.037-.005.056,0,.031-.005.047-.005.038-.008.058,0,.032-.007.048l-.011.06c0,.016-.006.031-.009.047-.008.038-.017.076-.027.114v0q-.015.056-.032.113l-.013.039c-.008.026-.017.053-.026.079l-.017.047c-.009.025-.018.049-.027.074l-.018.045q-.019.048-.041.1l-.019.043c-.019.043-.038.085-.059.129l0,.01c-.023.047-.047.094-.072.141l-.023.042q-.028.052-.058.1l-.03.052-.038.064-.037.061-.041.065-.04.062-.044.066-.042.062-.047.067-.045.063-.05.068-.047.064-.052.068-.05.064-.055.069-.052.065-.058.07-.052.063c-.044.052-.089.1-.136.157s-.093.1-.141.156l-.044.048-.1.111-.049.051-.119.121-.034.034-.157.154-.04.038-.123.117-.054.05-.121.11-.049.044-.171.151-.016.013-.16.136-.068.057L13.193,5l-.074.06-.086.069-.075.06-.087.069-.077.059-.088.068-.078.059-.09.067-.079.058-.091.066-.08.058-.093.066-.08.057-.095.066-.076.053-.212.143-.024.016-.193.126-.065.042-.168.107-.055.035-.22.136-.06.036-.139.083-.076.045-.127.074-.079.046-.128.073-.078.044-.137.076-.07.039-.118.064-.078.042-.133.07-.064.034-.2.1L9.5,7.369l-.183.092L9.242,7.5l-.115.056L9.04,7.6l-.11.053-.088.041-.109.051-.09.041-.108.049-.091.04-.107.047-.093.04-.106.045-.094.04-.105.044-.095.039-.1.042-.091.036-.114.045-.091.035-.113.043-.092.034L7.126,8.4l-.091.033-.113.04-.088.031-.139.047-.076.025-.165.054-.049.016-.212.066-.055.017-.157.046L5.919,8.8l-.195.055-.062.017-.241.063-.037.009-.207.05-.067.016-.217.048-.024.005-.1.02-.09.018-.1.019L4.5,9.133l-.1.018-.083.015-.1.017-.08.013-.1.015-.08.012-.1.013-.075.01-.12.013-.058.006-.177.016C1.58,9.436.413,9.017,0,8.21l.027.052,0,.009.031.061.031.061,0,.01.027.052C.538,9.261,1.7,9.681,3.537,9.525l.176-.016L3.776,9.5l.115-.013.075-.01.1-.013.08-.012.1-.015.082-.013.1-.016L4.52,9.4l.1-.018.086-.016.1-.019.087-.018.1-.021H5l.018,0,.218-.049L5.3,9.235l.207-.05.037-.009.241-.063L5.849,9.1l.195-.054.039-.011.023-.007.157-.047.055-.016.212-.066.049-.016.165-.054L6.82,8.8l.139-.047.035-.012.053-.019.112-.04.092-.033.113-.041.091-.034.113-.043.091-.035.114-.045.061-.024.029-.012.1-.043.094-.038.105-.044.094-.039L8.367,8.2l.093-.04.107-.047.073-.032.018-.008.109-.049.09-.041.109-.051.088-.041.11-.053L9.251,7.8l.116-.056.074-.036.007,0,.183-.092.016-.008.2-.1.064-.034.133-.07.078-.042.118-.064.017-.009.053-.029.137-.076.078-.044.128-.073.08-.046.127-.074.076-.045.139-.083.05-.03.011-.007.22-.136.055-.034.169-.107.064-.041.193-.126.024-.016.212-.143.021-.014.055-.038.1-.066L12.319,6l.094-.066.08-.058.091-.067.079-.058.09-.067.078-.059.089-.068L13,5.5l.087-.068.075-.06.086-.069.073-.06.085-.07.048-.04.02-.017.161-.137.015-.013.171-.151.05-.044.12-.11.054-.05.123-.117.04-.038.157-.154.034-.034.119-.121.049-.051.1-.111.044-.048c.048-.052.1-.1.141-.156h0q.07-.079.136-.158L15,3.6l.039-.047.058-.07.052-.065.055-.069.05-.065.052-.068.047-.064.049-.068.045-.063.047-.067.042-.062.044-.066.04-.062.041-.065.037-.061.038-.064.016-.026.014-.026q.03-.052.058-.1l.023-.042c.025-.047.049-.094.072-.141l.005-.011q.031-.065.059-.128l.019-.043c.014-.033.027-.065.04-.1l.011-.026.007-.02.027-.074.017-.047c.009-.027.018-.053.026-.08l.012-.039c.011-.038.022-.077.032-.114v0c.01-.039.019-.077.027-.114V1.438l.007-.04c0-.02.008-.041.011-.061s0-.031.007-.047.006-.039.008-.058,0-.031.005-.047,0-.037.005-.056,0-.031,0-.047,0-.036,0-.054,0-.009,0-.013,0-.023,0-.035,0-.033,0-.05,0-.031,0-.047,0-.032,0-.049,0-.031,0-.046,0-.032-.005-.047,0-.03-.006-.045-.005-.031-.008-.046l0-.013c0-.01,0-.02-.007-.03l-.01-.046L16.2.52c0-.015-.009-.03-.013-.044s-.009-.028-.014-.041-.01-.029-.016-.043L16.14.351,16.122.309,16.115.294c-.007-.017-.016-.033-.024-.05L16.05.165Z" transform="translate(6.948 5.436)"/><path class="c" d="M20.856,0c.014.028.027.056.04.084s.016.036.023.055.015.035.021.052l.02.056L20.978.3c.006.019.011.039.017.058l.015.055c.005.02.009.04.014.06s.008.038.012.057.007.04.01.06.006.039.009.059,0,.041.007.062,0,.04.006.06,0,.042,0,.063,0,.041,0,.062,0,.043,0,.065,0,.041,0,.062,0,.047,0,.071,0,.041,0,.061,0,.049-.007.073,0,.041-.007.062-.007.05-.01.076-.006.041-.009.062-.01.052-.015.079l-.011.061c-.011.049-.022.1-.035.149v0c-.013.049-.027.1-.042.149-.005.017-.011.034-.016.051-.011.035-.022.069-.034.1l-.022.061c-.012.032-.023.064-.036.1s-.029.075-.045.113l0,.007q-.028.067-.058.135L20.7,2.47c-.021.045-.042.091-.064.137l0,.008c-.022.044-.044.088-.067.132l-.017.033c-.024.046-.049.092-.075.139l-.011.019-.064.111-.05.084-.048.08-.054.085-.052.08-.057.086-.055.081-.061.087-.058.083L19.9,3.8l-.062.083-.068.089-.065.084-.072.09-.068.085-.076.092-.078.094-.031.036c-.045.052-.09.1-.137.158h0q-.091.1-.185.2L19,4.882l-.137.146-.064.066-.156.159L18.6,5.3q-.1.1-.2.2l-.052.05L18.18,5.7l-.071.066-.158.144-.065.058q-.11.1-.224.2l-.021.018-.209.178-.089.075-.111.092-.1.078-.112.09-.1.078-.114.089-.1.078-.116.088-.1.077-.117.088-.1.076-.119.087-.1.075-.121.086-.106.074-.123.085-.1.069q-.137.094-.276.186l-.031.021-.251.165-.084.054-.221.14-.072.045-.287.177-.078.047-.182.109-.1.058-.167.1-.1.06L13.581,9l-.1.058-.179.1-.092.05-.155.084-.1.054-.175.092-.083.043-.258.133-.024.012-.236.118-.105.051-.151.074-.111.053-.147.07-.115.054-.143.066-.118.054-.141.064-.121.053-.138.061-.122.053-.138.059-.123.051-.137.057-.123.05-.137.056-.118.047-.15.059-.119.046-.148.056-.119.044-.147.054-.119.043-.147.052-.116.04-.181.062-.1.034-.215.07-.064.021-.277.087-.071.021-.206.061-.082.023-.254.071-.082.023-.314.082-.047.012-.271.066-.087.02-.284.063-.03.007-.13.027-.115.024-.13.025-.113.021-.132.023-.11.019-.133.021-.106.017-.135.02-.1.015-.139.018-.1.012-.151.017-.082.009-.23.022c-2.394.2-3.918-.345-4.457-1.4l.125.244c.539,1.054,2.063,1.6,4.457,1.4l.23-.022.082-.009.151-.017.094-.012.141-.018.1-.014.136-.02.108-.017.132-.021.111-.02L6,12.175l.113-.021.13-.025.114-.023.131-.027h.006l.024-.005.284-.063.087-.02.271-.066.047-.012.314-.082.082-.022.254-.071.052-.014.03-.009.205-.061.071-.021.277-.086.064-.021.215-.07.1-.034.181-.062.046-.016.069-.024.147-.052.119-.043.147-.054.12-.045.147-.056.119-.046.149-.059.08-.031.038-.015.137-.055.123-.05.138-.057.122-.051.138-.059.121-.052.139-.061.1-.042.024-.011.14-.064.118-.054.142-.066.116-.054.145-.069.113-.054.15-.073.1-.048.008,0,.241-.121.019-.009.259-.133.082-.043.175-.092.1-.054.155-.084.022-.012.069-.038.18-.1.1-.057.167-.1.1-.06.167-.1.1-.058.182-.109.065-.039.014-.009L14.79,8.6l.071-.045.221-.14.084-.054.251-.165.031-.02c.093-.062.185-.124.276-.187l.027-.019.072-.05.124-.086.105-.074.122-.087.1-.075.12-.088.1-.076.118-.088.1-.077.116-.089.1-.077.114-.09.1-.078.112-.091.1-.078.111-.092.063-.052.026-.022.209-.178.021-.018c.075-.065.15-.131.223-.2l.065-.058.158-.144.071-.066.161-.152.052-.05q.1-.1.2-.2l.044-.045.156-.159.064-.067.137-.146.058-.062c.062-.068.124-.136.184-.2L19.5,4.7l.031-.036.028-.033.051-.061.076-.092.068-.085.072-.09.065-.084.068-.089.062-.083.064-.088.058-.082.061-.087.055-.082.057-.086.052-.081.054-.085.048-.08.05-.084.02-.034.043-.077.011-.019c.026-.047.051-.093.075-.139l.017-.033c.023-.044.046-.088.067-.132l0-.008c.022-.046.044-.091.064-.136l.015-.032c.02-.045.04-.09.058-.135l0-.007.036-.088.01-.025c.012-.032.024-.065.036-.1L21,2.269c.012-.035.023-.07.034-.1.005-.017.011-.034.016-.051.015-.05.029-.1.042-.149v0c.013-.05.024-.1.035-.149l0-.008c0-.018.006-.035.01-.053s.011-.053.015-.079.006-.041.009-.062.008-.051.011-.076,0-.041.007-.061.005-.049.007-.073,0-.041,0-.061,0-.048,0-.071c0-.005,0-.011,0-.016s0-.03,0-.046,0-.043,0-.065,0-.041,0-.061,0-.042,0-.063,0-.04-.006-.06,0-.042-.007-.062S21.173.855,21.17.836s-.006-.04-.01-.06,0-.012,0-.018-.006-.026-.009-.039-.009-.04-.014-.06S21.125.622,21.12.6,21.109.565,21.1.546,21.091.51,21.085.492s-.013-.038-.02-.056L21.044.383,21.02.329,21.012.309C21,.288,20.992.266,20.981.245h0Z" transform="translate(4.503 4.178)"/><path class="a" d="M16.617.042C11.75.454,5.131,3.816,1.833,7.55s-2.025,6.427,2.842,6.014S16.162,9.79,19.46,6.056,21.485-.371,16.617.042Zm.776,6.189A19.632,19.632,0,0,1,6.076,11.979c-3.726.316-4.7-1.746-2.176-4.6A19.632,19.632,0,0,1,15.218,1.627C18.944,1.311,19.918,3.372,17.393,6.231Z" transform="translate(4.285 2.738)"/><path class="c" d="M24.885.1,24.877.08,24.836,0c.017.033.032.067.048.1l.028.065c.009.021.017.041.025.062s.016.045.024.067.015.043.021.064S25,.405,25,.428s.012.044.018.066.011.047.016.071.01.045.014.067.008.048.012.072.007.046.01.07.006.049.008.074.005.047.007.071,0,.05,0,.075,0,.049,0,.073,0,.051,0,.077,0,.049,0,.074,0,.056,0,.084,0,.048,0,.073-.005.058-.008.087,0,.049-.008.073-.008.06-.013.09-.007.049-.011.073-.012.063-.018.094-.009.048-.014.072q-.019.088-.042.178v0q-.023.088-.05.177l-.019.061c-.013.041-.026.082-.041.124-.008.024-.017.049-.026.073s-.028.077-.043.115-.034.089-.053.135l0,.009c-.022.053-.045.106-.069.16l-.017.039c-.025.054-.05.108-.077.162l0,.01q-.038.078-.079.157l-.02.039q-.043.082-.089.166l-.013.023c-.025.044-.05.088-.076.132l-.059.1-.058.1-.064.1-.062.1-.068.1-.066.1-.073.1-.069.1L23.7,4.53l-.074.1-.081.107-.077.1-.086.108-.081.1-.09.109-.093.112-.036.043c-.053.062-.107.125-.163.188-.072.081-.146.162-.22.243l-.069.074-.164.173-.076.079-.185.189-.053.054q-.12.12-.244.239l-.062.059c-.063.061-.127.121-.192.181l-.084.078-.188.171-.077.069c-.088.078-.176.157-.266.234l-.024.021q-.124.106-.25.212l-.106.089-.132.109-.115.093-.134.108-.117.093-.136.106-.119.092-.138.105-.121.092-.14.1-.123.091-.142.1-.124.09-.145.1-.125.088-.148.1-.119.082q-.164.112-.329.222l-.037.024-.3.2-.1.065-.263.167-.085.053-.342.211-.093.056-.217.13-.117.069-.2.116-.124.071-.2.113-.122.069-.214.118-.108.06-.185.1-.12.064-.209.11-.1.051-.308.158-.024.012-.285.143-.124.061-.18.088-.133.063-.174.083-.137.064-.17.079-.14.064-.168.076-.143.063-.165.073-.145.063-.164.07-.146.061-.163.068-.147.06-.163.066-.141.056-.177.07-.142.054-.175.067-.142.053-.175.064-.142.051-.175.062-.137.048-.216.073-.119.04-.256.084-.076.025-.33.1-.085.025-.245.073-.1.028-.3.085-.1.027q-.187.051-.374.1l-.057.014-.322.078-.1.024-.338.075-.036.008-.157.032-.134.028-.159.03-.131.025-.159.028-.129.023-.158.025-.127.02-.159.023-.123.018-.168.022-.112.014-.187.021-.091.01-.274.026C2.457,14.679.642,14.026,0,12.771l.041.08.008.016.035.069.041.08c.642,1.255,2.457,1.907,5.307,1.666l.274-.026.094-.01.183-.02L6.1,14.61l.163-.021.126-.018.157-.023.129-.021.156-.025.132-.023.156-.027.135-.026.155-.03.137-.028.155-.032.008,0,.029-.006.338-.075.1-.024.321-.078.057-.014q.187-.047.375-.1l.1-.027.3-.085.061-.017.036-.011.245-.073.084-.025.33-.1.076-.024.256-.084.119-.04.215-.073.055-.019.083-.029.174-.062.143-.051.175-.064.142-.053.176-.067.141-.054.178-.07.1-.037.046-.019.163-.066.146-.06.164-.068.146-.061.165-.071.144-.062.166-.073.115-.05.029-.013.168-.076.14-.064.17-.079.138-.064.173-.082L14.321,12l.18-.088.115-.056.01-.005.281-.141.029-.014.308-.158.1-.051.209-.11.119-.064.185-.1.026-.014.081-.045.214-.119.122-.069.2-.113.124-.071.2-.116.118-.069.217-.13.077-.046.016-.01.342-.211.085-.054.263-.167.1-.065.3-.2.037-.024q.166-.11.329-.222l.033-.022.086-.06.148-.1.125-.088.145-.1L19.363,9l.143-.1.123-.091.14-.1.121-.091.138-.106.119-.092.136-.106.117-.093.134-.108.115-.093.132-.109.075-.062.031-.026q.126-.106.249-.212l.025-.021q.134-.117.266-.234l.077-.07.187-.171.085-.078.192-.181.062-.059q.123-.119.244-.239l.052-.053q.094-.095.186-.189l.076-.079.164-.173.069-.074q.112-.121.22-.243h0c.056-.063.11-.125.163-.188l.036-.042.034-.039.06-.073.09-.109.081-.1.086-.108.077-.1.081-.106.074-.1.077-.1.07-.1.072-.1.066-.1.068-.1.062-.1.064-.1.058-.095.06-.1.025-.041.052-.091.013-.023q.046-.083.089-.166l.02-.039q.041-.079.079-.157l.005-.01c.026-.054.052-.109.076-.163l.017-.039c.024-.054.047-.107.069-.16l0-.009c.014-.035.029-.07.042-.1l.011-.03c.015-.039.029-.077.042-.115s.018-.049.026-.073c.014-.042.027-.083.04-.124.006-.02.013-.041.019-.061.018-.06.035-.119.05-.178v0c.015-.06.029-.119.042-.178,0,0,0-.006,0-.009,0-.021.008-.042.012-.063s.012-.063.018-.094.007-.049.011-.074.009-.06.013-.09,0-.049.007-.073.006-.058.008-.087,0-.048,0-.073,0-.057,0-.084c0-.007,0-.013,0-.02s0-.036,0-.054,0-.052,0-.077,0-.049,0-.073,0-.05,0-.076,0-.048-.007-.071-.005-.049-.008-.074-.007-.047-.01-.07S25.18.9,25.175.877l0-.021c0-.016-.007-.031-.011-.046s-.01-.048-.016-.071-.012-.044-.018-.066S25.114.626,25.107.6s-.014-.043-.021-.064S25.07.494,25.062.472L25.037.41c-.009-.022-.018-.044-.028-.065S25,.329,25,.322C24.987.3,24.974.27,24.961.244L24.92.164Z" transform="translate(2.513 3.155)"/><path class="a" d="M23.305.059C16.479.637,7.2,5.351,2.571,10.588S-.269,19.6,6.557,19.022,22.667,13.73,27.292,8.493,30.131-.52,23.305.059Zm2.122,8.593C21.5,13.1,13.617,17.1,7.82,17.592S.509,14.877,4.436,10.43s11.81-8.45,17.606-8.941S29.354,4.2,25.427,8.651Z"/><path class="d" d="M29.3.118c.011.025.022.051.033.077s.02.049.03.073.019.053.028.079.017.05.025.075.016.054.024.081.015.051.021.077.013.056.019.084.012.053.017.079.01.056.014.085.009.054.012.082.007.058.01.087.006.056.008.084,0,.059.005.089,0,.057,0,.086,0,.061,0,.091,0,.058,0,.087,0,.066,0,.1,0,.057,0,.086-.006.068-.01.1-.005.057-.009.086-.01.071-.015.106S29.5,1.973,29.5,2s-.014.074-.021.111-.011.06-.017.09c0,.008,0,.016-.005.023-.013.06-.027.12-.043.18h0c-.016.061-.033.122-.051.184l-.007.025c-.018.059-.037.118-.056.178l-.011.032c-.02.059-.042.119-.064.179l-.012.03c-.023.061-.047.122-.073.184l0,.01q-.039.093-.082.189l-.02.045q-.043.1-.09.191l-.006.012c-.03.061-.061.123-.093.185l-.024.046q-.051.1-.105.195L28.7,4.12q-.044.077-.09.155l-.07.118-.068.111-.075.12-.073.113-.08.121-.077.114-.086.123L28,5.212l-.091.124-.087.117-.1.125-.091.118-.1.127-.1.119-.107.129-.11.132-.043.05c-.063.073-.126.147-.192.221h0q-.127.144-.259.287l-.081.087-.193.2-.089.093q-.108.112-.219.223l-.062.063q-.141.141-.287.282l-.073.069-.226.214-.1.092-.221.2-.091.082q-.155.138-.313.276l-.028.024q-.145.125-.294.25l-.126.1-.155.128-.135.11-.157.126-.138.11-.159.125-.141.109-.162.124-.143.108-.165.123-.145.107-.168.122-.146.106-.171.121-.147.1-.174.121-.139.1q-.192.132-.388.262l-.044.029-.353.231-.118.076-.31.2-.1.063q-.2.125-.4.249l-.11.066-.255.153-.139.082-.234.137-.146.084-.234.133-.143.081-.251.14-.128.07-.217.117-.142.077-.245.129L17.8,13.3l-.363.186-.031.015-.334.167-.149.073-.211.1-.158.075-.2.1-.162.076-.2.093-.165.075-.2.09-.168.074-.2.086-.17.073-.194.083-.172.072-.193.08-.173.07-.192.078-.166.066-.209.082-.167.064-.207.079-.167.062-.206.076-.167.06-.206.073-.161.056-.254.086-.14.047-.3.1-.089.029-.389.121-.1.03-.288.085-.115.033-.356.1-.115.031c-.147.04-.294.078-.441.115l-.067.017-.379.092-.122.028q-.2.046-.4.089l-.043.009-.182.038-.161.033-.184.035-.157.03-.185.033-.154.027-.186.03-.15.024-.186.027-.146.021-.2.025-.134.017-.215.024-.112.012q-.162.017-.323.03C2.893,17.287.755,16.518,0,15.04l3.028,5.921c.756,1.478,2.893,2.246,6.251,1.962l.323-.03.109-.012.217-.024.132-.017.2-.025.146-.021.187-.027.15-.024.186-.03.153-.027.186-.033.156-.03.185-.035.16-.033.184-.038.009,0,.033-.007q.2-.043.4-.089l.122-.028q.189-.045.379-.092l.067-.016q.22-.056.441-.116l.115-.031.357-.1.072-.02L13.985,22l.288-.086.1-.03.389-.121.09-.029.3-.1.14-.047.254-.086.065-.022.1-.034.206-.073.168-.061.206-.076.168-.062.206-.078.167-.064.209-.082.112-.044.054-.022.193-.078.172-.07.194-.081.171-.072.194-.083.17-.073.2-.086.135-.059.033-.015.2-.089.166-.075.2-.093.163-.076.2-.1.156-.075.212-.1.135-.066.012-.006.333-.167.031-.015.363-.187.115-.06.246-.13.141-.076.218-.118.031-.017.1-.054.252-.14.144-.081.234-.133.146-.084.234-.137.138-.081.256-.153.09-.054.019-.012q.2-.123.4-.249l.1-.063.309-.2.119-.076q.177-.115.352-.231l.044-.029q.2-.13.388-.262l.039-.026.1-.07.175-.121.147-.1.171-.122.146-.105.168-.122L26,16.008l.165-.123.143-.108.162-.124.14-.109.16-.125.138-.109.158-.127.135-.11.156-.128.089-.073.037-.031c.1-.083.2-.166.293-.25l.029-.025c.106-.091.21-.184.314-.276l.091-.082.221-.2.1-.092.226-.214.073-.069q.146-.14.287-.281l.062-.063q.111-.111.219-.223l.089-.093.193-.2.081-.087c.088-.1.174-.191.259-.287h0c.065-.074.129-.148.192-.221l.043-.05.039-.046.071-.086.106-.128.1-.119.1-.127.091-.118.1-.125.087-.117.09-.124.082-.116.085-.122.077-.114.08-.121.073-.113.075-.119.068-.112.07-.118.028-.048.061-.108.015-.027c.037-.065.072-.13.105-.195l.024-.046c.032-.062.063-.124.094-.185l.006-.012q.047-.1.09-.191l.02-.045q.043-.095.082-.189l0-.01q.026-.062.05-.123l.023-.061.012-.03q.034-.09.064-.179l.011-.032c.02-.06.039-.119.057-.178l.007-.025c.018-.062.036-.123.051-.184h0c.016-.061.03-.121.043-.18l.005-.023,0-.016c.005-.025.009-.049.014-.074s.015-.074.021-.111.009-.057.013-.086.011-.071.015-.107.006-.057.009-.086.007-.069.01-.1,0-.057,0-.085,0-.067,0-.1c0-.008,0-.016,0-.023s0-.043,0-.064,0-.061,0-.091,0-.057,0-.086,0-.059-.005-.089-.005-.056-.008-.084-.006-.058-.009-.087-.008-.055-.013-.082-.009-.057-.014-.085l0-.025c0-.018-.008-.036-.012-.055S32.5,6.53,32.494,6.5s-.014-.052-.021-.077-.015-.054-.024-.081-.016-.05-.025-.075-.018-.053-.028-.079-.02-.049-.029-.073-.022-.051-.033-.077l-.011-.027c-.014-.031-.029-.061-.044-.091L29.249,0C29.269.039,29.287.078,29.3.118Z" transform="translate(0.307 2.02)"/></g></svg>