<svg xmlns="http://www.w3.org/2000/svg" xmlns:xlink="http://www.w3.org/1999/xlink" width="59.854" height="60.554" viewBox="0 0 59.854 60.554"><defs><style>.a{fill:#e6e6e6;}.b{fill:#a8a8a8;}.c{fill:#c7c7c7;}.d{fill:url(#a);}</style><radialGradient id="a" cx="0.444" cy="0.653" r="0.989" gradientTransform="matrix(0.709, 0.716, -0.552, 0.531, -1.659, -1.977)" gradientUnits="objectBoundingBox"><stop offset="0" stop-color="#d3d3d3"/><stop offset="0.286" stop-color="#cfcfcf"/><stop offset="0.504" stop-color="#c6c6c6"/><stop offset="0.701" stop-color="#b5b5b5"/><stop offset="0.884" stop-color="#9e9e9e"/><stop offset="1" stop-color="#8c8c8c"/></radialGradient></defs><path class="a" d="M2365.667,366.441a17.651,17.651,0,0,0-7.913-8.224c-3.12-1.42-4.637-.042-3.387,3.079a17.647,17.647,0,0,0,7.912,8.223C2365.4,370.94,2366.917,369.562,2365.667,366.441Zm-4.657-.091a7.748,7.748,0,0,1-3.474-3.61c-.548-1.37.117-1.976,1.488-1.352A7.749,7.749,0,0,1,2362.5,365C2363.046,366.368,2362.38,366.973,2361.01,366.35Z" transform="translate(-2325.656 -337.882)"/><path class="a" d="M2353,349.526c-2.811-7.023-10.782-15.307-17.8-18.5s-10.434-.094-7.623,6.928,10.782,15.307,17.8,18.5S2355.809,356.548,2353,349.526Zm-8.891,3.758c-5.271-2.4-11.255-8.618-13.365-13.89s.451-7.6,5.722-5.2,11.254,8.618,13.365,13.89S2349.377,355.683,2344.106,353.284Z" transform="translate(-2305.924 -317.752)"/><path class="a" d="M2340.329,332.61c-4.373-10.924-16.772-23.81-27.694-28.782s-16.23-.147-11.858,10.778,16.772,23.81,27.694,28.782S2344.7,343.534,2340.329,332.61Zm-13.126,7.608c-9.171-4.175-19.583-15-23.255-24.169s.786-13.225,9.957-9.051,19.583,15,23.255,24.169S2336.374,344.393,2327.2,340.218Z" transform="translate(-2286.192 -297.622)"/><path class="b" d="M2372.112,374.208l.025-.025.13-.126c.257-.249.281-.738.011-1.411q-.052-.129-.115-.26c-.013-.029-.03-.058-.045-.087-.03-.059-.059-.118-.092-.178v0c-.043-.078-.09-.156-.138-.235l-.041-.065-.049-.077c-.031-.048-.064-.1-.1-.145l-.005-.008q-.055-.079-.113-.158c-.012-.017-.026-.033-.038-.05-.038-.051-.077-.1-.117-.152-.021-.026-.04-.053-.061-.08l-.035-.041c-.038-.046-.076-.092-.115-.137l-.072-.086-.034-.037c-.04-.046-.081-.09-.123-.135l-.079-.087-.03-.031-.141-.144c-.028-.028-.054-.056-.082-.083l-.034-.032-.039-.038c-.071-.068-.143-.135-.216-.2l-.005,0-.018-.016c-.069-.061-.139-.121-.209-.179l-.06-.049-.055-.045-.081-.062-.143-.109-.125-.089c-.047-.034-.1-.067-.144-.1l-.053-.036c-.044-.029-.088-.056-.132-.083l-.027-.017c-.076-.047-.153-.09-.229-.131l-.054-.029c-.077-.041-.154-.08-.23-.114l-.083-.037-.023-.009-.065-.027-.061-.024-.063-.023-.058-.02-.061-.019-.056-.017-.059-.015-.038-.01-.013,0c-.042-.009-.084-.018-.125-.024h0c-.039-.006-.076-.01-.113-.013h-.04l-.06,0h-.04l-.056,0h-.022l-.017,0-.044.006-.039.007-.041.009-.023.005-.013,0-.036.012-.035.013-.033.016-.021.01-.01.006-.032.019-.029.019-.028.022-.018.014-.016.015-.4.386c.011-.01.022-.02.034-.029l.028-.023.029-.019.031-.019.031-.016.034-.016.034-.013.036-.013.037-.01.042-.009.039-.007.045-.006.039,0,.056,0h.041l.06,0,.039,0c.037,0,.075.007.114.013h0c.041.006.082.015.125.024l.051.012.058.015.056.016.061.019.058.02.063.023.061.024.065.026.105.046c.076.035.154.073.23.114l.054.029c.076.041.152.085.229.131l.027.017c.062.038.124.078.185.12s.1.065.144.1.083.058.124.089.1.072.144.109.091.07.136.107l.059.049c.07.058.14.118.209.179l.018.016c.075.067.148.135.221.205l.039.037c.039.038.077.077.116.116s.094.095.141.144l.11.118c.041.045.083.089.122.135s.071.082.106.123.077.091.114.137.064.081.1.121.078.1.116.152c.052.069.1.138.151.208l0,.008c.051.074.1.148.146.222l.041.065c.049.079.1.158.139.237.032.059.062.117.091.176.015.029.032.059.046.089.042.088.081.174.115.26.27.674.246,1.163-.011,1.411l.13-.126Z" transform="translate(-2335.038 -345.917)"/><path class="b" d="M2367.267,365.054c-.039-.1-.081-.2-.125-.3l-.045-.1c-.03-.066-.06-.133-.092-.2-.019-.04-.04-.079-.059-.119-.03-.06-.059-.12-.091-.181-.023-.044-.048-.089-.071-.133s-.059-.112-.09-.169l0,0-.01-.017c-.067-.121-.138-.242-.21-.363l-.064-.106q-.1-.161-.2-.322l-.032-.051-.012-.018q-.108-.165-.222-.33l-.035-.05q-.1-.14-.2-.28l-.02-.028-.076-.1c-.045-.06-.089-.12-.135-.18l-.1-.135-.137-.174-.038-.049-.076-.092-.128-.157-.12-.142-.132-.154-.049-.058-.073-.083-.136-.153-.126-.139-.139-.151-.059-.064-.067-.07-.152-.158-.127-.13-.156-.155-.075-.075-.05-.047-.2-.189-.108-.1q-.12-.111-.241-.22l-.06-.055-.009-.007q-.175-.155-.351-.3l-.1-.081q-.135-.113-.272-.223l-.063-.052-.05-.038-.163-.127-.139-.107-.166-.123-.138-.1c-.056-.041-.113-.08-.169-.119l-.136-.1-.172-.116-.11-.074-.02-.013q-.174-.113-.349-.219l-.077-.046q-.137-.082-.273-.159l-.114-.063q-.124-.068-.249-.132L2359.7,357c-.115-.058-.23-.114-.344-.166l-.188-.083-.051-.021-.149-.061-.138-.054-.144-.052-.133-.046-.139-.043-.127-.038-.133-.035-.088-.023-.047-.01-.051-.011c-.07-.015-.14-.028-.208-.039h-.007c-.07-.011-.137-.019-.2-.026l-.048,0-.047,0c-.047,0-.094-.006-.14-.008h-.026c-.065,0-.128,0-.19,0h0l-.11.007-.04.006-.1.013-.088.015-.094.022-.053.012-.03.01-.083.028-.079.03c-.026.011-.051.023-.077.036l-.048.022-.024.014c-.024.014-.048.029-.072.044s-.044.028-.065.044-.044.034-.065.051-.028.021-.041.033l-.037.034-.4.386c.024-.024.052-.045.078-.067s.042-.035.064-.051.043-.029.065-.043.046-.03.071-.044.047-.025.072-.037.05-.024.076-.036.052-.02.079-.03l.083-.028.083-.022c.031-.008.063-.015.095-.022l.088-.015c.033-.005.066-.01.1-.014.05-.005.1-.01.151-.013h0c.062,0,.126,0,.19,0h.026c.061,0,.123.006.187.012l.047,0c.066.007.134.015.2.026h.007c.068.011.137.024.208.039l.051.011c.044.01.089.021.134.033l.133.034.127.038.139.043.133.046.144.052.138.054.149.06c.079.033.158.067.24.1.114.052.229.108.344.166l.105.055c.083.043.166.087.249.132l.114.063q.136.077.274.159l.077.046q.174.106.348.219l.13.086c.058.038.115.076.173.116l.136.1.169.119.138.1.165.123.139.107.164.127.112.09q.136.11.271.223l.1.081q.177.149.351.3l.068.062c.081.073.162.146.241.221l.108.1q.1.094.2.19l.125.122.156.155.127.13.152.158.126.134.14.151.125.138.136.153.123.14.132.155.119.142.128.156.114.142c.046.058.091.116.136.174l.1.135.135.18.1.129q.1.14.2.281l.035.049q.115.165.223.331l.044.069q.1.162.2.323c.022.035.043.07.064.106.073.122.144.243.211.364l.012.021c.032.058.062.115.093.173s.047.086.069.129c.031.06.06.119.089.178.02.041.042.081.061.122.033.068.063.136.094.2.015.031.03.063.044.095q.066.148.124.3c.615,1.535.56,2.648-.025,3.215l.4-.386C2367.827,367.7,2367.881,366.589,2367.267,365.054Z" transform="translate(-2326.857 -336.882)"/><path class="b" d="M2360.769,361.449l.1-.1.1-.1.015-.014.085-.082c.989-.957,1.081-2.837.043-5.43q-.1-.248-.21-.5c-.025-.056-.052-.113-.078-.169-.051-.111-.1-.222-.154-.334-.033-.07-.069-.139-.1-.209-.049-.1-.1-.2-.149-.3-.038-.074-.08-.149-.12-.223-.051-.1-.1-.191-.154-.287l0-.007c-.083-.148-.168-.3-.255-.446l-.074-.125q-.108-.182-.221-.364l-.065-.105c-.086-.137-.173-.274-.262-.412l-.03-.045-.045-.068q-.146-.223-.3-.445l-.019-.028c-.1-.152-.213-.3-.322-.455l-.059-.082-.051-.071-.129-.173c-.075-.1-.15-.2-.226-.3-.058-.077-.118-.153-.177-.229-.076-.1-.152-.2-.23-.294l-.065-.083c-.042-.052-.086-.1-.128-.156-.072-.089-.144-.177-.217-.265l-.2-.24c-.074-.087-.148-.174-.223-.261l-.083-.1-.125-.14q-.114-.13-.229-.259l-.213-.234c-.078-.085-.156-.17-.235-.254l-.1-.109-.114-.118q-.127-.134-.256-.266l-.215-.22c-.087-.088-.174-.175-.262-.262-.042-.042-.084-.085-.127-.127l-.147-.143-.071-.069q-.2-.2-.411-.388l-.08-.073c-.133-.123-.268-.245-.4-.366l-.021-.018-.059-.052q-.189-.167-.379-.331l-.112-.1q-.217-.185-.436-.365l-.029-.024c-.1-.082-.2-.163-.3-.242l-.083-.065c-.092-.073-.184-.144-.276-.215l-.235-.181-.279-.208c-.079-.057-.156-.115-.234-.171-.095-.068-.189-.135-.284-.2l-.231-.161c-.1-.067-.194-.131-.291-.2-.062-.041-.124-.084-.186-.124l-.052-.033-.088-.056q-.2-.126-.392-.246l-.079-.048c-.146-.089-.293-.176-.439-.26l-.1-.056c-.135-.077-.27-.152-.406-.224l-.051-.028c-.146-.078-.292-.153-.438-.226l-.1-.051c-.148-.073-.295-.143-.442-.21-.1-.045-.193-.087-.289-.128l-.029-.013-.085-.035-.128-.053-.117-.047-.125-.049-.116-.044-.122-.045-.115-.04-.12-.042-.112-.037-.117-.038-.109-.034-.115-.034-.107-.03-.114-.031-.1-.027-.11-.027-.045-.011-.043-.009-.177-.038-.072-.014c-.079-.015-.159-.03-.236-.042l-.017,0c-.072-.011-.143-.021-.213-.029l-.07-.008-.16-.016-.042,0-.031,0-.12-.007-.075,0-.128,0h-.062c-.061,0-.121,0-.18,0h0c-.06,0-.12.007-.178.012h-.01l-.062.007-.093.01-.072.011-.088.014-.071.014-.083.017-.069.017-.08.021-.019,0-.05.016-.072.022-.068.024-.069.026-.065.027-.066.029-.062.03-.063.032-.019.009-.04.023-.062.035-.056.035-.059.038-.054.038-.056.041-.051.041-.053.045-.019.016-.061.057h0l-.4.386c.026-.025.053-.049.08-.073l.053-.045.051-.041.056-.042.054-.038.059-.039.056-.035.062-.035.059-.033.063-.032.063-.03.066-.029.065-.027.069-.025.067-.024.072-.022.07-.021.08-.02.069-.017.083-.017.07-.014.088-.014.071-.011.093-.01.071-.008c.058-.005.118-.009.178-.012h0c.059,0,.12,0,.181,0h.062l.128,0,.075,0,.12.007.073.006.16.016.069.008c.07.009.141.018.212.03l.018,0c.078.013.156.027.237.042l.071.014.177.038.088.021.111.027.1.027.113.031.108.03.115.034.11.034.117.038.112.037.121.042.113.04.123.046.116.044.125.049.118.047.127.053.114.048q.144.061.289.127c.147.067.295.138.442.21l.1.051c.146.073.292.148.438.226l.052.028q.2.109.4.224l.1.056q.22.126.439.26l.079.049q.2.12.391.246l.088.056.238.158c.1.065.194.129.291.2l.23.161c.1.066.19.133.285.2.078.056.156.114.233.171l.281.208.235.18c.092.071.184.143.276.215.128.1.255.2.383.307l.029.024q.219.179.436.365l.112.1q.19.164.379.331l.059.052q.213.19.423.384l.08.074q.207.192.411.388l.072.069c.092.089.183.179.274.269s.176.174.263.262c.072.073.144.146.215.219q.129.133.257.267l.214.227c.078.084.157.169.235.254s.143.156.213.234l.23.258.207.237.223.261q.1.12.2.24c.073.088.145.176.217.265l.193.239c.078.1.154.2.23.294.059.076.118.152.176.228.077.1.152.2.227.3.06.081.121.162.18.243l.06.082c.109.151.217.3.321.455l.019.028q.153.222.3.444l.045.069q.15.228.293.456l.064.1q.113.182.22.364l.074.125q.133.227.259.453c.053.1.1.193.155.289.039.074.08.148.118.221.052.1.1.2.151.3.034.068.07.137.1.206.055.114.1.227.156.34.025.055.052.109.076.164q.11.251.209.5c1.038,2.593.946,4.473-.042,5.43l.084-.082Z" transform="translate(-2316.808 -325.785)"/><path class="b" d="M2356.1,348.139q-.067-.165-.136-.331l-.047-.109c-.031-.075-.063-.149-.1-.224-.02-.046-.042-.093-.063-.139-.029-.065-.058-.13-.088-.195l-.07-.148c-.03-.063-.058-.125-.088-.188l-.072-.148c-.031-.063-.061-.126-.093-.189l-.077-.152c-.031-.062-.062-.124-.094-.186l-.083-.156c-.032-.061-.064-.122-.1-.183l-.086-.158c-.033-.061-.065-.121-.1-.182l-.005-.009-.019-.033q-.109-.2-.222-.392l-.069-.119q-.108-.185-.219-.371l-.039-.066q-.13-.214-.264-.428l-.07-.111q-.108-.172-.22-.344l-.044-.07-.027-.041-.183-.276-.065-.1q-.125-.186-.253-.372l-.059-.085q-.1-.144-.2-.287l-.094-.132-.174-.241-.044-.061-.068-.091-.143-.194-.118-.158-.146-.193-.12-.157-.15-.193-.121-.156-.154-.194-.083-.1-.041-.05-.144-.178-.13-.159-.147-.178-.132-.158-.15-.178-.132-.156-.155-.179-.105-.122-.027-.03-.159-.181-.132-.149-.163-.181-.132-.147-.167-.183-.132-.143-.177-.19-.114-.122-.01-.011-.285-.3-.025-.026-.314-.323-.1-.1c-.071-.072-.142-.144-.214-.216l-.127-.126-.193-.19-.028-.028-.088-.085-.229-.221-.131-.125-.217-.2-.135-.127-.219-.2-.131-.121-.243-.219-.087-.079-.019-.017c-.13-.116-.26-.231-.392-.345l-.1-.085c-.1-.088-.2-.176-.308-.263l-.118-.1q-.178-.15-.358-.3l-.044-.036q-.2-.164-.4-.325l-.04-.032-.106-.083-.185-.146-.156-.122-.184-.142-.158-.12-.183-.138-.159-.118-.183-.135-.159-.116-.184-.131-.16-.113-.184-.129-.16-.11-.185-.126-.158-.107-.187-.124-.106-.07-.044-.028q-.18-.117-.36-.231l-.033-.021c-.131-.082-.262-.163-.393-.242l-.115-.069-.284-.169-.129-.075-.3-.17-.1-.055q-.195-.109-.39-.212l-.086-.045q-.153-.081-.306-.159l-.127-.064-.278-.137-.119-.058c-.129-.062-.258-.122-.386-.181s-.258-.115-.385-.17l-.038-.017-.114-.047-.169-.071-.157-.063-.166-.065-.154-.058-.163-.06-.151-.054-.161-.056-.148-.049-.157-.051-.146-.045-.154-.046-.143-.04-.15-.041-.14-.036-.148-.036-.06-.015-.059-.013-.235-.05-.1-.019c-.106-.02-.211-.039-.315-.056l-.022,0q-.144-.022-.284-.039l-.093-.011-.213-.021-.056-.005-.042,0-.16-.009-.1,0-.17,0h-.083c-.081,0-.162,0-.24.006h0q-.12.005-.237.016h-.013l-.082.009-.124.014-.1.014-.117.018-.094.018-.111.023-.092.023-.106.027-.025.006-.068.021-.1.03-.089.032-.093.034-.085.035-.089.038-.082.039-.085.042-.025.013-.053.031-.083.047-.075.047-.079.051-.072.051-.074.055-.068.055-.071.06-.025.021c-.028.025-.055.05-.082.076l-.4.386c.035-.033.071-.065.107-.1l.07-.059.068-.055.074-.055.072-.051.078-.051.075-.047.082-.047.079-.043.085-.042.083-.04.088-.038.086-.035.092-.034.09-.031.1-.03.093-.028.106-.027.092-.023.111-.023.094-.018.116-.018.1-.014.123-.014.1-.01c.078-.007.157-.012.237-.016h.005c.079,0,.159-.005.24-.006h.083l.169,0,.1,0,.16.009.1.008q.1.009.212.021l.094.011c.093.011.187.024.283.039l.023,0c.1.016.209.035.315.056l.1.019c.077.016.156.032.235.05l.119.027.147.036.14.036.151.041.143.04.154.046.146.045.157.051.148.049.16.056.151.054.163.061.154.058.167.066.156.063.17.071.152.064q.191.082.385.17t.386.181l.119.058.278.137.127.064.306.159.086.046q.194.1.389.212l.1.055.3.17.129.075.284.169.115.069q.2.119.393.242l.036.023q.179.113.358.229l.151.1.186.122.159.107.184.125.16.11.184.128.16.113.183.131.16.116.183.134.159.118.183.137.159.121.182.141.158.122.183.145.147.117q.2.161.4.325l.044.036q.18.148.358.3l.119.1q.154.13.307.263l.1.086q.2.171.392.345l.107.1.243.219.131.121.219.2.136.127.216.2.132.125.228.22.116.113.193.191.127.126.214.216.1.1q.158.161.314.323l.025.026.286.3.124.132.177.19.131.143.167.183.132.147.163.182.132.149.159.181.132.153.155.18.132.155.15.178.132.158.147.178.13.16.144.178.123.154.154.194.121.156.15.193.12.157.146.193.118.158.144.194.112.152q.088.121.173.241l.094.132q.1.144.2.287l.059.084q.129.186.254.372l.064.1q.092.138.182.276l.072.111q.112.172.22.344l.07.111c.089.143.178.286.264.428l.04.065q.111.185.219.37l.07.12q.112.2.222.391l.024.043.1.178.089.162.1.181c.028.053.056.105.083.158s.063.124.095.186l.077.152c.032.064.063.127.094.191l.072.146c.031.064.06.127.09.19.023.048.046.1.068.146l.09.2.061.135c.033.076.065.152.1.228l.045.105q.07.166.136.331c1.383,3.453,1.26,5.959-.057,7.233l.4-.386C2357.358,354.1,2357.481,351.593,2356.1,348.139Z" transform="translate(-2308.626 -316.752)"/><path class="b" d="M2349.668,348.456l.1-.1.015-.014.085-.082c1.72-1.665,1.881-4.937.075-9.448q-.086-.216-.178-.432c-.021-.051-.044-.1-.066-.153-.04-.094-.08-.188-.121-.282-.026-.058-.052-.116-.079-.174-.039-.087-.078-.175-.118-.263l-.088-.187c-.039-.084-.078-.168-.119-.252l-.1-.2c-.04-.081-.079-.161-.119-.242l-.1-.2c-.04-.08-.08-.159-.122-.239s-.072-.137-.108-.206-.083-.158-.125-.237-.075-.138-.113-.207-.085-.158-.129-.237l-.007-.012-.024-.043q-.142-.256-.291-.512l-.091-.156c-.094-.161-.189-.322-.286-.484l-.052-.086q-.169-.28-.344-.56l-.092-.145q-.142-.225-.287-.449l-.059-.092-.035-.053c-.079-.12-.159-.24-.239-.361l-.083-.126q-.163-.243-.331-.485l-.079-.112q-.13-.187-.262-.374l-.124-.173-.226-.313-.058-.08-.088-.119-.188-.254-.154-.205c-.063-.084-.127-.168-.191-.252l-.157-.205-.2-.252-.159-.2-.2-.254-.108-.136-.052-.065-.188-.232-.169-.208-.192-.232-.172-.206-.2-.233-.172-.2-.2-.233-.139-.161-.035-.04-.206-.234-.174-.2-.212-.236-.173-.192-.219-.239-.17-.186-.228-.244-.152-.163-.014-.014q-.182-.194-.367-.386l-.038-.04q-.2-.212-.409-.421l-.134-.135-.28-.282-.165-.163-.254-.251-.036-.036-.114-.11-.3-.289-.171-.163-.283-.267-.177-.166-.287-.265-.171-.157-.318-.287-.113-.1-.025-.022q-.255-.228-.512-.451l-.13-.112q-.2-.173-.4-.344l-.155-.131q-.233-.2-.467-.389l-.059-.048q-.261-.215-.524-.424l-.052-.042-.139-.11-.24-.189-.205-.16-.24-.184-.206-.157-.24-.181-.207-.154-.24-.176-.208-.151-.24-.172-.208-.148-.24-.168-.209-.144-.241-.164-.208-.14-.243-.16-.139-.092-.058-.037q-.234-.152-.468-.3l-.046-.03q-.256-.161-.512-.316l-.151-.091-.371-.22-.169-.1q-.195-.113-.389-.221l-.127-.072q-.255-.142-.509-.277l-.113-.059q-.2-.106-.4-.208l-.166-.084-.362-.18-.155-.075c-.169-.081-.337-.16-.5-.236-.129-.059-.258-.116-.386-.172l-.087-.038-.08-.035-.148-.061-.222-.093-.2-.082-.218-.086-.2-.076-.213-.079-.2-.07-.209-.073-.194-.064-.2-.066-.19-.058-.2-.06-.187-.053-.2-.054-.182-.047-.193-.047-.078-.019-.174-.039-.044-.01c-.105-.023-.21-.044-.313-.064l-.074-.014c-.1-.018-.2-.036-.295-.051l-.018,0c-.1-.016-.2-.03-.3-.043l-.071-.009c-.1-.012-.2-.024-.295-.033h-.016l-.191-.017-.055,0-.209-.012-.132-.006c-.075,0-.148,0-.222,0h-.108c-.105,0-.209,0-.312.007h-.008c-.1,0-.208.012-.31.021h-.017l-.108.012-.162.018-.125.018-.153.024-.123.024-.146.03-.12.029-.14.036-.032.008-.088.027-.126.039-.117.041c-.04.015-.081.029-.121.044l-.113.047-.116.05-.107.052-.111.055-.033.016-.07.04-.107.062-.1.061c-.034.022-.069.044-.1.067s-.062.044-.094.067-.065.048-.1.072-.059.047-.089.072l-.092.078c-.011.009-.022.018-.032.027q-.055.049-.107.1l-.4.386c.045-.044.092-.085.139-.127.03-.026.061-.052.092-.077s.059-.048.089-.072.064-.048.1-.072l.094-.067c.033-.023.068-.045.1-.067l.1-.062.108-.061c.034-.019.068-.038.1-.057s.073-.037.111-.055l.108-.052.116-.05.112-.046.12-.044.117-.041.125-.039.121-.036.139-.036.12-.029c.048-.011.1-.02.146-.03l.123-.024c.05-.009.1-.016.153-.024l.124-.019c.053-.007.108-.012.162-.018l.124-.013c.1-.009.205-.016.31-.021h0q.155-.007.315-.007h.109c.073,0,.147,0,.222,0l.131.006.209.012c.081.006.163.012.245.02h.016c.1.009.2.021.294.033l.071.009c.1.013.2.027.3.043l.019,0c.1.016.2.033.295.051l.073.014c.1.02.208.041.314.063l.044.01.252.058.192.047.183.047.2.053.186.053.2.06.19.058.205.066.194.064.209.073.2.07.213.079.2.076.218.086.2.082.222.093.228.1.087.038c.128.056.257.113.386.172q.251.115.5.236l.155.075.363.18.166.084q.2.1.4.208l.113.059q.255.136.509.277l.128.072q.194.109.389.222l.169.1.371.22.15.091q.257.156.513.316l.046.03q.234.148.468.3l.2.129.243.16.208.14.241.164.209.144.24.167.209.148.239.171.209.152.239.176.208.154.239.18.207.157.239.184.206.16.239.188.193.153q.262.21.524.424l.059.048q.234.192.467.389l.155.131q.2.171.4.344l.129.111q.257.224.512.451l.137.124.319.288.171.157.287.265.177.166.282.267.173.164.3.288.152.148.254.251.164.162.281.284.133.134q.206.21.41.421l.037.039q.185.192.368.387l.162.173.232.249.168.183.222.242.171.191.213.237.174.2c.069.078.138.156.206.234l.174.2.2.232.173.2.2.232.171.206.192.233.169.208.189.234.16.2.2.255.158.2.2.253.156.2.192.253.154.205.187.253.146.2.226.313.124.173c.089.125.176.25.263.375l.078.111q.167.243.331.486l.083.125q.121.181.24.362l.093.144q.146.225.288.449l.092.146q.175.28.345.56l.051.085q.146.242.287.485l.091.156q.148.256.291.513l.031.055c.044.079.086.158.129.236s.076.139.114.208.084.159.126.239.072.136.107.2.083.162.124.244l.1.2c.041.083.081.166.122.248l.094.192c.04.083.078.166.117.248l.09.191c.041.089.08.178.12.267l.076.169c.043.1.084.2.126.293.02.047.041.095.061.142q.092.217.178.432c1.806,4.511,1.646,7.784-.075,9.449l.084-.082.016-.015Z" transform="translate(-2298.576 -305.655)"/><path class="b" d="M2344.93,331.224q-.1-.257-.212-.515c-.025-.059-.051-.118-.076-.176-.048-.114-.1-.227-.147-.342-.032-.073-.066-.147-.1-.221-.045-.1-.089-.2-.135-.3-.037-.079-.074-.159-.112-.238-.044-.095-.089-.19-.134-.285-.038-.08-.078-.161-.118-.241s-.092-.189-.139-.284-.082-.162-.123-.243-.1-.189-.144-.284-.086-.163-.129-.245-.1-.189-.149-.283l-.135-.249c-.051-.093-.1-.186-.153-.28l-.008-.014-.03-.052q-.169-.3-.345-.609l-.108-.187q-.168-.288-.341-.576l-.061-.1q-.2-.333-.411-.666l-.109-.173q-.17-.268-.343-.536l-.069-.108-.042-.063q-.141-.215-.285-.431l-.1-.149q-.2-.29-.395-.579l-.093-.132q-.155-.223-.313-.446l-.148-.207c-.089-.124-.178-.249-.269-.373l-.068-.1-.105-.142-.223-.3-.184-.245-.228-.3-.186-.243-.233-.3-.188-.242-.239-.3-.129-.163-.063-.078-.223-.276-.2-.249-.229-.277-.2-.245-.234-.277-.206-.242-.239-.278-.165-.191-.042-.048-.246-.28-.206-.234-.254-.283-.2-.227-.265-.289-.2-.217c-.092-.1-.186-.2-.279-.3l-.174-.187-.016-.017q-.221-.235-.445-.468l-.038-.039q-.242-.252-.488-.5l-.159-.161-.334-.336-.2-.193q-.151-.15-.3-.3l-.043-.043-.136-.132q-.177-.172-.355-.344l-.2-.195-.336-.318-.211-.2-.342-.316-.2-.187-.38-.343-.134-.121-.029-.025q-.3-.271-.611-.538l-.153-.132q-.239-.207-.479-.41l-.185-.156q-.277-.234-.556-.463l-.069-.057q-.311-.255-.625-.505l-.062-.051-.167-.131-.285-.225-.245-.19-.285-.22-.246-.187-.286-.215-.247-.183-.286-.21-.248-.18-.286-.2-.249-.176-.286-.2-.248-.171-.288-.2-.248-.166-.289-.191-.165-.109-.07-.045q-.279-.181-.558-.357l-.055-.035q-.305-.192-.61-.377l-.18-.108q-.221-.133-.442-.262l-.2-.117q-.232-.134-.464-.264l-.151-.085q-.3-.169-.606-.33l-.135-.071q-.237-.126-.475-.247l-.2-.1q-.216-.109-.432-.214l-.184-.089q-.3-.145-.6-.282c-.155-.07-.308-.138-.46-.2l-.1-.045-.095-.041-.176-.073-.265-.11-.243-.1-.26-.1-.239-.091-.254-.094-.236-.084-.249-.087-.231-.077-.245-.079-.226-.07-.239-.071-.222-.063-.234-.064-.218-.056-.229-.056-.093-.023-.208-.046-.052-.012c-.126-.027-.25-.052-.374-.075l-.087-.016c-.118-.022-.235-.042-.351-.061l-.022,0c-.121-.019-.24-.036-.359-.052l-.085-.011c-.118-.015-.235-.028-.351-.04l-.02,0-.227-.02-.065,0c-.083-.006-.166-.01-.249-.014l-.157-.008c-.089,0-.177,0-.264-.005h-.129c-.126,0-.251,0-.374.008h-.007c-.125.006-.248.014-.369.025h-.02l-.128.014c-.065.007-.129.013-.192.021s-.1.014-.148.022-.123.018-.182.028l-.146.029c-.058.011-.117.023-.174.035s-.1.023-.143.035-.111.027-.166.042l-.039.01c-.036.01-.07.022-.105.033s-.1.03-.149.046l-.139.049c-.048.018-.1.034-.144.053l-.134.055-.137.059c-.044.02-.086.041-.129.062s-.089.043-.132.066l-.039.019c-.028.015-.055.032-.083.048-.043.024-.086.048-.128.073s-.078.048-.117.073-.082.052-.122.08-.075.053-.111.079l-.116.086c-.036.028-.071.057-.106.085s-.074.061-.11.092l-.039.033q-.064.058-.127.119l-.4.386c.054-.052.11-.1.167-.151.036-.031.073-.062.109-.092s.07-.058.106-.085.077-.058.115-.086.074-.054.112-.079.081-.054.122-.08.077-.05.117-.073.085-.049.128-.073.081-.046.122-.067.088-.044.132-.066.085-.042.129-.062.092-.04.138-.059.088-.038.134-.055.095-.036.143-.053.093-.034.14-.049.1-.031.149-.046l.144-.043c.054-.015.11-.028.165-.042l.144-.035c.057-.013.115-.024.173-.036l.146-.028c.061-.011.122-.019.183-.029l.148-.022c.064-.008.128-.015.193-.021l.147-.015c.121-.011.244-.019.369-.025h.009c.123-.005.246-.008.373-.009l.129,0c.087,0,.175,0,.264,0l.157.008c.082,0,.165.008.248.014s.194.014.292.023l.02,0c.115.011.232.025.35.04l.085.011c.119.016.238.033.359.052l.022,0c.116.018.233.039.351.061l.087.016c.123.024.248.048.374.076l.052.011c.1.022.2.045.3.069l.229.056.218.056.234.064.222.063.24.071.227.07.244.079.231.077.249.086.235.084.254.094.239.09.26.1.243.1.264.11.271.115.1.045c.152.067.305.134.46.2.2.091.4.185.6.281l.185.09q.215.1.432.214l.2.1q.238.121.476.247l.134.07q.3.162.606.33l.151.085q.231.13.464.264l.2.117q.22.129.442.262l.179.108q.305.185.611.377l.054.035q.279.176.558.357l.235.154.288.191.249.167.287.2.249.172.285.2.25.177.284.2.249.181.285.209.248.184.284.214.247.187.285.22.244.19c.1.074.191.15.286.225l.229.181q.313.25.624.505l.069.057q.279.23.556.463l.184.156q.24.2.479.41l.153.132q.306.266.61.537l.164.148.379.342.2.187q.172.157.342.316l.211.2.336.318.2.2q.179.171.356.344l.179.174.3.3.2.193c.112.112.223.224.334.336l.16.161q.245.25.488.5l.037.039q.224.233.445.468l.192.2.277.3.2.22.261.286.207.23q.126.14.251.28l.208.236.245.278.207.24.239.277.207.243.232.276.205.247.228.276.2.249.224.276.192.241.239.3.189.243.232.3.187.245q.115.15.227.3l.183.245.223.3.174.238q.135.186.269.373l.148.207q.158.223.313.446c.031.044.063.088.093.132q.2.289.395.578l.1.149c.1.144.191.288.286.431l.111.171q.174.268.343.536l.11.173q.209.333.411.667l.061.1q.173.288.341.576l.108.186q.176.3.345.609l.037.066c.052.094.1.187.153.28s.091.166.135.249.1.188.149.283l.129.245c.049.1.1.19.145.285s.082.161.122.241c.048.1.094.192.141.288.039.079.078.158.116.237.046.1.091.193.136.29.037.078.074.155.109.233.046.1.091.2.136.3.032.073.066.146.1.218.051.114.1.228.148.341l.076.176q.108.258.211.515c2.15,5.372,1.96,9.27-.089,11.252l.4-.386C2346.89,340.494,2347.081,336.6,2344.93,331.224Z" transform="translate(-2290.395 -296.622)"/><path class="a" d="M2372.787,372.644a7.748,7.748,0,0,0-3.474-3.61c-1.37-.624-2.036-.019-1.487,1.352A7.746,7.746,0,0,0,2371.3,374C2372.669,374.62,2373.335,374.015,2372.787,372.644Z" transform="translate(-2335.546 -345.915)"/><path class="c" d="M2371.706,374.567l-.028.023-.028.019-.031.019-.031.016-.034.016-.034.013-.037.013-.036.01-.041.009-.039.007-.044.006-.039,0-.056,0h-.04l-.06,0-.04,0c-.037,0-.074-.008-.113-.013h0c-.04-.006-.082-.015-.125-.024l-.051-.013-.059-.015-.056-.017-.061-.019-.058-.02-.063-.023-.061-.024-.065-.027-.1-.046c-.076-.035-.153-.073-.231-.114l-.054-.029c-.076-.041-.153-.085-.229-.131l-.027-.017c-.062-.038-.123-.078-.185-.12l-.144-.1-.124-.088-.143-.109c-.046-.035-.091-.07-.136-.107l-.06-.049c-.07-.058-.14-.118-.209-.179l-.018-.016c-.075-.067-.149-.135-.222-.2l-.039-.038c-.039-.038-.077-.077-.116-.116s-.095-.095-.141-.143l-.11-.118c-.041-.045-.082-.089-.122-.135s-.071-.082-.105-.123-.077-.091-.115-.137-.064-.081-.1-.121-.078-.1-.116-.152c-.052-.069-.1-.138-.15-.208l-.005-.008c-.051-.074-.1-.148-.146-.222l-.041-.065c-.049-.079-.1-.158-.139-.237-.033-.06-.062-.119-.092-.178-.014-.029-.031-.058-.045-.087q-.063-.131-.115-.26a1.84,1.84,0,0,1-.16-1.11.64.64,0,0,1,.171-.3l-.4.386c-.257.249-.281.738-.011,1.411q.052.129.115.26c.014.03.031.06.046.089.029.058.058.116.09.175v0c.043.078.09.156.138.235l.041.065c.017.026.032.052.049.077.031.048.064.1.1.145l.005.008c.036.053.074.105.112.158l.038.049q.057.076.116.152c.021.026.04.053.061.079l.035.042c.037.046.076.092.115.138l.072.086.033.037c.04.045.081.09.122.135l.079.087.031.031c.046.049.094.1.141.144.028.028.054.056.082.083l.034.032.039.038c.072.068.143.135.216.2l.005,0,.019.016c.069.061.139.121.209.178l.059.049.055.045.081.062c.048.037.1.074.144.109l.124.089c.048.034.1.067.144.1l.053.037.132.083.027.017c.077.047.153.09.23.131l.054.029c.077.041.154.08.231.114h0l.083.036.023.009.065.026.06.024.063.023.058.02.062.019.055.016.059.015.038.01.012,0c.043.01.085.018.125.024h0c.039.006.076.01.113.013l.012,0h.027l.06,0h.04l.056,0h.022l.018,0,.044-.006.039-.007.042-.01.023-.006.013,0,.036-.012.035-.013.033-.016.021-.01.01-.006.031-.019.029-.019.028-.023.018-.014.016-.015.4-.386C2371.73,374.549,2371.718,374.558,2371.706,374.567Z" transform="translate(-2334.511 -346.398)"/><path class="c" d="M2365.742,369.656l.1-.1.1-.1.015-.014.084-.082c-.024.024-.051.045-.078.067s-.042.035-.064.051-.043.029-.065.044-.047.03-.071.044l-.072.037c-.025.012-.05.024-.077.036s-.052.021-.079.03-.054.02-.083.028-.055.015-.083.023l-.094.022-.088.015-.1.013c-.05.005-.1.011-.151.013h0c-.062,0-.126,0-.19,0h-.026c-.061,0-.123-.006-.187-.012l-.047,0c-.067-.007-.135-.015-.2-.026h-.007c-.068-.011-.137-.024-.208-.039l-.051-.011-.135-.033-.133-.035-.127-.038-.139-.043-.133-.046-.144-.052-.138-.054-.149-.061c-.079-.033-.158-.067-.239-.1-.114-.052-.229-.108-.344-.166l-.105-.055q-.124-.064-.249-.132l-.114-.063c-.091-.051-.182-.1-.273-.159l-.077-.046q-.174-.106-.348-.219l-.13-.086-.173-.116-.136-.1-.169-.119-.138-.1-.166-.123-.139-.107-.163-.127-.113-.09q-.136-.11-.271-.223l-.1-.081q-.176-.15-.351-.3l-.068-.062q-.122-.109-.242-.221l-.109-.1-.2-.19-.125-.122-.155-.155-.127-.13-.152-.158-.126-.134-.139-.151-.126-.139-.136-.153-.122-.14-.132-.155-.12-.142-.128-.157-.115-.142-.136-.174-.1-.135c-.046-.06-.09-.12-.135-.18l-.1-.13c-.068-.093-.135-.187-.2-.281l-.035-.049q-.114-.165-.222-.33l-.044-.069q-.1-.161-.2-.323l-.064-.106c-.072-.122-.143-.243-.211-.364l-.012-.02c-.032-.058-.062-.116-.093-.173-.023-.043-.047-.086-.069-.129-.031-.06-.06-.119-.089-.178-.021-.041-.042-.082-.061-.122-.033-.068-.063-.136-.094-.2l-.044-.095q-.065-.149-.124-.3c-.615-1.535-.56-2.648.025-3.215l-.085.082-.015.014-.1.1-.1.1-.015.014-.085.082c-.585.566-.639,1.68-.025,3.215q.059.147.124.3l.046.1c.03.067.06.133.092.2.019.039.04.079.059.119.03.06.059.121.091.182.023.044.047.089.071.133s.059.112.09.169l0,0,.01.017c.067.121.138.242.21.363l.064.106q.1.161.2.322l.032.051.012.018q.108.165.222.331l.035.05q.1.141.2.28l.02.028.076.1c.044.06.089.12.135.18l.1.135c.045.058.09.116.137.174l.038.049.076.092.129.157.119.142.132.155.049.058.074.083.136.153.126.139.139.15.06.064.067.07.152.158.127.129.156.155.075.075.05.048c.065.063.132.126.2.189l.108.1q.12.112.241.22l.06.055.009.007c.116.1.233.2.35.3l.1.081c.09.075.18.15.272.223l.063.052.049.038.163.127.139.107.166.123.138.1.168.119.137.1.172.115.11.074.021.013c.116.075.232.148.348.219l.078.046c.091.055.182.108.273.159l.114.063c.083.045.166.09.249.132l.106.055c.115.058.23.114.344.166q.1.043.188.083l.051.021.15.06.137.054.144.052.132.046.139.043.127.038.133.034.088.023.046.01.051.011c.07.015.14.028.208.039h.007c.07.011.137.019.2.026l.047,0,.047,0c.047,0,.094.006.139.007h.026c.065,0,.129,0,.19,0h0l.111-.007.04-.005.1-.014.088-.015c.032-.006.063-.014.094-.022s.036-.007.053-.012l.03-.01c.029-.009.056-.018.083-.028l.078-.03c.027-.011.052-.023.077-.036s.033-.014.048-.023l.023-.014c.024-.014.048-.029.072-.044s.044-.028.065-.043.043-.034.065-.051.028-.021.041-.033l.037-.034.085-.082Z" transform="translate(-2325.656 -337.98)"/><path class="c" d="M2358.959,363.088l-.053.045-.051.041-.055.041-.054.038-.059.038-.056.035-.062.035-.059.033-.063.031-.062.03-.066.029-.065.027-.069.026-.067.024-.072.022-.07.021-.08.021-.069.017-.083.017-.071.014-.088.014-.072.011-.093.01-.071.008c-.059.005-.118.009-.178.012h0q-.089,0-.182,0h-.062l-.128,0-.075,0-.121-.007-.073-.006-.16-.016-.069-.008c-.071-.009-.142-.018-.214-.03l-.017,0c-.077-.012-.156-.026-.236-.042l-.071-.014-.177-.038-.089-.02-.11-.027-.105-.027-.113-.031-.107-.03-.115-.034-.11-.034-.117-.038-.111-.037-.121-.042-.113-.04-.123-.045-.116-.044-.125-.049-.117-.047-.127-.053-.114-.048c-.1-.041-.192-.083-.289-.128-.146-.067-.294-.138-.442-.21l-.1-.051c-.146-.073-.292-.148-.438-.226l-.052-.028q-.2-.109-.4-.224l-.1-.056q-.22-.126-.44-.26l-.079-.049q-.2-.12-.391-.246l-.088-.056c-.079-.051-.158-.1-.237-.158-.1-.065-.194-.129-.291-.2l-.23-.161c-.1-.067-.19-.133-.285-.2l-.233-.171c-.093-.069-.187-.138-.28-.208l-.235-.18c-.092-.071-.184-.142-.276-.215-.127-.1-.255-.2-.382-.307l-.03-.024q-.219-.18-.435-.365l-.112-.1q-.191-.164-.379-.331l-.059-.052q-.212-.19-.422-.384l-.081-.074q-.207-.192-.41-.387l-.072-.07c-.092-.089-.183-.179-.274-.269s-.176-.175-.263-.262l-.215-.219-.257-.267-.214-.226-.235-.255-.212-.234q-.116-.129-.23-.259l-.207-.237c-.075-.087-.149-.174-.223-.261s-.135-.159-.2-.24-.145-.176-.217-.265l-.193-.239q-.117-.147-.23-.294c-.059-.076-.118-.152-.177-.228-.077-.1-.152-.2-.227-.3-.061-.081-.121-.162-.18-.243l-.059-.082c-.109-.151-.217-.3-.322-.455l-.019-.028q-.153-.222-.3-.445l-.046-.068q-.149-.228-.292-.457l-.065-.1q-.112-.182-.221-.365l-.073-.124c-.089-.151-.176-.3-.259-.453-.054-.1-.1-.193-.155-.289-.04-.074-.081-.148-.119-.222-.052-.1-.1-.2-.15-.3-.034-.069-.07-.137-.1-.206-.055-.114-.1-.227-.157-.34-.024-.054-.051-.109-.075-.163-.074-.167-.144-.333-.21-.5a11.146,11.146,0,0,1-.613-2.014q-.039-.2-.066-.4t-.042-.38a5.075,5.075,0,0,1,0-.869,3.824,3.824,0,0,1,.071-.463c.022-.1.047-.193.076-.284a2.727,2.727,0,0,1,.156-.387,2.3,2.3,0,0,1,.46-.634h0l-.4.386c-.989.957-1.081,2.838-.043,5.43.066.165.136.332.21.5.025.056.052.113.078.169.051.111.1.222.154.334.033.069.07.139.1.209.049.1.1.2.149.3.038.074.08.149.119.223.051.1.1.191.154.286l0,.007q.123.223.255.446l.074.124c.072.121.146.243.221.364l.065.105q.129.206.262.412l.03.045.045.068q.146.223.3.445l.019.028q.157.228.322.455l.059.082.051.071c.042.058.086.115.129.173.075.1.15.2.227.3.058.077.118.153.177.229q.114.147.23.294l.065.083.128.157c.072.088.144.176.217.264l.2.24.223.261.083.1.124.14c.076.087.152.173.23.259l.212.234.235.254.1.108.114.118q.127.134.256.267l.215.219.263.262.127.127.147.142.071.069q.2.2.411.388l.08.073c.133.123.268.245.4.366l.021.018.059.052q.189.167.38.331l.112.1c.145.123.29.245.436.365l.03.024q.149.122.3.242l.083.065c.092.073.184.144.275.215l.235.181c.093.07.187.139.28.208.078.058.156.115.234.172.094.068.189.135.284.2l.23.161c.1.066.194.131.292.2.062.041.124.084.186.124l.052.033.088.056q.2.126.392.246l.079.048q.22.134.44.26l.1.056q.2.115.4.224l.051.028c.146.078.292.153.438.226l.1.051c.147.072.295.143.442.21h0q.146.066.289.127l.029.013.085.036.127.053.117.047.125.049.116.044.122.045.114.041.12.042.112.037.117.038.11.034.115.034.107.03.113.031.1.027.111.027.045.011.044.009.177.038.072.015c.08.015.159.029.236.042l.018,0c.072.011.143.021.213.029l.069.008.16.016.042,0,.031,0,.12.007.076,0,.127,0h.063c.061,0,.12,0,.179,0h0q.091,0,.178-.012h.009l.062-.007.093-.011.072-.011.088-.014.071-.014.083-.017.069-.017.08-.02.019,0,.051-.016.071-.022.068-.024.069-.025.065-.027.066-.028.062-.03.064-.032.019-.009.04-.023.062-.035.057-.036.059-.038.054-.038.055-.041.051-.041.053-.045.019-.016c.021-.019.042-.038.062-.057l.4-.386C2359.014,363.04,2358.986,363.064,2358.959,363.088Z" transform="translate(-2314.779 -327.64)"/><path class="a" d="M2360.117,355.729c-2.11-5.272-8.094-11.491-13.365-13.89s-7.833-.071-5.722,5.2,8.094,11.491,13.364,13.89S2362.228,361,2360.117,355.729Zm-7.281,1.307a17.65,17.65,0,0,1-7.912-8.223c-1.25-3.121.267-4.5,3.388-3.079a17.649,17.649,0,0,1,7.913,8.223C2357.473,357.078,2355.957,358.457,2352.836,357.036Z" transform="translate(-2315.814 -325.785)"/><path class="c" d="M2353.1,358.079l.113-.109.131-.126c-.035.033-.071.065-.107.1l-.07.06-.068.055-.074.055-.072.051-.079.051-.075.047-.082.047-.079.043-.085.042-.083.04-.089.038-.086.036-.093.034-.09.031-.1.03-.093.028-.106.027-.092.023-.111.023-.094.018-.116.018-.1.014-.123.014-.1.01q-.116.01-.237.016h-.008c-.078,0-.157.005-.237.005h-.084l-.169,0-.1,0-.16-.009-.1-.008-.212-.021-.093-.011q-.14-.017-.284-.039l-.023,0c-.1-.016-.208-.035-.315-.056l-.1-.019q-.116-.023-.235-.05l-.119-.027-.147-.036-.14-.036-.15-.041-.144-.04-.153-.046-.146-.045-.157-.051-.148-.049-.16-.056-.151-.054-.163-.06-.154-.058-.166-.065-.157-.063-.17-.071-.152-.064c-.127-.055-.255-.111-.385-.17s-.257-.119-.386-.181l-.119-.058-.278-.138-.127-.064q-.153-.078-.305-.159l-.087-.045q-.194-.1-.39-.212l-.1-.055c-.1-.056-.2-.112-.3-.17l-.129-.075-.284-.169-.115-.069q-.2-.119-.392-.242l-.036-.023q-.179-.113-.358-.229l-.151-.1-.185-.123-.16-.107-.184-.125-.16-.111-.184-.129-.16-.113-.183-.131-.16-.116-.183-.134-.159-.118-.183-.137-.159-.121-.183-.141-.157-.122-.184-.145-.147-.116c-.134-.107-.268-.215-.4-.325l-.044-.036q-.179-.147-.358-.3l-.119-.1-.307-.263-.1-.085q-.2-.171-.392-.345l-.107-.1-.242-.22-.131-.12-.219-.2-.135-.127-.217-.2-.131-.125-.229-.221-.116-.112-.193-.191-.127-.126c-.072-.072-.143-.144-.214-.216l-.1-.1q-.158-.161-.314-.323l-.025-.027-.285-.3-.124-.132-.177-.19-.131-.143-.167-.183-.132-.147-.163-.181-.132-.149-.159-.181-.132-.153-.155-.179-.132-.156-.15-.178-.132-.158-.147-.177-.13-.16-.144-.177-.123-.154-.153-.194-.122-.156-.149-.193-.121-.157-.146-.193-.118-.158-.143-.194-.112-.152c-.059-.08-.116-.161-.174-.241l-.094-.132-.2-.287-.059-.085q-.128-.185-.253-.372l-.064-.1c-.061-.092-.123-.184-.183-.276l-.072-.111q-.111-.172-.22-.344l-.07-.111q-.134-.214-.264-.428l-.039-.066q-.112-.185-.219-.37l-.07-.12c-.075-.131-.149-.261-.222-.391l-.024-.043c-.033-.059-.064-.118-.1-.177s-.06-.109-.089-.163-.063-.12-.1-.18-.056-.106-.084-.159l-.094-.186c-.026-.051-.052-.1-.077-.152s-.062-.126-.093-.189l-.073-.148c-.03-.063-.059-.125-.088-.188l-.07-.148c-.03-.065-.059-.13-.088-.195-.021-.047-.042-.093-.063-.139-.033-.075-.064-.149-.1-.224-.016-.036-.032-.073-.047-.109-.047-.111-.092-.221-.136-.331-1.383-3.454-1.26-5.959.057-7.233l-.085.082-.015.014-.1.1-.1.1-.015.015-.085.082c-1.317,1.274-1.439,3.78-.057,7.233q.066.165.136.331c.016.039.034.078.05.117.031.072.061.144.093.216l.063.139c.029.065.058.13.088.2.022.049.046.1.07.148s.058.126.089.188.049.1.073.15l.092.187.078.154c.031.061.062.123.094.184s.055.1.082.156l.1.183.087.159.1.181,0,.009.019.033q.109.2.222.392l.069.119q.108.185.219.37l.04.066q.129.214.264.429l.07.111q.109.172.221.344l.044.07.027.041c.06.092.122.184.183.276l.064.1q.126.186.254.372l.059.085q.1.144.2.287l.094.132.173.241.044.061.068.092.143.194.118.158.146.193.119.156.15.194.121.155.154.194.083.1.04.05.144.178.13.159.147.178.132.158.15.178.132.156.154.18.106.122.027.031.159.181.132.149.163.181.132.147.167.182.131.143.177.19.114.122.01.011.285.3.025.026.314.323.1.1.215.216.127.126.193.191.028.028.087.085.229.221.131.125.217.2.135.127.219.2.132.12.243.219.088.079.019.017q.2.174.392.345l.1.085c.1.089.2.176.307.264l.118.1q.179.151.358.3l.044.036q.2.164.4.325l.04.032.106.083.185.146.156.122.184.141.158.12.183.138.159.118.184.135.159.115.184.131.16.113.184.128.16.111.185.125.158.107.187.124.105.07.044.028q.181.117.36.23l.034.022q.2.123.393.242l.115.069.284.168.129.075.3.17.1.055q.195.108.389.212l.086.046.306.159.127.064.278.137.119.058c.129.062.258.122.386.181h0c.13.059.258.115.385.17l.039.017.113.047.17.071.157.063.166.065.154.058.163.06.151.054.16.056.148.049.157.051.146.045.153.046.144.041.15.041.141.036.147.036.06.015.059.013c.079.018.158.035.235.05l.095.019c.106.021.211.04.315.056l.023,0c.1.015.19.028.283.039l.093.011c.072.008.142.015.213.021l.056.006.042,0,.16.009.1,0,.17,0h.083c.081,0,.161,0,.24-.006h0c.08,0,.16-.009.237-.016h.013l.082-.009.124-.014.1-.014.117-.018.094-.018.112-.023.092-.023.106-.027.025-.007.067-.021.1-.03.09-.032.092-.034.086-.035.089-.038.082-.04.085-.042.025-.013.053-.031.083-.047.075-.047.078-.052.072-.051.074-.055.068-.055.071-.06.025-.021c.028-.025.055-.05.082-.076l.131-.126Z" transform="translate(-2305.924 -319.224)"/><path class="c" d="M2346.338,351.492c-.045.044-.092.085-.139.127l-.092.077c-.03.024-.059.048-.089.072s-.064.048-.1.072l-.094.067-.1.067-.1.061-.107.062-.1.057-.111.055-.108.052c-.038.017-.077.033-.115.05l-.113.047-.12.044-.117.041-.125.039c-.04.012-.08.025-.121.036s-.092.024-.139.036l-.12.029-.146.03-.123.024-.153.024-.125.019c-.053.007-.107.012-.161.018l-.125.013c-.1.009-.2.016-.31.021h-.007c-.1,0-.207.007-.313.007h-.109c-.073,0-.146,0-.221,0l-.132-.006-.208-.012c-.081-.006-.163-.012-.246-.02h-.016c-.1-.01-.2-.021-.295-.033l-.071-.009c-.1-.013-.2-.027-.3-.043l-.018,0c-.1-.016-.2-.033-.295-.051l-.073-.014c-.1-.02-.208-.041-.313-.063l-.043-.01c-.084-.018-.168-.038-.253-.058l-.192-.047-.182-.047-.2-.054-.187-.053-.2-.06-.19-.058-.2-.066-.194-.065-.208-.072-.2-.07-.213-.079-.2-.076-.217-.086-.2-.082-.222-.092-.228-.1-.087-.038c-.128-.056-.256-.113-.386-.172h0c-.168-.076-.336-.156-.5-.236l-.155-.075q-.181-.088-.363-.18l-.166-.084q-.2-.1-.4-.208l-.113-.059q-.254-.136-.509-.277l-.127-.072q-.194-.109-.389-.221l-.169-.1-.371-.22-.151-.091q-.256-.155-.513-.316l-.046-.03q-.235-.147-.469-.3l-.2-.129-.242-.16-.208-.14-.241-.164-.209-.144-.24-.167-.209-.148-.239-.171-.209-.152-.239-.175-.208-.154-.239-.18-.207-.157-.239-.184-.206-.16-.239-.188-.193-.153q-.263-.21-.524-.424l-.058-.048q-.234-.193-.467-.389l-.155-.131q-.2-.171-.4-.344l-.129-.112q-.257-.224-.512-.451l-.138-.124-.319-.288-.171-.157-.287-.265-.177-.165-.282-.267-.172-.164-.3-.288-.151-.147-.254-.251-.163-.162-.281-.284-.133-.134q-.206-.21-.41-.421l-.037-.039c-.123-.129-.246-.257-.368-.387l-.162-.173-.232-.248-.168-.183-.222-.242-.172-.191-.213-.237-.174-.2-.206-.234-.174-.2-.2-.232-.174-.2-.2-.232-.171-.206-.192-.232-.169-.208c-.063-.078-.127-.155-.189-.233l-.16-.2-.2-.255-.158-.2-.2-.253-.156-.2-.191-.253-.154-.206-.187-.253-.146-.2-.226-.313-.124-.173-.262-.375-.078-.111q-.167-.243-.331-.486l-.083-.125q-.121-.181-.24-.362l-.093-.144q-.146-.225-.288-.449l-.092-.146q-.175-.28-.345-.56l-.05-.085q-.146-.243-.287-.485l-.09-.156q-.148-.256-.291-.512l-.031-.055-.129-.236c-.038-.07-.076-.139-.113-.208s-.084-.158-.125-.238l-.108-.205c-.042-.08-.081-.161-.122-.241s-.069-.134-.1-.2l-.12-.244c-.032-.065-.065-.131-.1-.2-.04-.083-.078-.166-.117-.249-.03-.064-.06-.127-.089-.19-.04-.086-.078-.172-.116-.257-.027-.06-.055-.12-.081-.18-.042-.094-.081-.188-.122-.282-.022-.051-.044-.1-.066-.153q-.092-.217-.177-.432c-1.806-4.511-1.646-7.784.075-9.449l-.4.386c-1.72,1.665-1.881,4.937-.074,9.449q.086.215.177.432c.021.051.044.1.066.152.04.094.08.188.122.282.025.058.052.116.078.174.039.088.078.175.118.263.029.062.059.124.088.186.039.084.078.168.119.252.031.066.064.132.1.2.039.081.078.162.119.242s.068.135.1.2.08.159.122.239.072.138.108.206.083.158.125.237.075.138.113.207.085.158.129.237l.007.012.024.043q.142.256.291.513l.09.156q.141.242.287.484l.051.085q.17.28.345.56l.092.145q.142.225.288.45l.059.091.035.053c.079.12.159.241.239.361l.083.126q.163.243.331.485l.079.112c.087.125.174.249.262.374l.124.173q.112.157.226.314l.058.08.088.119.188.254.154.205.191.253.157.205.2.252.158.2.2.254.108.136.052.065.188.232.17.209.192.232.172.207.2.233.173.2.2.233.138.161.035.04.206.234.174.2.212.236.173.192c.072.08.146.159.219.239l.171.186.23.247.15.161.014.014q.186.2.375.394l.03.031q.2.212.41.422l.131.133.282.284.165.163.254.25.036.036.114.11.3.289.171.163c.094.09.188.179.283.267l.177.166.287.265.171.157.318.287.114.1.025.022q.255.228.512.451l.129.111q.2.173.4.344l.155.131q.233.2.467.389l.058.048q.261.215.524.424l.052.042.14.11.24.189.206.16.239.184.206.157.24.181.207.153.24.176.208.151.24.172.208.147.24.168.208.144.242.164.208.14.243.16.138.092.058.037q.234.152.469.3l.046.03q.256.161.512.316l.151.09.371.22.169.1q.194.113.389.221l.128.072q.255.142.509.277l.113.06q.2.106.4.207l.167.084.363.179.155.075c.168.081.337.16.5.236.13.059.258.116.386.172l.087.038.08.035.148.062.222.093.2.082.218.086.2.076.213.079.2.07.209.073.194.064.2.066.191.059.2.06.187.053.2.053.183.047.192.047.078.019.175.039.043.01q.159.034.314.063l.073.014c.1.018.2.036.295.051l.018,0c.1.016.2.03.3.043l.072.009c.1.013.2.024.294.033h.016l.191.017.055,0,.208.012.132.006c.075,0,.148,0,.221,0h.109c.106,0,.209,0,.312-.007h.008q.157-.007.309-.021h.017l.107-.012.162-.018.124-.019c.051-.008.1-.015.153-.024l.123-.024.146-.03.12-.029.14-.036.032-.008.088-.028.125-.039.117-.041.12-.044.113-.046.116-.05.108-.051c.037-.018.074-.036.111-.055l.032-.016.07-.04c.036-.02.073-.041.108-.062s.066-.041.1-.061.069-.044.1-.067.063-.044.094-.067.066-.048.1-.072l.088-.072.092-.078.032-.028c.036-.032.072-.066.107-.1h0Z" transform="translate(-2295.047 -308.884)"/><path class="a" d="M2347.448,338.814c-3.672-9.173-14.084-19.994-23.255-24.169s-13.629-.123-9.957,9.05,14.083,19.994,23.255,24.169S2351.121,347.987,2347.448,338.814Zm-11.516,5.156c-7.021-3.2-14.992-11.48-17.8-18.5s.6-10.125,7.623-6.929,14.992,11.48,17.8,18.5S2342.954,347.166,2335.933,343.97Z" transform="translate(-2296.082 -305.654)"/><path class="c" d="M2340.483,346.471l.025-.024.131-.126c-.054.052-.11.1-.167.151-.036.031-.073.062-.109.092s-.07.058-.106.085-.077.058-.116.086-.073.053-.111.079-.081.053-.122.08-.077.05-.117.073-.085.049-.128.073-.081.045-.122.067-.088.044-.132.066l-.129.062-.138.059-.134.055-.143.053-.14.049c-.049.016-.1.031-.149.046s-.1.029-.144.043-.11.029-.166.042l-.143.035c-.057.013-.115.024-.173.035l-.146.029c-.06.011-.122.019-.183.028s-.1.016-.148.022-.128.015-.193.021l-.148.016q-.181.016-.369.025h-.009c-.123.005-.247.008-.373.008h-.129c-.087,0-.175,0-.264-.005l-.156-.008c-.082,0-.165-.008-.249-.014s-.193-.014-.292-.024l-.02,0c-.115-.011-.233-.025-.351-.04l-.085-.011c-.119-.016-.238-.032-.359-.051l-.022,0c-.116-.019-.233-.039-.351-.061l-.087-.016c-.124-.023-.248-.048-.374-.075l-.052-.011-.3-.069-.228-.056-.218-.056-.234-.064-.222-.063-.24-.071-.226-.07-.244-.079-.231-.077-.249-.087-.235-.084-.254-.094-.239-.091-.26-.1-.243-.1-.264-.11-.271-.115-.1-.045c-.152-.066-.305-.134-.46-.2q-.3-.137-.6-.282l-.184-.089q-.216-.105-.432-.214l-.2-.1q-.237-.121-.475-.247l-.135-.071q-.3-.162-.606-.33l-.151-.085q-.232-.13-.464-.264l-.2-.117c-.147-.086-.295-.174-.442-.262l-.179-.108q-.305-.185-.611-.377l-.054-.035q-.279-.176-.559-.357l-.235-.154-.289-.191-.248-.167-.288-.2-.249-.171-.286-.2-.249-.177-.285-.2-.249-.18-.285-.209-.248-.184-.284-.214-.247-.187-.285-.22-.244-.19-.286-.225-.228-.181q-.312-.25-.624-.505l-.069-.057q-.279-.229-.557-.463l-.184-.156q-.24-.2-.479-.41l-.154-.133q-.306-.266-.61-.537l-.164-.147-.38-.343-.2-.186-.342-.316-.211-.2-.336-.318-.2-.195-.355-.344-.179-.174-.3-.3-.2-.193c-.112-.112-.224-.225-.336-.338l-.157-.159q-.245-.25-.488-.5l-.037-.039q-.224-.233-.446-.468l-.191-.2-.277-.3-.2-.219-.263-.287-.2-.227-.254-.283-.206-.233-.247-.281-.207-.239-.239-.277-.207-.244-.232-.276-.205-.247-.228-.276-.2-.248-.224-.277-.191-.239-.239-.3-.189-.242-.233-.3-.187-.244-.228-.3-.183-.245-.223-.3-.174-.237-.269-.374c-.049-.069-.1-.138-.147-.206q-.158-.223-.312-.446c-.031-.044-.062-.088-.093-.132q-.2-.289-.394-.578c-.034-.05-.066-.1-.1-.149q-.144-.215-.286-.431l-.111-.172q-.174-.268-.343-.535l-.109-.173q-.209-.333-.411-.666l-.061-.1q-.173-.288-.341-.576l-.108-.186q-.176-.305-.346-.61l-.037-.065c-.052-.1-.1-.19-.155-.285s-.089-.163-.133-.244c-.052-.1-.1-.193-.152-.289-.042-.08-.085-.159-.126-.239-.05-.1-.1-.193-.148-.29-.04-.079-.081-.158-.12-.236-.049-.1-.1-.195-.143-.292-.038-.077-.077-.155-.114-.233-.047-.1-.093-.2-.139-.295l-.107-.228c-.048-.1-.094-.208-.141-.313-.031-.069-.063-.138-.094-.208-.052-.116-.1-.232-.151-.348-.023-.056-.049-.113-.073-.17q-.109-.258-.211-.515c-2.151-5.372-1.96-9.27.089-11.252l-.131.126-.025.025-.113.109-.131.126c-2.049,1.982-2.24,5.88-.089,11.252q.1.257.212.515c.025.059.051.118.076.176.049.114.1.227.147.341.032.073.066.146.1.218.045.1.09.2.136.3.036.077.073.155.11.233.045.1.09.193.136.29.038.079.077.158.116.237.047.1.093.192.141.288.04.08.082.161.123.241s.1.19.146.285.085.163.128.245.1.188.149.283l.136.249c.051.094.1.187.153.28l.008.014.029.052q.17.3.346.609l.108.187q.168.288.341.576l.061.1q.2.333.411.667l.109.173q.169.268.343.535l.069.108.042.063q.141.216.286.431l.1.148q.195.29.395.579l.093.132q.155.223.313.446l.147.206c.089.124.178.249.269.373.023.032.045.064.069.1l.105.143.223.3.184.245.228.3.186.244.233.3.188.241.239.3.129.163.063.078.224.276.2.249.229.277.2.245.234.277.205.242.239.278.165.191.042.048.246.28.207.234.253.282.206.228q.13.144.261.286l.2.22c.092.1.184.2.277.3.059.063.116.126.176.188l.016.017q.218.231.438.46l.045.047q.243.252.488.5l.157.158c.112.113.223.226.336.339l.2.193.3.3.043.043.136.131c.118.115.236.23.356.344l.2.2.336.318.211.2.342.316.2.187.379.343.135.121.029.026q.3.271.611.537l.154.133q.238.206.478.41l.184.156q.278.234.557.464l.069.057q.311.255.625.505l.062.05.166.131.286.225.245.19.285.22.247.187.285.214.248.184.285.209.248.18.286.2.249.176.286.2.249.172.287.2.248.167.289.191.165.109.07.045q.279.181.557.357l.056.035q.305.192.61.376l.18.109q.22.132.441.261l.2.117q.232.134.464.264l.151.085q.3.169.606.33l.134.07q.238.126.476.247l.2.1q.216.109.432.214l.184.09c.2.1.4.19.6.281h0c.155.07.308.138.46.2l.1.045.1.041.177.074.264.11.243.1.259.1.24.091.253.094.236.084.249.086.231.077.244.079.227.07.239.071.222.063.234.064.218.056.229.056.093.023.207.046.052.011c.125.027.25.052.373.076l.087.016c.118.022.235.042.351.061l.022,0c.121.019.241.036.36.052l.085.011c.118.015.235.028.35.039l.02,0,.227.02.065,0c.083.006.166.011.249.014l.157.007c.089,0,.177,0,.264,0l.129,0c.126,0,.251,0,.374-.009h.008c.125-.005.248-.014.369-.024h.02l.128-.014c.064-.007.129-.013.192-.021l.149-.022c.061-.009.122-.018.182-.028l.146-.028c.058-.012.116-.023.173-.036l.143-.035c.055-.014.111-.027.165-.043l.039-.01.105-.033.149-.046c.047-.016.093-.033.139-.049s.1-.034.144-.053.09-.036.134-.055.092-.039.137-.059.086-.041.128-.061.089-.043.132-.066l.039-.019c.029-.015.056-.032.083-.048.043-.024.086-.048.128-.073l.117-.073c.041-.026.082-.052.122-.08s.074-.053.111-.079.078-.056.116-.086l.106-.085c.037-.03.074-.061.11-.092l.038-.033c.043-.039.086-.078.127-.119l.131-.126Z" transform="translate(-2286.192 -300.466)"/><path class="a" d="M2335.459,322.808c-5.15-12.865-19.752-28.041-32.614-33.9s-19.115-.173-13.964,12.693,19.752,28.041,32.614,33.9S2340.609,335.673,2335.459,322.808Zm-15.371,9.178c-10.922-4.972-23.321-17.858-27.694-28.782s.935-15.749,11.857-10.778,23.32,17.858,27.694,28.782S2331.01,336.957,2320.088,331.986Z" transform="translate(-2277.41 -286.606)"/><path class="d" d="M2310.095,340.766c-.042.037-.086.073-.129.109s-.083.068-.125.1-.091.068-.137.1-.086.063-.131.093-.1.063-.143.094-.091.058-.138.086-.1.058-.15.086-.1.053-.144.079-.1.052-.155.078-.1.049-.151.072-.108.047-.162.07-.1.044-.158.065-.112.042-.168.062-.109.04-.164.058-.117.037-.176.055-.112.035-.169.05-.13.034-.2.05-.112.028-.168.041-.136.028-.2.042-.114.023-.172.033-.143.023-.215.034-.115.018-.174.026c-.075.01-.151.017-.227.025-.061.006-.122.014-.184.019l-.048,0c-.123.01-.248.018-.374.024h0q-.19.008-.386.01h-.052q-.186,0-.378,0l-.069,0q-.19-.006-.385-.018l-.065,0q-.2-.013-.4-.032l-.022,0c-.136-.013-.274-.029-.413-.047l-.1-.013q-.209-.028-.423-.061l-.027,0c-.136-.022-.273-.046-.412-.072l-.1-.019c-.145-.028-.292-.057-.44-.089l-.062-.014c-.117-.026-.235-.053-.354-.081l-.27-.066-.256-.066-.276-.075-.262-.074-.281-.084c-.089-.027-.178-.054-.267-.082l-.288-.093-.272-.09-.293-.1-.277-.1-.3-.111-.282-.107-.305-.12-.286-.115-.311-.13-.32-.135-.122-.053c-.179-.078-.359-.158-.542-.241h0q-.353-.161-.707-.331l-.217-.105q-.253-.124-.509-.252l-.232-.118q-.28-.143-.561-.291l-.158-.083q-.357-.19-.714-.389l-.177-.1q-.273-.154-.546-.311l-.237-.138q-.26-.152-.52-.308l-.211-.127q-.36-.218-.719-.444l-.064-.041q-.329-.207-.658-.421l-.276-.181-.34-.225-.292-.2-.337-.229-.294-.2-.336-.235-.293-.208-.336-.24-.292-.213-.335-.246-.292-.217-.335-.252-.291-.22-.335-.259-.288-.224c-.113-.088-.225-.177-.337-.266l-.268-.213q-.369-.294-.736-.6l-.082-.068q-.328-.27-.654-.546l-.217-.183q-.283-.24-.564-.483l-.18-.155q-.36-.314-.719-.633l-.194-.174-.446-.4-.24-.22c-.134-.123-.269-.247-.4-.372l-.248-.232q-.2-.187-.4-.375l-.241-.229-.418-.4-.211-.206c-.119-.116-.236-.233-.354-.35l-.232-.23c-.132-.132-.264-.265-.4-.4l-.186-.187q-.289-.294-.574-.591l-.048-.05q-.262-.272-.521-.547l-.229-.245-.323-.346-.239-.261-.307-.336-.242-.269-.3-.332-.242-.275-.29-.33c-.082-.094-.163-.188-.243-.281l-.282-.327-.242-.286-.275-.326-.241-.29-.269-.325-.238-.293-.264-.326-.224-.282q-.142-.178-.283-.357l-.222-.284c-.092-.118-.184-.236-.275-.355l-.219-.287-.269-.355-.215-.288-.263-.356-.2-.279q-.16-.22-.317-.44l-.174-.243q-.186-.263-.368-.525l-.109-.156q-.235-.34-.464-.681l-.118-.176q-.169-.253-.335-.507l-.131-.2q-.2-.315-.4-.631l-.128-.2q-.246-.393-.484-.785l-.072-.12q-.2-.339-.4-.679c-.042-.073-.085-.146-.127-.219q-.207-.359-.407-.717l-.044-.078-.18-.331c-.053-.1-.107-.195-.159-.292s-.118-.223-.177-.335c-.05-.1-.1-.191-.151-.287-.059-.113-.115-.226-.172-.339-.048-.094-.1-.188-.143-.281-.057-.114-.112-.228-.168-.342l-.135-.276c-.055-.115-.108-.23-.162-.345-.042-.09-.086-.18-.127-.27-.056-.121-.109-.242-.164-.363-.037-.083-.076-.166-.112-.249-.059-.134-.116-.268-.173-.4-.03-.07-.061-.139-.09-.208q-.128-.3-.249-.607c-2.533-6.327-2.308-10.916.1-13.251l-9.667,9.355c-2.413,2.335-2.638,6.924-.1,13.251q.121.3.249.607c.029.068.059.136.088.2.058.135.115.27.175.406.036.082.074.163.11.245.056.122.11.245.167.368.041.09.085.18.127.27.054.115.107.23.163.345.043.092.09.184.135.276.055.114.11.228.167.342.046.093.095.186.142.28.058.113.114.227.173.34.049.095.1.19.15.286.059.112.117.224.177.336.052.1.1.193.157.289.061.111.121.223.183.334l.009.017.034.06q.2.359.407.719l.127.219q.2.339.4.679l.071.119q.237.392.484.785l.128.2q.2.315.4.631l.082.128.05.074q.166.253.335.507c.039.059.078.118.117.176q.229.341.464.681c.036.052.073.1.109.157q.182.262.368.524l.174.243q.157.22.317.44l.081.112.124.168.262.355.216.289.268.353.22.288.273.353.223.285c.093.119.188.237.281.356l.152.191.074.091c.087.109.176.218.264.326l.238.292.27.327.239.288.276.327.242.285.281.327.195.226.049.056.289.329.243.276c.1.111.2.221.3.331.081.09.161.18.242.269l.309.338.237.259.325.348.208.223.019.02q.259.275.521.547l.048.05q.286.3.574.591l.185.186q.2.2.4.4l.229.228c.119.117.237.235.357.352l.051.05.161.155q.209.2.418.4l.241.23q.2.187.4.374l.248.232.4.372.239.219q.223.2.448.4l.158.143.034.03q.358.319.719.633l.181.156q.281.243.563.482l.217.184q.327.275.655.545l.082.068q.367.3.736.6l.073.059.195.154.337.266.288.224.335.259.291.22.335.252.292.217.335.246.293.213.335.24.293.208.336.235.293.2.338.23.292.2.34.225.194.129.082.052q.328.213.656.421l.065.041q.36.226.719.443l.212.127q.26.156.52.309l.237.138q.274.158.547.311l.177.1q.358.2.714.389l.158.083q.281.148.56.291l.233.118q.254.128.509.252l.217.105q.354.17.707.331h0c.182.083.362.163.542.241l.123.053.112.049.208.087c.1.044.208.088.311.13l.286.115.3.12.282.107.3.111.278.1.292.1.272.09.287.093.267.082.281.084.262.074.276.075.256.066.27.066.11.027.244.054.062.014c.148.032.294.061.439.089l.1.019c.139.026.277.05.412.072l.026,0c.143.023.284.043.424.061l.1.013c.139.018.278.033.413.047l.023,0,.268.023.131.009.065,0c.13.008.258.014.385.018l.069,0c.127,0,.253.005.377,0h.052c.13,0,.259,0,.386-.01h0c.126-.006.251-.014.374-.024l.048,0,.033,0c.051,0,.1-.011.151-.017.076-.008.152-.016.227-.025.059-.008.116-.017.174-.026s.144-.021.215-.034.115-.022.172-.033.137-.027.2-.042.112-.027.168-.041.131-.032.2-.05l.046-.012c.042-.012.082-.026.124-.038.058-.018.118-.035.175-.055s.11-.038.164-.058.114-.041.169-.062.106-.043.158-.065.109-.046.162-.07l.152-.072c.052-.026.1-.051.155-.078l.045-.023c.034-.018.065-.038.1-.056.051-.028.1-.057.151-.086s.092-.057.137-.086.1-.062.144-.094.088-.062.131-.094.092-.067.137-.1.083-.067.124-.1.087-.072.13-.109l.045-.038c.051-.046.1-.092.15-.14l9.666-9.355C2310.227,340.649,2310.161,340.708,2310.095,340.766Z" transform="translate(-2252.345 -291.135)"/></svg>