<svg xmlns="http://www.w3.org/2000/svg" xmlns:xlink="http://www.w3.org/1999/xlink" width="76.2" height="71.2" viewBox="0 0 76.2 71.2"><defs><style>.a{fill:none;}.b{fill:#dedede;}.c{clip-path:url(#a);}.d{fill:#999;}.e{fill:#9c9c9c;}.f{fill:#9e9e9e;}.g{fill:#a0a0a0;}.h{fill:#a3a3a3;}.i{fill:#a5a5a5;}.j{fill:#a7a7a7;}.k{fill:#a9a9a9;}.l{fill:#acacac;}.m{fill:#aeaeae;}.n{fill:#b0b0b0;}.o{fill:#b2b2b2;}.p{fill:#b4b4b4;}.q{fill:#b6b6b6;}.r{fill:#b7b7b7;}.s{fill:#b9b9b9;}.t{fill:#bbb;}.u{fill:#bdbdbd;}.v{fill:#bebebe;}.w{fill:silver;}.x{fill:#c1c1c1;}.y{fill:#c3c3c3;}.z{fill:#c4c4c4;}.aa{fill:#c6c6c6;}.ab{fill:#c7c7c7;}.ac{fill:#c9c9c9;}.ad{fill:#cacaca;}.ae{fill:#cbcbcb;}.af{fill:#ccc;}.ag{fill:#cdcdcd;}.ah{fill:#cfcfcf;}.ai{fill:#d0d0d0;}.aj{fill:#d1d1d1;}.ak{fill:#d2d2d2;}.al{fill:#d3d3d3;}.am{fill:#d4d4d4;}.an{fill:#d5d5d5;}.ao{fill:#d6d6d6;}.ap{fill:#d7d7d7;}.aq{fill:#d8d8d8;}.ar{fill:#d9d9d9;}.as{fill:#dadada;}.at{fill:#dbdbdb;}.au{fill:#dcdcdc;}.av{fill:#ddd;}.aw{fill:#dfdfdf;}.ax{fill:#e0e0e0;}.ay{fill:red;}.az{fill:#c5c5c5;}.ba{fill:#b8b8b8;}.bb{fill:#a8a8a8;}</style><clipPath id="a"><path class="a" d="M1035.67,1789.495a39.7,39.7,0,0,0,10.389,11.138c5.8,4.333,10.857,4.113,10.857,4.113,1.461.106,6.178-1.186,6.178-1.186,10.324-2.77,21.448-9.862,21.448-9.862,10.413-6.35,18.9-17.992,18.9-17.992a10.064,10.064,0,0,1-5.1,3.9s-6.315,2.518-16.233-5.495c0,0-3.3-2.521-8.011-9.231-4.136-7.077-5.052-11.13-5.052-11.13-3.149-12.355,1.773-17.045,1.773-17.045a10.065,10.065,0,0,1,5.669-3.011s-14.121,2.863-24.234,9.682c0,0-11.084,7.154-17.905,15.384,0,0-3.14,3.749-3.653,5.121,0,0-2.307,4.5-.787,11.583a39.707,39.707,0,0,0,5.793,14.086Z" transform="translate(-1029.392 -1733.691)"/></clipPath></defs><path class="b" d="M1230.906,1786.986a41.646,41.646,0,0,1-9.5-9.765l0,0,0-.007,0,0a41.642,41.642,0,0,1-4.916-12.706c-1.305-10.528,4.6-12.512,4.6-12.512,6.444-2.352,12.608,2.559,12.608,2.559,4.391,2.92,8.63,9.238,8.63,9.238s3.975,6.487,4.8,11.7c0,0,1.895,7.65-2.929,12.527C1244.2,1788.022,1239.932,1792.561,1230.906,1786.986Z" transform="translate(-1174.544 -1747.277)"/><g transform="translate(0 0.139)"><g class="c"><rect class="d" width="64.524" height="60.348" transform="translate(-10.028 30.452) rotate(-32.682)"/><path class="d" d="M1046.171,1788.874l-17.684,11.345-5.348,3.431-30.144-46.988-.616.4q.385-1.136.842-2.256a44.671,44.671,0,0,1,4.744-8.658l.648,1.01,42.629-27.348-.1-.155q1.578-.339,3.186-.622.8-.141,1.615-.269l-.052.034,31.932,49.773Z" transform="translate(-1000.648 -1722.096)"/><path class="e" d="M1049.418,1790.152l-17.435,11.185-5.829,3.74-29.842-46.517-.05.032q.38-1.119.83-2.224a44.044,44.044,0,0,1,4.677-8.536l.3.466,37.009-23.743-.832-1.3a85.751,85.751,0,0,1,12.434-2.662l-1.084.7,31.244,48.7Z" transform="translate(-1003.663 -1723.522)"/><path class="f" d="M1050.31,1792.266l-17.185,11.025-6.311,4.049-28.729-44.78-.974.625a38.106,38.106,0,0,1,1.5-4.413,43.41,43.41,0,0,1,4.61-8.414q.7-1.011,1.47-2l.43.67,34.531-22.153-.475-.741a84.517,84.517,0,0,1,12.256-2.624l-.852.547,30.922,48.2Z" transform="translate(-1004.323 -1725.786)"/><path class="g" d="M1053.591,1794.38l-16.936,10.865-6.792,4.357-28.438-44.328-.388.249a37.581,37.581,0,0,1,1.474-4.349,42.8,42.8,0,0,1,4.544-8.292q1.388-1.992,3.015-3.89l.49.764,32.048-20.561-.119-.185a83.288,83.288,0,0,1,12.079-2.586l-.62.4,30.6,47.7Z" transform="translate(-1007.372 -1728.049)"/><path class="h" d="M1055.072,1796.494l-16.687,10.706-7.273,4.666L1003.8,1769.3l-1.159.744q.223-1.1.518-2.181a37.04,37.04,0,0,1,1.453-4.285,46.3,46.3,0,0,1,10.87-15.633l.78,1.215,22.71-14.569-.538-.839q2.714-1.024,5.569-1.865a82.067,82.067,0,0,1,11.9-2.548l-.388.249,30.278,47.195Z" transform="translate(-1008.62 -1730.312)"/><path class="i" d="M1058.38,1798.609l-16.438,10.546-7.636,4.9.3.465q-1.217-.462-2.4-.969l1.139-.731L1007.158,1772l-.552.354q.22-1.08.51-2.149a36.485,36.485,0,0,1,1.431-4.221,45.612,45.612,0,0,1,10.708-15.4l.408.636,17.691-11.35-.691-1.076a78.3,78.3,0,0,1,22.409-6.537l-.156.1,29.955,46.693Z" transform="translate(-1011.697 -1732.576)"/><path class="j" d="M1060.425,1800.054l-16.189,10.386-7.52,4.825.162.253q-1.2-.455-2.36-.954l.523-.335-24.927-38.855-1.174.753a34.689,34.689,0,0,1,2.275-8.41,44.922,44.922,0,0,1,10.546-15.166l.036.056,17.423-11.178-.314-.49a77.12,77.12,0,0,1,22.07-6.439q.749-.1,1.5-.193l-1.071.687,29.285,45.647Z" transform="translate(-1013.509 -1734.169)"/><path class="k" d="M1063.753,1802.178l-15.94,10.226-7.4,4.75.026.041q-1.18-.448-2.324-.94t-2.249-1.024l1.035-.664-23.423-36.51-.548.351a34.148,34.148,0,0,1,2.24-8.28,44.23,44.23,0,0,1,10.383-14.932,62.052,62.052,0,0,1,16.881-11.433,75.938,75.938,0,0,1,21.73-6.34q.738-.1,1.473-.19l-.821.526,28.968,45.153Z" transform="translate(-1016.605 -1736.443)"/><path class="l" d="M1066.336,1804.3l-15.691,10.067-6.656,4.27.427.665q-.589-.21-1.17-.431-1.161-.441-2.287-.925t-2.214-1.008l.4-.257-22.17-34.557-1.023.656q.072-1.048.214-2.088a33.611,33.611,0,0,1,2.205-8.151,43.539,43.539,0,0,1,10.221-14.7c9.126-8.826,22.517-15.354,38.008-17.495q.726-.1,1.45-.187l-.571.366,28.651,44.66Z" transform="translate(-1018.955 -1738.716)"/><path class="m" d="M1069.676,1806.428l-15.442,9.907-5.905,3.789.806,1.256a56,56,0,0,1-8.852-3.8l.77-.494-20.718-32.294-.379.243q.071-1.031.211-2.055a33.08,33.08,0,0,1,2.17-8.022,42.846,42.846,0,0,1,10.059-14.466c8.981-8.685,22.159-15.111,37.4-17.217q.715-.1,1.427-.184l-.321.206,28.334,44.166Z" transform="translate(-1022.063 -1740.99)"/><path class="n" d="M1072.769,1808.018l-15.193,9.747-5.81,3.727.653,1.017a55.094,55.094,0,0,1-8.709-3.739l.12-.077-19.48-30.364-.711.456a30.148,30.148,0,0,1,.278-4.057,32.548,32.548,0,0,1,2.135-7.893,42.156,42.156,0,0,1,9.9-14.232c8.836-8.545,21.8-14.867,36.8-16.94q1.406-.194,2.8-.334l-1.132.726,27.68,43.145Z" transform="translate(-1024.924 -1742.729)"/><path class="o" d="M1076.112,1810.151l-14.944,9.587-5.715,3.666.5.778a54.159,54.159,0,0,1-8.566-3.678q-2-1.075-3.832-2.3l1.14-.732-17-26.5-.051.033a29.661,29.661,0,0,1,.274-3.99,32.011,32.011,0,0,1,2.1-7.763,41.463,41.463,0,0,1,9.734-14c8.692-8.405,21.444-14.623,36.2-16.662q1.383-.191,2.756-.329l-.865.555,27.368,42.66Z" transform="translate(-1028.035 -1745.011)"/><path class="p" d="M1079.456,1812.285l-14.695,9.427-5.62,3.605.346.539a53.239,53.239,0,0,1-8.424-3.616q-1.963-1.057-3.768-2.259l.463-.3-14.834-23.123-1,.642c-1.466-10.608,3.088-21.024,11.635-29.289s21.087-14.379,35.595-16.384q1.36-.188,2.71-.323l-.6.383,27.057,42.175Z" transform="translate(-1031.147 -1747.294)"/><path class="q" d="M1082.8,1814.417l-14.446,9.268-5.525,3.544.193.3a52.349,52.349,0,0,1-8.281-3.555,44.043,44.043,0,0,1-7.079-4.718l1.041-.668-12.464-19.429-.315.2c-1.441-10.428,3.036-20.668,11.438-28.793s20.73-14.136,34.992-16.106q1.337-.185,2.665-.318l-.33.212,26.746,41.69Z" transform="translate(-1034.258 -1749.575)"/><path class="r" d="M1086.143,1816.551l-14.2,9.108-5.429,3.483.04.062a51.447,51.447,0,0,1-8.138-3.494,43.29,43.29,0,0,1-6.957-4.636l.342-.219-10.312-16.074-.779.5a27.857,27.857,0,0,1-.786-3.758c-2.832-20.5,17.6-40.252,45.629-44.125q1.314-.182,2.619-.313l-.063.04,26.435,41.2Z" transform="translate(-1037.369 -1751.858)"/><path class="s" d="M1089.486,1818.279l-13.948,8.948-4.112,2.638.818,1.276q-1.091-.315-2.154-.669a50.557,50.557,0,0,1-8-3.432,38.7,38.7,0,0,1-12.288-10.113l.98-.629-4.051-6.314-.78.5a27.452,27.452,0,0,1-2.028-7.208c-2.782-20.137,17.288-39.545,44.828-43.351q1.291-.178,2.573-.307.641-.064,1.279-.117l-.755.484,25.8,40.221Z" transform="translate(-1040.481 -1753.735)"/><path class="t" d="M1092.83,1820.419l-13.7,8.788-4.038,2.591.649,1.011q-1.072-.309-2.116-.657a49.632,49.632,0,0,1-7.852-3.371,38.014,38.014,0,0,1-12.068-9.932,27.92,27.92,0,0,1-5.775-13.407c-2.733-19.777,16.979-38.839,44.027-42.577q1.268-.175,2.527-.3.629-.063,1.256-.115l-.47.3,25.5,39.745Z" transform="translate(-1043.592 -1756.024)"/><path class="u" d="M1096.174,1822.25l-13.45,8.628-3.965,2.544.479.746q-1.052-.3-2.077-.645a48.739,48.739,0,0,1-7.71-3.31c-9.581-5.16-16.177-13.206-17.519-22.915-2.683-19.417,16.67-38.133,43.227-41.8q2.49-.344,4.941-.5l-1.1.7,24.875,38.774Z" transform="translate(-1046.704 -1758.004)"/><path class="v" d="M1099.517,1824.4l-13.2,8.469-3.891,2.5.309.481q-1.033-.3-2.039-.633a47.822,47.822,0,0,1-7.567-3.249c-9.4-5.064-15.878-12.961-17.194-22.49-2.633-19.058,16.362-37.427,42.427-41.028q2.444-.338,4.85-.489l-.8.51,24.576,38.307Z" transform="translate(-1049.814 -1760.299)"/><path class="w" d="M1102.86,1826.542l-12.952,8.309-3.818,2.449.139.217q-1.013-.292-2-.621a46.918,46.918,0,0,1-7.424-3.187c-9.226-4.969-15.578-12.717-16.87-22.066-2.583-18.7,16.053-36.721,41.626-40.254q2.4-.331,4.758-.479l-.494.317,24.276,37.839Z" transform="translate(-1052.926 -1762.594)"/><path class="x" d="M1106.2,1828.689l-12.7,8.149-2.563,1.644.8,1.247q-2.036-.5-3.974-1.146a46.021,46.021,0,0,1-7.281-3.126c-9.048-4.873-15.279-12.472-16.546-21.642-2.534-18.339,15.744-36.015,40.826-39.48q2.351-.325,4.667-.47l-.193.124,23.976,37.373Z" transform="translate(-1056.037 -1764.89)"/><path class="y" d="M1109.547,1830.623l-12.453,7.989-2.513,1.612.614.957q-2-.49-3.9-1.123a45.147,45.147,0,0,1-7.139-3.065c-8.871-4.778-14.979-12.228-16.221-21.218-2.484-17.979,15.436-35.308,40.025-38.706q2.305-.319,4.575-.461.567-.036,1.131-.061l-.721.462,23.375,36.435Z" transform="translate(-1059.149 -1766.973)"/><path class="z" d="M1112.891,1832.638l-12.2,7.83-2.462,1.58.427.666q-1.956-.48-3.818-1.1a44.227,44.227,0,0,1-7-3c-8.694-4.682-14.679-11.983-15.9-20.793-2.435-17.62,15.127-34.6,39.224-37.932q2.259-.312,4.484-.452,1.111-.07,2.212-.1l-1.2.771,22.777,35.5Z" transform="translate(-1062.26 -1769.137)"/><path class="aa" d="M1116.234,1834.792l-11.955,7.67-2.412,1.548.241.376q-1.917-.471-3.741-1.078a43.325,43.325,0,0,1-6.853-2.942c-8.516-4.587-14.38-11.739-15.573-20.369-2.385-17.26,14.818-33.9,38.424-37.158q2.213-.306,4.392-.442,1.089-.069,2.166-.1l-.868.557,22.49,35.055Z" transform="translate(-1065.371 -1771.44)"/><path class="ab" d="M1119.578,1836.945l-11.706,7.51-2.362,1.515.055.086q-1.877-.461-3.663-1.056a42.447,42.447,0,0,1-6.71-2.881c-8.339-4.491-14.08-11.494-15.248-19.944-2.335-16.9,14.51-33.19,37.624-36.384q2.167-.3,4.3-.433,1.066-.067,2.121-.095l-.534.342,22.2,34.607Z" transform="translate(-1068.483 -1773.741)"/><path class="ac" d="M1122.922,1839.1l-11.457,7.35-1.185.761.6.936q-.939-.192-1.858-.417-1.837-.451-3.584-1.034a41.527,41.527,0,0,1-6.568-2.82c-8.161-4.4-13.781-11.25-14.923-19.52-2.286-16.541,14.2-32.484,36.823-35.609q2.121-.293,4.209-.424,1.043-.066,2.076-.093l-.2.128,21.915,34.159Z" transform="translate(-1071.594 -1776.044)"/><path class="ad" d="M1126.265,1841.187l-11.208,7.191-1.16.744.4.621q-.918-.187-1.817-.408-1.8-.441-3.507-1.011a40.6,40.6,0,0,1-6.425-2.758c-7.984-4.3-13.481-11.005-14.6-19.1-2.236-16.181,13.892-31.778,36.023-34.835a55.158,55.158,0,0,1,8.158-.521l-1.3.831,21.048,32.809Z" transform="translate(-1074.705 -1778.282)"/><path class="ae" d="M1129.609,1843.342l-10.959,7.031-1.134.727.2.306q-.9-.184-1.777-.4-1.757-.432-3.429-.989a39.728,39.728,0,0,1-6.282-2.7c-7.807-4.2-13.181-10.76-14.274-18.671-2.186-15.822,13.583-31.071,35.222-34.061a53.922,53.922,0,0,1,7.977-.509l-.93.6,20.774,32.381Z" transform="translate(-1077.817 -1780.586)"/><path class="af" d="M1132.952,1845.5l-10.71,6.871.66,1.028a41.7,41.7,0,0,1-13-4.318c-7.629-4.109-12.882-10.516-13.95-18.247-2.136-15.462,13.275-30.365,34.422-33.287a52.7,52.7,0,0,1,7.8-.5l-.564.362,20.5,31.953Z" transform="translate(-1080.928 -1782.889)"/><path class="ag" d="M1136.3,1847.652l-10.461,6.711.442.689a40.724,40.724,0,0,1-12.7-4.218c-7.452-4.013-12.582-10.271-13.626-17.823-2.087-15.1,12.966-29.659,33.621-32.513a51.436,51.436,0,0,1,7.614-.486l-.2.127,20.225,31.525Z" transform="translate(-1084.039 -1785.194)"/><path class="ah" d="M1139.639,1849.807l-10.212,6.551.224.35a39.75,39.75,0,0,1-12.4-4.117c-7.274-3.918-12.283-10.027-13.3-17.4-2.037-14.743,12.657-28.953,32.82-31.739a50.2,50.2,0,0,1,7.433-.474q.91.01,1.808.054l-1.088.7,19.4,30.237Z" transform="translate(-1087.151 -1787.497)"/><path class="ai" d="M1142.983,1851.962l-9.963,6.391.007.011a38.785,38.785,0,0,1-12.093-4.017c-7.1-3.822-11.983-9.782-12.977-16.974-1.988-14.383,12.348-28.247,32.02-30.965a48.986,48.986,0,0,1,7.251-.463q.888.01,1.764.053l-.692.444,19.138,29.83Z" transform="translate(-1090.262 -1789.801)"/><path class="aj" d="M1146.326,1854.116l-5.214,3.345-3.446,2.211.375.585q-.827-.1-1.64-.237a37.815,37.815,0,0,1-11.791-3.917c-6.919-3.727-11.684-9.538-12.652-16.55-1.938-14.024,12.04-27.541,31.219-30.191a47.778,47.778,0,0,1,7.07-.451q.865.01,1.719.051l-.3.189,18.876,29.424Z" transform="translate(-1093.374 -1792.105)"/><path class="ak" d="M1149.669,1856.271l-5.08,3.259-2.283,1.465.695,1.083q-1.64-.142-3.224-.4a36.843,36.843,0,0,1-11.488-3.816c-6.742-3.631-11.384-9.293-12.328-16.125-1.888-13.664,11.731-26.834,30.419-29.416a46.537,46.537,0,0,1,6.889-.44q1.686.019,3.327.161l-1.018.653,18.083,28.187Z" transform="translate(-1096.484 -1794.408)"/><path class="al" d="M1153.013,1858.426l-4.946,3.173-2.224,1.426.448.7q-1.6-.138-3.139-.392a35.877,35.877,0,0,1-11.186-3.716c-6.565-3.536-11.084-9.049-12-15.7-1.838-13.3,11.422-26.128,29.619-28.642a45.3,45.3,0,0,1,6.708-.428q1.642.018,3.239.157l-.592.38,17.836,27.8Z" transform="translate(-1099.596 -1796.712)"/><path class="am" d="M1156.357,1860.58l-4.813,3.088-2.163,1.388.2.313q-1.553-.134-3.054-.381a34.912,34.912,0,0,1-10.884-3.615c-6.387-3.44-10.785-8.8-11.679-15.277-1.789-12.945,11.114-25.422,28.818-27.868a44.1,44.1,0,0,1,6.526-.417q1.6.018,3.152.153l-.166.107,17.589,27.416Z" transform="translate(-1102.707 -1799.016)"/><path class="am" d="M1159.7,1862.735l-4.679,3-1.072.688.444.692q-.766-.037-1.521-.1-1.51-.13-2.969-.371a33.93,33.93,0,0,1-10.581-3.515c-6.21-3.344-10.485-8.559-11.355-14.852-1.739-12.585,10.8-24.716,28.017-27.094a42.862,42.862,0,0,1,6.345-.405q1.553.018,3.065.149.755.065,1.5.158l-.729.468,16.833,26.239Z" transform="translate(-1105.819 -1801.319)"/><path class="an" d="M1163.044,1864.89l-4.545,2.916.64,1a38.926,38.926,0,0,1-5.861-.5,32.964,32.964,0,0,1-10.279-3.415c-6.032-3.249-10.186-8.315-11.03-14.428-1.689-12.226,10.5-24.01,27.217-26.32a40.343,40.343,0,0,1,12.025.111l-1.194.766,16.09,25.08Z" transform="translate(-1108.93 -1803.623)"/><path class="ao" d="M1166.387,1867.045l-4.412,2.83.366.57a37.78,37.78,0,0,1-5.689-.49,31.991,31.991,0,0,1-9.977-3.314c-5.855-3.153-9.886-8.07-10.706-14-1.639-11.866,10.188-23.3,26.417-25.546a39.16,39.16,0,0,1,11.671.108l-.713.457,15.873,24.741Z" transform="translate(-1112.041 -1805.927)"/><path class="ap" d="M1169.731,1869.2l-4.278,2.745.091.142a36.617,36.617,0,0,1-5.517-.475,31.025,31.025,0,0,1-9.674-3.214c-5.677-3.058-9.586-7.826-10.382-13.579-1.59-11.507,9.879-22.6,25.616-24.772a37.957,37.957,0,0,1,11.318.1l-.232.148,15.655,24.4Z" transform="translate(-1115.153 -1808.23)"/><path class="aq" d="M1173.074,1871.354l-2.14,1.373.595.927q-1.406.089-2.783.073a35.483,35.483,0,0,1-5.344-.46,30.06,30.06,0,0,1-9.372-3.113c-5.5-2.962-9.287-7.581-10.057-13.155-1.54-11.147,9.57-21.891,24.816-24a36.778,36.778,0,0,1,10.964.1q1.292.212,2.531.516l-1.308.839,14.465,22.547Z" transform="translate(-1118.264 -1810.534)"/><path class="aq" d="M1176.418,1873.509l-2.071,1.328.3.46q-1.361.086-2.693.07a34.333,34.333,0,0,1-5.172-.445,29.091,29.091,0,0,1-9.07-3.013c-5.323-2.867-8.987-7.337-9.733-12.73-1.49-10.787,9.261-21.185,24.015-23.224a35.591,35.591,0,0,1,10.61.1q1.25.205,2.449.5l-.777.5,14.279,22.257Z" transform="translate(-1121.375 -1812.838)"/><path class="ar" d="M1180.409,1876.674c-14.262,1.971-26.991-4.885-28.432-15.313s8.953-20.479,23.214-22.449a34.4,34.4,0,0,1,10.257.095q1.208.2,2.367.483l-.245.158,14.093,21.967-21.9,14.051Z" transform="translate(-1124.487 -1815.142)"/><path class="ar" d="M1183.43,1878.327c-13.77,1.9-26.061-4.717-27.452-14.785s8.644-19.773,22.414-21.675a33.223,33.223,0,0,1,9.9.092,29.025,29.025,0,0,1,4.467,1.1l-.974.625,12.984,20.239-21.669,13.9Z" transform="translate(-1127.598 -1817.445)"/><path class="as" d="M1186.452,1879.979c-13.278,1.835-25.13-4.549-26.471-14.257s8.335-19.067,21.614-20.9a32.033,32.033,0,0,1,9.549.089,27.962,27.962,0,0,1,4.308,1.056l-.4.255,11.976,18.668.676-.434a14.88,14.88,0,0,1-.585,1.727,16.98,16.98,0,0,1-1.8,3.292l-.73-1.138-18.139,11.637Z" transform="translate(-1130.709 -1819.749)"/><path class="at" d="M1189.473,1881.632c-12.786,1.767-24.2-4.38-25.491-13.729s8.027-18.36,20.813-20.127a30.838,30.838,0,0,1,9.2.085,26.93,26.93,0,0,1,4.148,1.017q.987.329,1.917.728l-.848.544,9.971,15.542,1.108-.711a13.863,13.863,0,0,1-.91,3.364,16.362,16.362,0,0,1-1.737,3.171l-.381-.594-13.746,8.819.579.9A31.814,31.814,0,0,1,1189.473,1881.632Z" transform="translate(-1133.821 -1822.053)"/><path class="at" d="M1192.495,1883.284c-12.295,1.7-23.268-4.212-24.511-13.2s7.718-17.654,20.013-19.353a27.09,27.09,0,0,1,16.4,2.592l-1.076.69,8.706,13.57.482-.309a13.336,13.336,0,0,1-.875,3.235,17.277,17.277,0,0,1-4.056,5.833l-.6-.938-6.7,4.3.709,1.1A29.662,29.662,0,0,1,1192.495,1883.284Z" transform="translate(-1136.932 -1824.356)"/><path class="au" d="M1195.516,1884.937c-11.8,1.631-22.338-4.043-23.53-12.673s7.409-16.948,19.212-18.579a26.009,26.009,0,0,1,15.744,2.489l-.427.273,6.9,10.754,1.313-.843c.6,4.315-1.256,8.552-4.733,11.914A26.008,26.008,0,0,1,1195.516,1884.937Z" transform="translate(-1140.043 -1826.66)"/><path class="au" d="M1198.538,1886.59c-11.311,1.563-21.407-3.875-22.55-12.145s7.1-16.242,18.411-17.8a24.925,24.925,0,0,1,15.088,2.385,17.479,17.479,0,0,1,2.807,1.871l-.915.587,4.943,7.7.627-.4c.571,4.135-1.2,8.2-4.535,11.418A24.924,24.924,0,0,1,1198.538,1886.59Z" transform="translate(-1143.155 -1828.964)"/><path class="av" d="M1201.559,1888.242c-10.819,1.495-20.476-3.706-21.569-11.617s6.792-15.536,17.611-17.031a23.841,23.841,0,0,1,14.432,2.281,15.2,15.2,0,0,1,4.827,3.973,11.168,11.168,0,0,1,2.31,5.363c.546,3.956-1.151,7.839-4.338,10.921A23.841,23.841,0,0,1,1201.559,1888.242Z" transform="translate(-1146.266 -1831.268)"/><path class="av" d="M1204.58,1889.895c-10.327,1.427-19.546-3.538-20.589-11.089s6.483-14.83,16.811-16.257a22.757,22.757,0,0,1,13.776,2.178c3.726,2.007,6.291,5.136,6.813,8.911C1222.434,1881.189,1214.908,1888.468,1204.58,1889.895Z" transform="translate(-1149.377 -1833.571)"/><ellipse class="av" cx="17.978" cy="13.145" rx="17.978" ry="13.145" transform="matrix(0.991, -0.137, 0.137, 0.991, 33.705, 32.09)"/><ellipse class="b" cx="17.08" cy="12.488" rx="17.08" ry="12.488" transform="translate(34.686 32.618) rotate(-7.867)"/><ellipse class="b" cx="16.181" cy="11.831" rx="16.181" ry="11.831" transform="translate(35.666 33.146) rotate(-7.867)"/><ellipse class="b" cx="15.282" cy="11.174" rx="15.282" ry="11.174" transform="translate(36.646 33.674) rotate(-7.867)"/><ellipse class="aw" cx="14.383" cy="10.516" rx="14.383" ry="10.516" transform="translate(37.627 34.202) rotate(-7.867)"/><ellipse class="aw" cx="13.484" cy="9.859" rx="13.484" ry="9.859" transform="translate(38.607 34.73) rotate(-7.867)"/><ellipse class="aw" cx="12.585" cy="9.202" rx="12.585" ry="9.202" transform="translate(39.588 35.258) rotate(-7.867)"/><ellipse class="aw" cx="11.686" cy="8.544" rx="11.686" ry="8.544" transform="translate(40.568 35.786) rotate(-7.867)"/><ellipse class="aw" cx="10.787" cy="7.887" rx="10.787" ry="7.887" transform="matrix(0.991, -0.137, 0.137, 0.991, 41.548, 36.314)"/><ellipse class="aw" cx="9.888" cy="7.23" rx="9.888" ry="7.23" transform="translate(42.529 36.842) rotate(-7.867)"/><ellipse class="ax" cx="8.989" cy="6.573" rx="8.989" ry="6.573" transform="translate(43.509 37.37) rotate(-7.867)"/><ellipse class="ax" cx="8.09" cy="5.915" rx="8.09" ry="5.915" transform="translate(44.49 37.898) rotate(-7.867)"/><ellipse class="ax" cx="7.191" cy="5.258" rx="7.191" ry="5.258" transform="matrix(0.991, -0.137, 0.137, 0.991, 45.47, 38.426)"/><ellipse class="ax" cx="6.292" cy="4.601" rx="6.292" ry="4.601" transform="matrix(0.991, -0.137, 0.137, 0.991, 46.451, 38.954)"/><ellipse class="ax" cx="5.394" cy="3.944" rx="5.394" ry="3.944" transform="translate(47.431 39.482) rotate(-7.867)"/><path class="ax" d="M1252.922,1916.337c-2.459.34-4.654-.842-4.9-2.641s1.544-3.531,4-3.871,4.654.843,4.9,2.64S1255.381,1916,1252.922,1916.337Z" transform="translate(-1199.159 -1870.431)"/><ellipse class="ax" cx="3.596" cy="2.629" rx="3.596" ry="2.629" transform="matrix(0.991, -0.137, 0.137, 0.991, 49.392, 40.538)"/><ellipse class="ax" cx="2.697" cy="1.972" rx="2.697" ry="1.972" transform="matrix(0.991, -0.137, 0.137, 0.991, 50.372, 41.067)"/><path class="ax" d="M1261.986,1921.295a1.614,1.614,0,0,1-1.961-1.056c-.1-.719.617-1.412,1.6-1.548a1.614,1.614,0,0,1,1.961,1.056C1263.686,1920.466,1262.97,1921.159,1261.986,1921.295Z" transform="translate(-1208.493 -1877.342)"/><path class="ax" d="M1265.008,1922.947a.807.807,0,0,1-.981-.528c-.05-.36.309-.706.8-.774a.807.807,0,0,1,.981.528C1265.858,1922.533,1265.5,1922.879,1265.008,1922.947Z" transform="translate(-1211.604 -1879.646)"/></g></g><path class="z" d="M1253.7,1764.584a34.641,34.641,0,0,1,2.309,4.014,27.607,27.607,0,0,1,2.845,12.043,11.6,11.6,0,0,1-1.66,6.272,5.381,5.381,0,0,1-1.441,1.873,4.779,4.779,0,0,0,1.07-.778,10.614,10.614,0,0,0,2.323-3.564c1.562-3.988,1.055-8.41-.27-12.387a35.979,35.979,0,0,0-9.806-15.285c-3.063-2.862-6.871-5.166-11.147-5.408a10.609,10.609,0,0,0-4.208.625,4.788,4.788,0,0,0-1.153.649,5.381,5.381,0,0,1,2.3-.529,11.6,11.6,0,0,1,6.393,1.105,27.613,27.613,0,0,1,9.761,7.607,34.652,34.652,0,0,1,2.686,3.772Z" transform="translate(-1187.175 -1747.263)"/><path class="ay" d="M1237.633,1775.221c2.457-3.692,2.441-8.463,1.744-12.654-.143-.858-.334-1.708-.559-2.547a43.7,43.7,0,0,0-13.827-21.553c-.669-.555-1.362-1.083-2.082-1.57-3.519-2.38-7.849-4.384-12.229-3.69a10.065,10.065,0,0,0-5.669,3.011s-4.922,4.69-1.773,17.045c0,0,.915,4.053,5.052,11.13,4.708,6.71,8.011,9.231,8.011,9.231,9.918,8.013,16.233,5.495,16.233,5.495A10.063,10.063,0,0,0,1237.633,1775.221Zm-17.689-2.445a41.643,41.643,0,0,1-9.5-9.765l0,0,0-.007,0,0a41.646,41.646,0,0,1-4.916-12.706c-1.305-10.528,4.6-12.512,4.6-12.512,6.444-2.352,12.608,2.559,12.608,2.559,4.391,2.92,8.63,9.238,8.63,9.238s3.975,6.487,4.8,11.7c0,0,1.895,7.65-2.929,12.527C1233.234,1773.812,1228.969,1778.351,1219.944,1772.776Z" transform="translate(-1163.582 -1733.067)"/><path class="az" d="M1296.794,1821.812a.688.688,0,0,0,.105-.5c0-.056-.009-.109-.016-.16,0-.015,0-.029-.007-.043s0-.032-.007-.048-.01-.04-.015-.06-.008-.035-.013-.052,0-.014-.005-.021q-.014-.046-.031-.089l-.008-.02-.007-.016c0-.011-.009-.023-.014-.033s-.019-.04-.03-.06l-.021-.038-.014-.023c-.01-.016-.02-.032-.031-.048s-.03-.041-.046-.062l0,0-.011-.013c-.02-.024-.04-.048-.063-.073s-.03-.03-.045-.045l-.039-.039c-.048-.046-.1-.093-.157-.141h0l0,0c-.058-.048-.122-.1-.19-.146l-.045-.033q-.1-.074-.223-.151l-.042-.027c-.075-.047-.153-.1-.236-.145l-.045-.027c-.092-.054-.19-.11-.292-.166l-.069-.037c-.107-.058-.218-.117-.335-.178l-.219-.11-.024-.012-.085-.041-.064-.031-.112-.052-.057-.026-.111-.049-.049-.021-.126-.052-.025-.01-.141-.055-.046-.016-.086-.03-.055-.018-.068-.021-.054-.015-.048-.013-.01,0c-.044-.011-.086-.021-.126-.028l-.013,0c-.034-.006-.067-.011-.1-.014l-.014,0h-.016a.892.892,0,0,0-.105,0h-.012a.532.532,0,0,0-.075.01h0a.411.411,0,0,0-.057.017.268.268,0,0,0-.043.021l-.783.5-.008,0a.253.253,0,0,1,.049-.025h0a.394.394,0,0,1,.058-.017.541.541,0,0,1,.076-.01h.013a.77.77,0,0,1,.1,0l.03,0c.03,0,.061.008.093.014l.019,0c.033.006.068.015.1.023l-.7.447.008,0,.695-.443.018,0,.065.017.047.013.077.024.046.015.094.033.038.014.141.055.027.011.123.051.058.025.1.045.069.032.1.047.076.037.1.047c.072.035.145.072.221.111.117.06.227.118.333.176l.073.04q.152.083.289.164l.05.03c.08.048.157.1.229.141l.047.03c.079.051.152.1.221.15l.047.034c.067.049.131.1.188.144l.005,0c.058.048.11.095.158.141l.038.038c.04.04.077.08.109.118l.011.013a1.032,1.032,0,0,1,.1.139,1.1,1.1,0,0,1,.065.131l.007.016a1.252,1.252,0,0,1,.044.13c0,.017.009.034.013.051.008.035.016.071.022.109,0,.014,0,.028.007.043.007.052.013.105.015.161a.685.685,0,0,1-.1.5.186.186,0,0,1-.03.024l.783-.5A.191.191,0,0,0,1296.794,1821.812Z" transform="translate(-1233.292 -1799.556)"/><path class="ba" d="M1296.241,1832.149c-.023.01-.046.019-.07.028a.952.952,0,0,1-.135.041c-.034.007-.07.013-.106.018l-.033,0-.078.006h-.131l-.078,0-.059-.005c-.062-.006-.126-.015-.192-.027l-.042-.008q-.085-.016-.175-.039l-.049-.012c-.079-.021-.16-.045-.244-.072l-.049-.016c-.082-.027-.165-.057-.252-.091l-.024-.009c-.092-.036-.187-.076-.285-.119l-.064-.028c-.1-.044-.2-.09-.3-.141l-.205-.1c-.137-.07-.269-.143-.4-.216l-.071-.04q-.184-.107-.357-.217l-.067-.043c-.118-.077-.232-.154-.341-.234l-.012-.009c-.107-.078-.209-.157-.308-.238l-.054-.044q-.142-.118-.273-.24l-.052-.049c-.089-.085-.175-.17-.256-.257l-.022-.024c-.045-.049-.089-.1-.131-.147l-.049-.059c-.03-.037-.061-.073-.09-.11q-.09-.114-.171-.23l-.041-.061c-.035-.051-.068-.1-.1-.155l-.05-.083c-.025-.043-.05-.086-.074-.13s-.05-.09-.073-.136l-.783.5.046.089c.008.016.018.031.026.047q.036.066.075.132c.009.016.018.032.028.048s.014.021.021.032c.032.052.066.1.1.155l.031.049.01.013c.054.078.111.155.171.23l.012.016c.025.032.052.063.078.094l.048.059c.047.054.094.108.144.161l.008.009h0l0,0c.08.087.166.171.254.255l.051.049q.132.122.274.24l.019.017.034.027c.1.081.2.161.309.239l.011.008c.109.079.224.157.341.233l.067.044q.173.11.356.217l.071.041c.129.073.261.146.4.216l.193.1.01,0c.1.051.2.1.3.142l.062.028c.1.043.193.083.285.119l.024.009c.086.033.17.063.251.091l.05.017q.126.041.243.072l.019.005.031.007q.09.023.174.039l.042.008c.066.012.13.021.192.027l.013,0,.046,0,.078,0h.15l.056-.005.036,0c.036,0,.071-.01.1-.017h0a.991.991,0,0,0,.136-.04l.016,0,.054-.023a.793.793,0,0,0,.075-.04l.019-.011.783-.5A.883.883,0,0,1,1296.241,1832.149Z" transform="translate(-1231.699 -1807.448)"/><path class="az" d="M1269.849,1806.669a.935.935,0,0,0-.016-.129s0,0,0-.007a.981.981,0,0,0-.025-.1l0-.006,0-.014c-.007-.021-.013-.041-.021-.062s-.011-.027-.017-.04l-.009-.021-.007-.017c-.012-.026-.025-.052-.039-.079l-.009-.016-.014-.025-.025-.044c-.01-.017-.022-.034-.033-.051l-.02-.031-.01-.016c-.016-.022-.033-.045-.05-.068l-.035-.047-.006-.008-.021-.025c-.035-.043-.073-.087-.113-.131l-.02-.023-.077-.08c-.046-.046-.094-.092-.144-.138l-.054-.047c-.033-.029-.066-.058-.1-.087l0,0c-.074-.061-.154-.122-.237-.182l-.06-.043c-.084-.06-.172-.12-.265-.179l0,0c-.094-.06-.194-.12-.3-.178l-.075-.043c-.1-.059-.212-.117-.325-.176l-1.134-.582-.138-.069-.073-.035-.044-.021-.192-.089-.032-.014-.161-.069-.026-.011c-.057-.023-.11-.044-.161-.062l-.029-.01c-.048-.017-.095-.033-.138-.047l-.01,0-.1-.028-.023-.005-.042-.009-.077-.015-.038-.006-.023,0c-.023,0-.046,0-.067,0h-.023a.333.333,0,0,0-.058.008l-.01,0-.012,0-.026.008-.017.011h0l.017-.011a.324.324,0,0,0-.042.021l-.006,0-.783.5a.276.276,0,0,1,.074-.032l.012,0a.4.4,0,0,1,.091-.011c.027,0,.058,0,.09.007l.037.005.077.015.043.01c.038.01.078.02.121.033l.016,0c.041.013.085.028.13.044l.035.012c.05.019.1.039.157.061l.034.014.151.065.038.017.188.087.048.023.209.1,1.134.582c.113.058.22.116.324.175l.078.044c.1.058.2.117.294.177l.009.005c.091.058.176.117.259.175l.062.045c.083.06.163.121.237.182.037.03.072.061.107.092l.051.044c.05.046.1.092.144.138s.065.068.1.1.078.088.113.131l.028.034.035.047c.021.028.042.056.061.084l.02.031q.031.048.057.094l.014.025q.031.056.055.111l.009.021q.022.052.038.1l0,.014a1.054,1.054,0,0,1,.028.112.872.872,0,0,1,.016.129.4.4,0,0,1-.155.386l.783-.5A.4.4,0,0,0,1269.849,1806.669Z" transform="translate(-1211.774 -1787.741)"/><path class="bb" d="M1263.786,1801.386a.931.931,0,0,1-.1.047l-.034.014a1.142,1.142,0,0,1-.152.045l-.076.014-.04.007c-.041.006-.083.009-.126.012s-.1,0-.16,0l-.052,0c-.038,0-.077,0-.118-.007s-.085-.008-.129-.013c-.077-.01-.155-.023-.234-.038l-.081-.017c-.053-.011-.107-.023-.161-.037l-.091-.024c-.059-.016-.12-.033-.18-.052l-.09-.029c-.071-.023-.142-.049-.215-.076l-.059-.021c-.092-.035-.185-.074-.28-.115l-.076-.034c-.071-.032-.143-.065-.216-.1s-.126-.061-.19-.094l-.933-.479q-.229-.12-.443-.245c-.047-.027-.091-.056-.137-.084-.094-.057-.188-.113-.277-.171-.053-.035-.1-.07-.155-.106-.078-.052-.156-.1-.23-.158-.054-.039-.1-.08-.156-.12s-.135-.1-.2-.154-.1-.083-.144-.124-.126-.108-.185-.163-.089-.087-.134-.131-.113-.11-.166-.166c-.076-.08-.149-.161-.218-.243l-.036-.044c-.076-.092-.15-.185-.219-.281s-.124-.18-.182-.272c-.012-.019-.025-.037-.037-.057q-.088-.145-.167-.3c-.015-.029-.029-.059-.044-.088q-.055-.11-.1-.223c-.018-.041-.035-.083-.052-.124-.026-.064-.05-.129-.074-.194s-.041-.116-.06-.176c-.027-.084-.053-.168-.075-.255,0-.019-.01-.036-.015-.055-.029-.113-.053-.228-.075-.344l-.01-.058c-.02-.116-.038-.233-.051-.351,0-.014,0-.029,0-.043-.014-.126-.024-.253-.03-.382q-.073-1.55.629-2l-.783.5q-.7.448-.629,2c.006.129.017.256.03.381,0,.015,0,.03,0,.045.014.119.031.236.052.351,0,.019.006.038.01.057s.007.041.011.061q.028.144.064.284l.015.055c.016.059.031.118.048.176.008.027.019.053.027.079.019.059.039.117.06.174.012.035.023.071.036.1s.026.06.038.09.034.082.052.123.022.055.035.082c.022.048.047.095.07.142.014.029.028.058.043.087.006.011.011.023.017.034q.068.127.142.25l.008.012c.012.019.025.038.037.057.039.062.077.123.119.183l.063.089q.069.1.143.189c.024.031.05.061.075.091l.037.044c.059.07.12.139.183.208l.034.034c.053.057.11.112.167.167s.087.087.133.13.125.111.19.167c.039.033.075.068.115.1l.025.019c.066.054.135.106.2.159.051.039.1.078.152.116.074.054.153.106.23.159.052.035.1.071.155.106.088.057.181.113.274.169.047.028.092.058.14.086q.214.125.443.245l.933.479.147.073.044.02c.072.035.144.068.215.1l.077.035c.094.041.188.079.279.115l.059.022c.072.027.144.052.215.076l.089.028c.062.019.124.037.184.053l.052.015.034.008q.084.021.166.038l.078.017c.079.015.158.028.234.038l.1.012h.026c.04,0,.078.006.116.007l.054,0c.055,0,.108,0,.159,0h0c.043,0,.085-.006.125-.012l.039-.007.071-.012.006,0a1.138,1.138,0,0,0,.152-.045l.015,0,.019-.01a.886.886,0,0,0,.1-.047l.02-.01.019-.012.783-.5C1263.813,1801.372,1263.8,1801.378,1263.786,1801.386Z" transform="translate(-1205.005 -1779.829)"/><path class="ay" d="M1272.938,1801.787a5.43,5.43,0,0,0-.924-2.946,7.085,7.085,0,0,0-2.625-2.107q-2.16-1.108-2.874-.277a5.562,5.562,0,0,0-1.264-1.574,8.6,8.6,0,0,0-1.849-1.288c-.655-.336-1-.511-1.037-.523q-1.765-.879-2.587-.489t-.743,2.06a5.293,5.293,0,0,0,.981,2.919,7.567,7.567,0,0,0,2.7,2.188l.933.479a5.817,5.817,0,0,0,1.874.638,1.293,1.293,0,0,0,1.185-.276,6.477,6.477,0,0,0,2.989,2.723q1.82.933,2.572.58T1272.938,1801.787Zm-9.174-3.776-1.111-.57a6.645,6.645,0,0,1-1.424-.9,1.4,1.4,0,0,1-.426-1q-.029-.622.35-.623a3.892,3.892,0,0,1,1.376.5l1.134.581a6.142,6.142,0,0,1,1.564,1.078,1.682,1.682,0,0,1,.575,1.038Q1265.846,1799.079,1263.764,1798.011Zm6.918,3.443a7.928,7.928,0,0,1-1.279-.559,9.587,9.587,0,0,1-1.357-.815,2.835,2.835,0,0,1-.678-.661,1.183,1.183,0,0,1-.2-.605l.008,0c-.01-.221.038-.366.146-.436q.365-.237,1.946.574a4.878,4.878,0,0,1,1.894,1.362,1.385,1.385,0,0,1,.173.64.688.688,0,0,1-.105.5C1271.146,1801.532,1270.965,1801.534,1270.682,1801.454Z" transform="translate(-1207.726 -1779.194)"/><path class="az" d="M1294.974,1854.571a1.524,1.524,0,0,0-.023-.192c0-.008,0-.016,0-.024s-.006-.022-.008-.033-.01-.042-.016-.063-.005-.023-.009-.035-.01-.031-.016-.046l-.011-.032c0-.006,0-.012-.006-.018q-.015-.041-.034-.081l-.006-.012-.009-.019c-.007-.014-.014-.029-.021-.043s-.024-.043-.037-.065l0-.006v0c-.015-.026-.032-.051-.049-.076l-.019-.026-.023-.031-.02-.027c-.011-.014-.023-.027-.035-.041l-.042-.049-.014-.016c-.025-.027-.052-.054-.079-.08-.045-.043-.1-.088-.149-.132l-.016-.014-.067-.052-.042-.034c-.046-.035-.094-.071-.145-.107l-.016-.011c-.046-.032-.095-.065-.145-.1l-.059-.038-.118-.075-.071-.043-.124-.073-.075-.043-.145-.08-.067-.037-.227-.119-1.211-.621c-.088-.045-.173-.088-.255-.128l-.009,0-.026-.013-.2-.094-.049-.023-.2-.087-.037-.016-.155-.063-.036-.014c-.055-.021-.108-.04-.157-.057l-.037-.012c-.043-.014-.085-.027-.125-.037l-.021-.006-.006,0c-.044-.011-.084-.02-.122-.027l-.029,0-.06-.009-.037,0a.536.536,0,0,0-.059,0h0l-.052.007-.012,0h0l-.024.007-.029.009h0l-.018.009c-.009,0-.018.008-.027.013l-.007,0-.783.5a.244.244,0,0,1,.033-.017l.018-.009a.238.238,0,0,1,.03-.01l.024-.007.012,0,.052-.007a.564.564,0,0,1,.063,0,.924.924,0,0,1,.1.011l.029,0c.04.007.082.017.128.029l.021.006q.059.016.125.037l.037.012c.05.017.1.035.157.056l.038.015c.049.019.1.04.154.063l.038.016c.063.027.128.056.2.087l.047.021.206.1.018.009.266.133,1.211.622.227.119.065.036.148.082.072.041.128.076.068.041.123.078.055.035c.053.035.1.069.153.1l.01.007c.052.036.1.072.146.108l.041.033.083.067c.053.045.1.089.149.132s.064.065.094.1l.04.047c.019.023.038.046.056.069l.023.03c.025.034.048.069.069.1l0,.007c.021.035.04.071.058.107l.01.02c.017.036.032.073.046.111l.011.034c.009.026.017.053.024.08s.011.043.016.065.007.037.011.055a1.456,1.456,0,0,1,.023.193c.012.258-.044.426-.168.5l.783-.5C1294.929,1855,1294.986,1854.829,1294.974,1854.571Z" transform="translate(-1231.186 -1824.945)"/><path class="au" d="M1281.857,1844.158c-.012-.027-.023-.054-.034-.082l-.028-.075c-.016-.044-.031-.089-.046-.136-.008-.026-.016-.051-.024-.077s-.015-.053-.022-.079-.018-.068-.026-.1-.012-.055-.018-.083-.015-.075-.022-.113l-.014-.077c-.007-.04-.012-.081-.018-.122l-.011-.078c-.005-.045-.01-.092-.015-.139,0-.023,0-.046-.007-.069-.006-.071-.011-.143-.014-.216q-.056-1.192.5-1.549l-.783.5q-.559.356-.5,1.549c0,.074.008.146.014.217,0,.022,0,.044.006.066,0,.048.01.1.015.142,0,.026.007.051.01.077q.008.062.019.123c0,.026.009.052.014.078s.006.039.01.057.008.036.012.053.012.057.019.084.017.069.026.1.014.053.021.078.006.023.009.034.01.029.015.044c.015.046.03.091.046.135,0,.013.009.028.014.041l.015.035c.011.027.023.055.034.081s.013.032.02.048.021.045.032.067l.783-.5C1281.89,1844.236,1281.873,1844.2,1281.857,1844.158Z" transform="translate(-1224.609 -1817.011)"/><path class="az" d="M1268.583,1840.717l-.255-.127-.032-.016-.043-.021-.21-.1-.056-.026-.22-.1-.031-.013-.169-.071-.053-.021c-.057-.022-.111-.043-.162-.061l-.011,0c-.053-.019-.1-.034-.149-.048l-.038-.011-.042-.012-.062-.015-.024-.005c-.033-.007-.064-.012-.092-.015h-.019a.492.492,0,0,0-.133.008h0a.373.373,0,0,0-.052.015h0a.32.32,0,0,0-.042.021l-.108.069-.681.434a.262.262,0,0,1,.047-.024h0a.33.33,0,0,1,.054-.016.46.46,0,0,1,.063-.008.506.506,0,0,1,.069,0,.945.945,0,0,1,.111.016l.026.006c.032.007.066.015.1.025l.039.011c.047.014.1.029.149.048l.01,0c.051.018.107.039.164.062l.052.021.169.071.031.013c.069.03.142.063.218.1l.063.029.2.093.059.028.281.14.286.147.783-.5Z" transform="translate(-1213.06 -1816.149)"/><path class="bb" d="M1271.33,1840.8a.977.977,0,0,1-.1.051l-.048.019a1.157,1.157,0,0,1-.112.034l-.046.011a1.325,1.325,0,0,1-.178.024c-.045,0-.092,0-.14,0l-.035,0-.11-.009-.091-.013-.084-.014-.1-.021c-.038-.009-.075-.017-.114-.028-.069-.019-.141-.041-.215-.064l-.073-.024-.157-.053-.091-.033-.155-.058-.1-.039-.165-.067-.1-.042-.191-.083-.088-.039c-.094-.043-.191-.087-.291-.134l-.06-.029-.243-.118c-.124-.061-.251-.125-.382-.192l-5.423-2.782c-.109-.056-.215-.112-.319-.168l-.1-.055-.208-.115-.111-.063-.192-.112-.1-.06-.225-.139-.051-.032c-.089-.057-.175-.113-.259-.17l-.08-.054c-.058-.04-.116-.08-.172-.12l-.089-.064-.154-.115-.081-.062c-.057-.045-.113-.089-.168-.134l-.053-.043-.089-.075-.095-.081-.08-.073-.092-.084-.075-.073-.087-.084-.069-.072c-.028-.029-.056-.057-.083-.086l-.075-.084c-.022-.025-.046-.05-.067-.075s-.056-.068-.084-.1l-.049-.06c-.079-.1-.152-.2-.222-.3-.017-.025-.033-.051-.049-.075-.05-.077-.1-.155-.145-.234l-.05-.088q-.071-.129-.135-.262c-.009-.018-.018-.036-.026-.053q-.074-.16-.136-.325c-.016-.042-.029-.085-.044-.128-.027-.078-.054-.156-.077-.236-.007-.022-.012-.044-.018-.066-.03-.108-.057-.217-.079-.328l0-.016c-.017-.086-.029-.173-.042-.261-.006-.043-.015-.086-.021-.13-.016-.132-.027-.266-.033-.4q-.071-1.516.575-1.927l-.783.5q-.645.411-.575,1.927.01.2.034.4c.006.05.016.1.023.147.012.08.022.161.038.239v.005c0,.005,0,.01,0,.015.022.111.049.22.079.328.006.022.012.045.019.067s.009.035.014.052c.019.062.042.122.062.183.015.043.028.086.044.128,0,.008.005.016.008.025.037.1.076.189.118.282l.009.017c.009.019.019.038.029.058.029.061.058.121.089.181.014.026.029.05.043.075l.052.091c.016.027.03.055.047.082.031.051.064.1.1.15.017.026.033.052.05.077l.018.028q.1.14.2.277l0,0,.049.059c.027.033.054.066.082.1l.069.077.073.083,0,.005.076.078.072.074.081.079.082.079.082.074.091.082c.028.025.057.049.086.073l.1.083.01.008.042.033q.083.068.169.135l.08.061.156.116.087.063c.057.041.116.082.176.122l.075.051c.085.057.172.115.262.172l.04.025q.117.073.238.147l.094.056.2.117.1.059.215.119.1.052c.1.056.211.112.32.168l5.424,2.782c.131.067.258.13.382.192l.027.014.216.1.06.029c.1.047.2.092.291.134l.087.039.192.084.1.042.166.068.1.039.155.059.091.033.158.054.072.024c.074.023.146.045.215.064l.05.014.064.014.1.021.086.014.09.013.029,0c.028,0,.055,0,.082,0l.035,0c.046,0,.091,0,.134,0h.009l.022,0c.038,0,.075-.007.111-.013l.034-.006.024,0,.031-.009a1.137,1.137,0,0,0,.112-.034l.026-.008.021-.01a.991.991,0,0,0,.1-.051c.009-.005.019-.009.029-.014l.022-.014.783-.5C1271.365,1840.781,1271.347,1840.789,1271.33,1840.8Z" transform="translate(-1206.348 -1808.191)"/><path class="ay" d="M1274.25,1840.12a2.567,2.567,0,0,0,.4-1.925,5.275,5.275,0,0,0-.817-2.649,8.739,8.739,0,0,0-3.448-2.728l-.494-.254a5.755,5.755,0,0,0-2.985-.9q-.966.137-.892,1.687a3.949,3.949,0,0,0,.351,1.565l-2.029-1.04a7.736,7.736,0,0,1-1.2-.694q-.185-.171-.38-.39a1.2,1.2,0,0,1-.22-.742c-.016-.348.113-.512.387-.494a5.966,5.966,0,0,1,1.668.666l.286.146-.1-2.2-.741-.38q-1.828-.93-2.587-.579t-.682,1.986a4.95,4.95,0,0,0,1.081,2.907,10,10,0,0,0,3.31,2.454l5.424,2.782a13.008,13.008,0,0,0,2.312.977A1.352,1.352,0,0,0,1274.25,1840.12Zm-1.8-2.281a4.263,4.263,0,0,1-1.434-.535l-2.576-1.321a1.612,1.612,0,0,1-.71-1.325q-.028-.592.4-.57a4.849,4.849,0,0,1,1.556.6l1.211.621a6.4,6.4,0,0,1,1.468.957,1.467,1.467,0,0,1,.485,1.018Q1272.884,1837.86,1272.453,1837.838Z" transform="translate(-1209.069 -1807.655)"/></svg>