<svg xmlns="http://www.w3.org/2000/svg" xmlns:xlink="http://www.w3.org/1999/xlink" width="53.138" height="46.917" viewBox="0 0 53.138 46.917"><defs><style>.a{fill:none;}.b{fill:#dedede;}.c{clip-path:url(#a);}.d{fill:#999;}.e{fill:#9c9c9c;}.f{fill:#9e9e9e;}.g{fill:#a0a0a0;}.h{fill:#a3a3a3;}.i{fill:#a5a5a5;}.j{fill:#a7a7a7;}.k{fill:#a9a9a9;}.l{fill:#acacac;}.m{fill:#aeaeae;}.n{fill:#b0b0b0;}.o{fill:#b2b2b2;}.p{fill:#b4b4b4;}.q{fill:#b6b6b6;}.r{fill:#b7b7b7;}.s{fill:#b9b9b9;}.t{fill:#bbb;}.u{fill:#bdbdbd;}.v{fill:#bebebe;}.w{fill:silver;}.x{fill:#c1c1c1;}.y{fill:#c3c3c3;}.z{fill:#c4c4c4;}.aa{fill:#c6c6c6;}.ab{fill:#c7c7c7;}.ac{fill:#c9c9c9;}.ad{fill:#cacaca;}.ae{fill:#cbcbcb;}.af{fill:#ccc;}.ag{fill:#cdcdcd;}.ah{fill:#cfcfcf;}.ai{fill:#d0d0d0;}.aj{fill:#d1d1d1;}.ak{fill:#d2d2d2;}.al{fill:#d3d3d3;}.am{fill:#d4d4d4;}.an{fill:#d5d5d5;}.ao{fill:#d6d6d6;}.ap{fill:#d7d7d7;}.aq{fill:#d8d8d8;}.ar{fill:#d9d9d9;}.as{fill:#dadada;}.at{fill:#dbdbdb;}.au{fill:#dcdcdc;}.av{fill:#ddd;}.aw{fill:#dfdfdf;}.ax{fill:#e0e0e0;}.ay{fill:red;}.az{fill:#c5c5c5;}.ba{fill:#b8b8b8;}.bb{fill:#a8a8a8;}</style><clipPath id="a"><path class="a" d="M1354.842,1574.623a27.644,27.644,0,0,0,2.51-10.3,12.888,12.888,0,0,0-1.756-7.889,23.578,23.578,0,0,0-3.05-3.141c-5.557-4.949-13.935-8.71-13.935-8.71-7.674-3.633-17.692-4.123-17.692-4.123a7,7,0,0,1,4.217,1.478s3.878,2.712,3.006,11.545a29.585,29.585,0,0,1-6.855,15.381c-5.986,6.554-10.6,5.482-10.6,5.482a7.006,7.006,0,0,1-3.918-2.148s7.062,7.122,14.894,10.4c0,0,8.4,3.715,15.794,4.539a23.581,23.581,0,0,0,4.376.168,12.888,12.888,0,0,0,7.041-3.968,27.641,27.641,0,0,0,5.982-8.754Z" transform="translate(-1306.773 -1540.459)"/></clipPath></defs><path class="b" d="M1324.62,1561.957a28.986,28.986,0,0,1-2.052,9.259v0l0,.005v0a28.984,28.984,0,0,1-5.514,7.716c-5.627,4.783-9.037,2.106-9.037,2.106-3.831-2.851-3.329-8.314-3.329-8.314.021-3.671,2.077-8.552,2.077-8.552s2.255-4.792,4.971-7.262c0,0,3.727-4.026,8.408-3.083C1320.144,1553.828,1324.415,1554.575,1324.62,1561.957Z" transform="translate(-1302.608 -1550.73)"/><g transform="translate(2.529 0)"><g class="c"><rect class="d" width="42.009" height="44.917" transform="matrix(0.407, -0.913, 0.913, 0.407, -1.478, 35.055)"/><path class="d" d="M1341.875,1535.353l13.359,5.954,4.04,1.8-15.82,35.5.465.207q-.807.21-1.634.372a31.1,31.1,0,0,1-6.85.548l.34-.763-32.2-14.353-.052.117q-.8-.788-1.579-1.616-.39-.413-.774-.837l.04.018,16.758-37.6Z" transform="translate(-1302.418 -1528.218)"/><path class="e" d="M1340.245,1535.275l13.171,5.87,4.4,1.963-15.661,35.14.038.017q-.8.207-1.611.367a30.657,30.657,0,0,1-6.754.54l.157-.352-27.958-12.461-.437.98a59.721,59.721,0,0,1-6.3-6.218l.819.365,16.4-36.79Z" transform="translate(-1300.963 -1528.218)"/><path class="f" d="M1341.267,1535.2l12.983,5.786,4.767,2.125-15.077,33.828.736.328a26.5,26.5,0,0,1-3.139.816,30.229,30.229,0,0,1-6.657.533q-.857-.024-1.724-.092l.225-.506-26.086-11.626-.25.56a58.828,58.828,0,0,1-6.21-6.129l.644.287,16.228-36.411Z" transform="translate(-1302.161 -1528.218)"/><path class="g" d="M1342.289,1535.119l12.794,5.7,5.131,2.287-14.925,33.486.293.13a26.157,26.157,0,0,1-3.094.8,29.8,29.8,0,0,1-6.561.525q-1.69-.047-3.416-.268l.257-.577-24.21-10.79-.062.14a57.983,57.983,0,0,1-6.12-6.04l.468.209L1318.9,1524.7Z" transform="translate(-1303.358 -1528.218)"/><path class="h" d="M1343.311,1535.041l12.606,5.618,5.494,2.449-14.331,32.155.876.39q-.723.289-1.467.532a25.777,25.777,0,0,1-3.048.792,32.234,32.234,0,0,1-13.25-.351l.409-.918-17.156-7.646-.283.634q-1.633-1.188-3.213-2.528a57.117,57.117,0,0,1-6.03-5.951l.293.13,15.89-35.652Z" transform="translate(-1304.556 -1528.218)"/><path class="i" d="M1344.333,1534.963l12.418,5.535,5.768,2.571.157-.352q.2.885.352,1.765l-.861-.384-13.744,30.838.417.186q-.712.285-1.445.524a25.428,25.428,0,0,1-3,.781,31.753,31.753,0,0,1-13.052-.346l.214-.48-13.364-5.957-.362.813a54.507,54.507,0,0,1-12.368-10.541l.117.052L1321.3,1524.7Z" transform="translate(-1305.753 -1528.218)"/><path class="j" d="M1342.978,1534.884l12.23,5.451,5.681,2.532.085-.191q.193.871.347,1.738l-.4-.176-13.082,29.352.887.4a24.141,24.141,0,0,1-5.763,1.89,31.271,31.271,0,0,1-12.854-.34l.019-.042-13.162-5.866-.165.37a53.686,53.686,0,0,1-12.18-10.381q-.347-.4-.684-.8l.809.36,15.369-34.483Z" transform="translate(-1304.574 -1528.218)"/><path class="k" d="M1344.036,1534.806l12.042,5.367,5.594,2.493.014-.031q.19.858.341,1.711t.263,1.7l-.782-.349-12.293,27.581.414.184a23.777,23.777,0,0,1-5.674,1.861,30.79,30.79,0,0,1-12.656-.335,43.2,43.2,0,0,1-13.1-5.453,52.854,52.854,0,0,1-11.993-10.221q-.341-.39-.673-.784l.62.276,15.2-34.11Z" transform="translate(-1305.808 -1528.218)"/><path class="l" d="M1345.1,1534.728l11.854,5.283,5.028,2.241.224-.5q.1.423.2.846.187.844.336,1.684t.26,1.673l-.3-.135-11.635,26.106.773.344q-.637.359-1.3.673a23.413,23.413,0,0,1-5.585,1.832,30.31,30.31,0,0,1-12.459-.33c-8.623-1.937-17.539-7.234-24.7-15.429q-.336-.384-.663-.772l.431.192,15.036-33.737Z" transform="translate(-1307.042 -1528.218)"/><path class="m" d="M1346.154,1534.65l11.666,5.2,4.461,1.988.423-.949a38.937,38.937,0,0,1,1.172,6.6l-.582-.259-10.873,24.4.286.127q-.627.353-1.276.663a23.016,23.016,0,0,1-5.5,1.8,29.824,29.824,0,0,1-12.261-.325c-8.486-1.907-17.26-7.119-24.312-15.185q-.33-.378-.652-.76l.243.108,14.87-33.364Z" transform="translate(-1308.276 -1528.218)"/><path class="n" d="M1345.043,1534.572l11.477,5.115,4.389,1.956.343-.768a38.329,38.329,0,0,1,1.153,6.5l-.091-.04-10.223,22.938.537.239a20.989,20.989,0,0,1-2.467,1.389,22.654,22.654,0,0,1-5.408,1.774,29.342,29.342,0,0,1-12.063-.319c-8.349-1.876-16.982-7-23.92-14.94q-.651-.744-1.266-1.5l.855.381,14.527-32.593Z" transform="translate(-1307.341 -1528.218)"/><path class="o" d="M1346.138,1534.493l11.289,5.032,4.317,1.924.262-.588a37.686,37.686,0,0,1,1.134,6.39q.137,1.572.127,3.107l-.861-.384-8.921,20.016.039.017a20.683,20.683,0,0,1-2.427,1.366,22.281,22.281,0,0,1-5.32,1.745,28.868,28.868,0,0,1-11.865-.314c-8.212-1.845-16.7-6.89-23.528-14.695q-.64-.732-1.245-1.478l.653.291,14.363-32.227Z" transform="translate(-1308.61 -1528.218)"/><path class="p" d="M1347.231,1534.415l11.1,4.948,4.245,1.892.182-.407a37.091,37.091,0,0,1,1.115,6.283q.135,1.546.125,3.056l-.35-.156-7.785,17.468.756.337c-5.612,4.907-13.413,6.237-21.488,4.423s-16.425-6.774-23.136-14.45q-.629-.719-1.224-1.453l.452.2,14.2-31.86Z" transform="translate(-1309.879 -1528.218)"/><path class="q" d="M1348.326,1534.337l10.913,4.864,4.173,1.86.1-.227a36.442,36.442,0,0,1,1.1,6.177,30.654,30.654,0,0,1-.04,5.921l-.787-.35-6.541,14.677.238.106c-5.517,4.823-13.186,6.132-21.124,4.348s-16.147-6.66-22.743-14.205q-.618-.707-1.2-1.429l.25.111,14.037-31.494Z" transform="translate(-1311.149 -1528.218)"/><path class="r" d="M1349.42,1534.259l10.724,4.78,4.1,1.828.021-.047a35.811,35.811,0,0,1,1.077,6.07,30.128,30.128,0,0,1-.039,5.819l-.258-.115-5.412,12.143.589.262a19.392,19.392,0,0,1-1.886,1.894c-10.844,9.481-30.145,5.144-43.111-9.687q-.608-.695-1.182-1.4l.048.021,13.873-31.127Z" transform="translate(-1312.419 -1528.218)"/><path class="s" d="M1348.579,1534.181l10.537,4.7,3.106,1.384.43-.964q.234.755.434,1.509a35.206,35.206,0,0,1,1.058,5.964,26.941,26.941,0,0,1-1.189,11.015l-.74-.33-2.126,4.77.59.263a19.117,19.117,0,0,1-3.419,3.935c-10.653,9.314-29.616,5.053-42.354-9.517q-.6-.683-1.162-1.38-.283-.348-.557-.7l.57.254L1327.3,1524.7Z" transform="translate(-1311.753 -1528.218)"/><path class="t" d="M1349.707,1534.1l10.349,4.612,3.051,1.36.34-.764q.23.742.426,1.482a34.562,34.562,0,0,1,1.039,5.857,26.459,26.459,0,0,1-1.167,10.818,19.438,19.438,0,0,1-5.594,8.483c-10.463,9.148-29.087,4.963-41.6-9.347q-.586-.671-1.141-1.355-.277-.342-.547-.687l.355.158L1328.6,1524.7Z" transform="translate(-1313.057 -1528.218)"/><path class="u" d="M1349.026,1534.024l10.16,4.528,3,1.335.251-.564q.226.728.418,1.455a33.934,33.934,0,0,1,1.02,5.751c.659,7.546-1.5,14.46-6.638,18.95-10.273,8.981-28.558,4.873-40.842-9.177q-1.152-1.317-2.178-2.685l.828.369L1328.1,1524.7Z" transform="translate(-1312.551 -1528.218)"/><path class="v" d="M1350.188,1533.946l9.972,4.444,2.94,1.31.162-.363q.222.714.411,1.428a33.291,33.291,0,0,1,1,5.644c.647,7.407-1.474,14.192-6.515,18.6-10.083,8.815-28.03,4.782-40.086-9.007q-1.13-1.293-2.138-2.635l.6.268,12.9-28.938Z" transform="translate(-1313.888 -1528.218)"/><path class="w" d="M1351.349,1533.868l9.784,4.361,2.884,1.286.073-.164q.217.7.4,1.4a32.677,32.677,0,0,1,.983,5.538c.634,7.267-1.446,13.924-6.393,18.248-9.892,8.649-27.5,4.692-39.329-8.837q-1.109-1.268-2.1-2.585l.373.166,12.74-28.585Z" transform="translate(-1315.225 -1528.218)"/><path class="x" d="M1352.512,1533.79l9.6,4.277,1.936.863.42-.942q.487,1.376.852,2.75a32.068,32.068,0,0,1,.964,5.431c.622,7.127-1.419,13.656-6.27,17.9-9.7,8.482-26.972,4.6-38.573-8.667q-1.087-1.244-2.057-2.536l.146.065,12.583-28.232Z" transform="translate(-1316.563 -1528.218)"/><path class="y" d="M1352.048,1533.712l9.407,4.193,1.9.846.322-.723q.478,1.349.835,2.7a31.425,31.425,0,0,1,.945,5.325c.61,6.988-1.391,13.388-6.147,17.547-9.512,8.316-26.443,4.511-37.817-8.5q-1.066-1.219-2.017-2.486-.238-.316-.468-.635l.544.243,12.267-27.524Z" transform="translate(-1316.275 -1528.218)"/><path class="z" d="M1351.7,1533.634l9.219,4.109,1.86.829.224-.5q.468,1.322.819,2.642a30.8,30.8,0,0,1,.926,5.218c.6,6.848-1.363,13.121-6.024,17.2-9.322,8.15-25.914,4.422-37.06-8.328q-1.045-1.2-1.977-2.436-.465-.62-.9-1.249l.908.4,11.954-26.82Z" transform="translate(-1316.101 -1528.218)"/><path class="aa" d="M1352.925,1533.555l9.031,4.025,1.822.812.127-.284q.459,1.295.8,2.588a30.17,30.17,0,0,1,.907,5.112c.586,6.708-1.335,12.853-5.9,16.844-9.132,7.984-25.385,4.331-36.3-8.157q-1.024-1.171-1.936-2.387-.456-.607-.884-1.224l.656.292,11.8-26.482Z" transform="translate(-1317.502 -1528.218)"/><path class="ab" d="M1354.151,1533.477l8.843,3.941,1.784.8.029-.065q.449,1.268.785,2.535a29.518,29.518,0,0,1,.888,5.005c.573,6.568-1.307,12.585-5.778,16.494-8.941,7.817-24.856,4.241-35.548-7.988q-1-1.146-1.9-2.337-.447-.595-.866-1.2l.4.18,11.652-26.143Z" transform="translate(-1318.904 -1528.218)"/><path class="ac" d="M1355.377,1533.4l8.655,3.857.9.4.315-.707q.247.62.467,1.24.44,1.241.769,2.481a28.9,28.9,0,0,1,.869,4.9c.561,6.429-1.279,12.317-5.655,16.143-8.751,7.651-24.327,4.151-34.791-7.818q-.981-1.122-1.855-2.287-.437-.582-.848-1.173l.151.067,11.5-25.8Z" transform="translate(-1320.305 -1528.218)"/><path class="ad" d="M1353.9,1533.321l8.467,3.774.876.39.209-.469q.242.606.457,1.213.43,1.214.752,2.427a28.276,28.276,0,0,1,.85,4.792c.549,6.289-1.252,12.05-5.532,15.792-8.561,7.484-23.8,4.061-34.035-7.648a38.359,38.359,0,0,1-3.42-4.548l.979.436,11.046-24.785Z" transform="translate(-1319.008 -1528.218)"/><path class="ae" d="M1355.191,1533.243l8.279,3.69.856.382.1-.231q.237.593.447,1.187.421,1.187.735,2.373a27.645,27.645,0,0,1,.832,4.686c.537,6.149-1.224,11.782-5.409,15.441-8.37,7.318-23.27,3.97-33.278-7.478a37.524,37.524,0,0,1-3.344-4.447l.7.313,10.9-24.462Z" transform="translate(-1320.47 -1528.218)"/><path class="af" d="M1356.477,1533.165l8.09,3.606.346-.777a29.024,29.024,0,0,1,2.455,9.214c.525,6.009-1.2,11.514-5.286,15.09-8.18,7.152-22.741,3.88-32.522-7.308a36.616,36.616,0,0,1-3.268-4.345l.426.19,10.758-24.138Z" transform="translate(-1321.931 -1528.218)"/><path class="ag" d="M1357.763,1533.086l7.9,3.522.232-.521a28.355,28.355,0,0,1,2.4,9c.512,5.869-1.168,11.246-5.163,14.739-7.99,6.985-22.212,3.79-31.766-7.138a35.809,35.809,0,0,1-3.193-4.245l.15.067,10.614-23.815Z" transform="translate(-1323.393 -1528.218)"/><path class="ah" d="M1356.757,1533.008l7.714,3.438.118-.265a27.665,27.665,0,0,1,2.341,8.786c.5,5.73-1.14,10.979-5.04,14.388-7.8,6.819-21.683,3.7-31.01-6.968a34.959,34.959,0,0,1-3.116-4.143q-.341-.533-.659-1.072l.822.366,10.181-22.842Z" transform="translate(-1322.563 -1528.218)"/><path class="ai" d="M1358.1,1532.93l7.526,3.354,0-.008a27,27,0,0,1,2.284,8.571c.488,5.59-1.113,10.711-4.917,14.037-7.609,6.653-21.154,3.609-30.253-6.8a34.1,34.1,0,0,1-3.04-4.042q-.334-.52-.643-1.046l.523.233,10.044-22.535Z" transform="translate(-1324.08 -1528.218)"/><path class="aj" d="M1359.441,1532.852l3.939,1.755,2.6,1.16.2-.442q.256.521.489,1.045a26.325,26.325,0,0,1,2.227,8.357c.476,5.45-1.085,10.443-4.795,13.686-7.419,6.487-20.626,3.519-29.5-6.628a33.253,33.253,0,0,1-2.964-3.942q-.325-.507-.627-1.02l.223.1,9.907-22.227Z" transform="translate(-1325.598 -1528.218)"/><path class="ak" d="M1358.815,1532.774l3.838,1.71,1.725.769.365-.818q.544,1.009,1,2.03a25.657,25.657,0,0,1,2.17,8.143c.464,5.31-1.057,10.175-4.671,13.335-7.229,6.32-20.1,3.429-28.741-6.458a32.4,32.4,0,0,1-2.888-3.84q-.633-.988-1.177-2l.769.343,9.49-21.293Z" transform="translate(-1325.146 -1528.218)"/><path class="al" d="M1360.209,1532.7l3.736,1.666,1.68.749.235-.527q.53.982.971,1.976a24.982,24.982,0,0,1,2.113,7.928c.451,5.171-1.029,9.908-4.549,12.985-7.039,6.154-19.568,3.339-27.984-6.288a31.552,31.552,0,0,1-2.812-3.74q-.617-.962-1.146-1.945l.447.2,9.361-21Z" transform="translate(-1326.716 -1528.218)"/><path class="am" d="M1361.6,1532.617l3.635,1.62,1.634.728.105-.236q.515.955.945,1.923a24.3,24.3,0,0,1,2.056,7.714c.439,5.031-1,9.64-4.426,12.634-6.849,5.988-19.039,3.248-27.228-6.118a30.732,30.732,0,0,1-2.736-3.638q-.6-.936-1.115-1.892l.126.056,9.231-20.711Z" transform="translate(-1328.285 -1528.218)"/><path class="am" d="M1361.328,1532.539l3.535,1.575.81.361.233-.523q.271.46.522.924.5.929.919,1.87a23.626,23.626,0,0,1,2,7.5c.427,4.891-.973,9.372-4.3,12.282-6.658,5.821-18.51,3.158-26.472-5.948a29.887,29.887,0,0,1-2.66-3.537q-.583-.911-1.084-1.84-.25-.464-.48-.932l.551.245,8.834-19.821Z" transform="translate(-1328.185 -1528.218)"/><path class="an" d="M1361.287,1532.461l3.433,1.53.336-.754a27.114,27.114,0,0,1,1.946,3.6,22.952,22.952,0,0,1,1.941,7.286c.415,4.752-.946,9.1-4.18,11.932-6.468,5.655-17.981,3.068-25.715-5.778a28.089,28.089,0,0,1-4.531-7.039l.9.4,8.444-18.946Z" transform="translate(-1328.32 -1528.218)"/><path class="ao" d="M1362.772,1532.383l3.333,1.485.192-.431a26.309,26.309,0,0,1,1.889,3.5,22.275,22.275,0,0,1,1.884,7.072c.4,4.612-.918,8.836-4.057,11.581-6.278,5.489-17.453,2.978-24.959-5.608a27.254,27.254,0,0,1-4.4-6.833l.538.24,8.33-18.69Z" transform="translate(-1329.981 -1528.218)"/><path class="ap" d="M1364.258,1532.3l3.232,1.44.048-.107a25.51,25.51,0,0,1,1.832,3.391,21.6,21.6,0,0,1,1.827,6.857c.39,4.472-.89,8.569-3.934,11.23-6.088,5.322-16.923,2.888-24.2-5.438a26.421,26.421,0,0,1-4.264-6.625l.175.078,8.216-18.434Z" transform="translate(-1331.642 -1528.218)"/><path class="aq" d="M1363.426,1532.226l1.616.72.312-.7q.589.784,1.106,1.591a24.711,24.711,0,0,1,1.775,3.286,20.927,20.927,0,0,1,1.77,6.643c.378,4.332-.862,8.3-3.811,10.879-5.9,5.156-16.395,2.8-23.446-5.268a25.609,25.609,0,0,1-4.131-6.418q-.37-.833-.667-1.67l.988.441,7.591-17.033Z" transform="translate(-1330.985 -1528.218)"/><path class="aq" d="M1364.986,1532.148l1.564.7.155-.348q.57.759,1.07,1.54a23.922,23.922,0,0,1,1.717,3.179,20.245,20.245,0,0,1,1.713,6.429c.366,4.193-.834,8.033-3.688,10.528-5.707,4.99-15.866,2.707-22.69-5.1a24.781,24.781,0,0,1-4-6.211q-.358-.805-.645-1.616l.587.261,7.494-16.813Z" transform="translate(-1332.72 -1528.218)"/><path class="ar" d="M1366.886,1531.307c6.6,7.545,7.472,17.572,1.955,22.4s-15.337,2.617-21.933-4.928a23.952,23.952,0,0,1-3.864-6q-.346-.779-.623-1.562l.185.083,7.4-16.594,16.545,7.374Z" transform="translate(-1334.456 -1528.218)"/><path class="ar" d="M1366.65,1531.608c6.369,7.285,7.214,16.966,1.888,21.623s-14.808,2.526-21.177-4.758a23.125,23.125,0,0,1-3.731-5.8,20.193,20.193,0,0,1-1.07-3.018l.735.328,6.814-15.289,16.37,7.3Z" transform="translate(-1334.565 -1528.218)"/><path class="as" d="M1368.1,1532.765c6.142,7.025,6.956,16.36,1.82,20.851s-14.279,2.436-20.421-4.589a22.305,22.305,0,0,1-3.6-5.59,19.5,19.5,0,0,1-1.031-2.91l.3.134,6.285-14.1-.511-.228a10.415,10.415,0,0,1,1.228-.319,11.824,11.824,0,0,1,2.605-.208l-.383.859,13.7,6.107Z" transform="translate(-1336.359 -1529.073)"/><path class="at" d="M1368.475,1535.01c5.914,6.765,6.7,15.754,1.753,20.079s-13.75,2.346-19.665-4.419a21.477,21.477,0,0,1-3.465-5.383,18.753,18.753,0,0,1-.993-2.8q-.186-.7-.309-1.394l.64.285,5.233-11.741-.837-.373a9.658,9.658,0,0,1,2.305-.756,11.387,11.387,0,0,1,2.508-.2l-.2.448,10.384,4.628.3-.681A22.171,22.171,0,0,1,1368.475,1535.01Z" transform="translate(-1337.079 -1531.017)"/><path class="at" d="M1369.356,1537.255c5.687,6.5,6.441,15.148,1.685,19.306s-13.222,2.256-18.908-4.249a18.858,18.858,0,0,1-4.759-10.533l.813.362,4.569-10.251-.364-.162a9.277,9.277,0,0,1,2.216-.727,12.028,12.028,0,0,1,4.944.131l-.316.709,5.062,2.256.372-.835A20.648,20.648,0,0,1,1369.356,1537.255Z" transform="translate(-1338.303 -1532.961)"/><path class="au" d="M1370.87,1539.5c5.459,6.245,6.184,14.542,1.618,18.534s-12.693,2.166-18.152-4.079a18.106,18.106,0,0,1-4.568-10.112l.322.144,3.621-8.124-.992-.442a9.748,9.748,0,0,1,8.741-1.8A18.106,18.106,0,0,1,1370.87,1539.5Z" transform="translate(-1340.162 -1534.905)"/><path class="au" d="M1372.214,1541.745c5.232,5.984,5.926,13.937,1.551,17.762s-12.164,2.075-17.4-3.909a17.349,17.349,0,0,1-4.378-9.691,12.175,12.175,0,0,1,.016-2.348l.691.308,2.594-5.82-.473-.211a9.341,9.341,0,0,1,8.377-1.724A17.35,17.35,0,0,1,1372.214,1541.745Z" transform="translate(-1341.851 -1536.848)"/><path class="av" d="M1373.736,1543.99c5,5.724,5.668,13.331,1.483,16.99s-11.635,1.985-16.639-3.739a16.6,16.6,0,0,1-4.188-9.269,10.584,10.584,0,0,1,.467-4.327,7.776,7.776,0,0,1,2.238-3.393,8.935,8.935,0,0,1,8.013-1.65A16.6,16.6,0,0,1,1373.736,1543.99Z" transform="translate(-1343.717 -1538.792)"/><path class="av" d="M1375.258,1546.235c4.777,5.464,5.411,12.725,1.416,16.217s-11.106,1.9-15.883-3.569a15.843,15.843,0,0,1-4-8.848,8.529,8.529,0,0,1,2.582-7.37C1363.37,1539.173,1370.481,1540.771,1375.258,1546.235Z" transform="translate(-1345.584 -1540.736)"/><ellipse class="av" cx="9.151" cy="12.515" rx="9.151" ry="12.515" transform="translate(7.314 8.424) rotate(-41.163)"/><ellipse class="b" cx="8.693" cy="11.889" rx="8.693" ry="11.889" transform="translate(8.07 8.594) rotate(-41.163)"/><ellipse class="b" cx="8.236" cy="11.264" rx="8.236" ry="11.264" transform="matrix(0.753, -0.658, 0.658, 0.753, 8.827, 8.764)"/><ellipse class="b" cx="7.778" cy="10.638" rx="7.778" ry="10.638" transform="translate(9.583 8.934) rotate(-41.163)"/><ellipse class="aw" cx="7.321" cy="10.012" rx="7.321" ry="10.012" transform="matrix(0.753, -0.658, 0.658, 0.753, 10.339, 9.104)"/><ellipse class="aw" cx="6.863" cy="9.386" rx="6.863" ry="9.386" transform="matrix(0.753, -0.658, 0.658, 0.753, 11.096, 9.274)"/><ellipse class="aw" cx="6.406" cy="8.761" rx="6.406" ry="8.761" transform="translate(11.852 9.444) rotate(-41.163)"/><ellipse class="aw" cx="5.948" cy="8.135" rx="5.948" ry="8.135" transform="matrix(0.753, -0.658, 0.658, 0.753, 12.608, 9.614)"/><ellipse class="aw" cx="5.49" cy="7.509" rx="5.49" ry="7.509" transform="translate(13.365 9.784) rotate(-41.163)"/><ellipse class="aw" cx="5.033" cy="6.883" rx="5.033" ry="6.883" transform="matrix(0.753, -0.658, 0.658, 0.753, 14.121, 9.954)"/><ellipse class="ax" cx="4.575" cy="6.258" rx="4.575" ry="6.258" transform="matrix(0.753, -0.658, 0.658, 0.753, 14.877, 10.123)"/><ellipse class="ax" cx="4.118" cy="5.632" rx="4.118" ry="5.632" transform="matrix(0.753, -0.658, 0.658, 0.753, 15.634, 10.293)"/><ellipse class="ax" cx="3.66" cy="5.006" rx="3.66" ry="5.006" transform="translate(16.39 10.463) rotate(-41.162)"/><ellipse class="ax" cx="3.203" cy="4.38" rx="3.203" ry="4.38" transform="matrix(0.753, -0.658, 0.658, 0.753, 17.146, 10.633)"/><ellipse class="ax" cx="2.745" cy="3.755" rx="2.745" ry="3.755" transform="matrix(0.753, -0.658, 0.658, 0.753, 17.903, 10.803)"/><path class="ax" d="M1399.61,1582.155c1.137,1.3,1.288,3.03.337,3.861s-2.644.451-3.782-.85-1.288-3.03-.337-3.861S1398.473,1580.854,1399.61,1582.155Z" transform="translate(-1375.447 -1571.838)"/><ellipse class="ax" cx="1.83" cy="2.503" rx="1.83" ry="2.503" transform="translate(19.415 11.143) rotate(-41.163)"/><ellipse class="ax" cx="1.373" cy="1.877" rx="1.373" ry="1.877" transform="matrix(0.753, -0.658, 0.658, 0.753, 20.172, 11.313)"/><path class="ax" d="M1404.176,1588.89a.96.96,0,1,1-1.513-.34A1.124,1.124,0,0,1,1404.176,1588.89Z" transform="translate(-1381.047 -1577.67)"/><path class="ax" d="M1405.7,1591.135a.48.48,0,1,1-.756-.17A.562.562,0,0,1,1405.7,1591.135Z" transform="translate(-1382.913 -1579.613)"/></g></g><path class="z" d="M1307.719,1564.591a24.09,24.09,0,0,1,1.453-2.877,19.217,19.217,0,0,1,5.92-6.258,8.077,8.077,0,0,1,4.283-1.431,3.748,3.748,0,0,1,1.641.123,3.326,3.326,0,0,0-.862-.325,7.386,7.386,0,0,0-2.961.01,12.722,12.722,0,0,0-7.1,4.891,25.05,25.05,0,0,0-5.146,11.547,12.721,12.721,0,0,0,1.113,8.553,7.385,7.385,0,0,0,1.972,2.209,3.326,3.326,0,0,0,.818.423c-.461-.174-.891-.784-1.188-1.138a8.074,8.074,0,0,1-1.8-4.142,19.221,19.221,0,0,1,.7-8.586,24.126,24.126,0,0,1,1.168-3Z" transform="translate(-1302.618 -1550.725)"/><path class="ay" d="M1312.129,1540.458c-3.087-.019-5.857,1.814-8.029,3.821-.445.411-.866.847-1.268,1.3a30.418,30.418,0,0,0-7.257,16.282c-.068.6-.11,1.206-.118,1.812-.04,2.957.449,6.242,2.526,8.526a7.006,7.006,0,0,0,3.918,2.148s4.61,1.071,10.6-5.482a29.585,29.585,0,0,0,6.855-15.381c.872-8.833-3.006-11.545-3.006-11.545A7.005,7.005,0,0,0,1312.129,1540.458Zm5.337,11.227a28.983,28.983,0,0,1-2.052,9.259v0l0,.005v0a28.987,28.987,0,0,1-5.514,7.716c-5.627,4.783-9.037,2.106-9.037,2.106-3.831-2.851-3.329-8.314-3.329-8.314.021-3.671,2.077-8.552,2.077-8.552s2.255-4.792,4.971-7.262c0,0,3.727-4.026,8.408-3.083C1312.99,1543.557,1317.261,1544.3,1317.466,1551.685Z" transform="translate(-1295.454 -1540.458)"/><path class="az" d="M1333.678,1601.959a.479.479,0,0,0-.33.129c-.031.023-.06.046-.087.07l-.023.021-.025.022c-.01.01-.019.021-.029.031l-.025.027-.01.011c-.014.017-.027.034-.04.051l-.009.013-.007.01-.014.021-.024.04-.014.027-.008.017c-.006.012-.011.024-.016.037s-.012.033-.019.051v0s0,.008,0,.012c-.006.021-.013.042-.018.065s-.006.029-.009.043-.005.024-.008.038c-.008.045-.016.093-.022.145h0v0c-.006.052-.009.108-.012.166,0,.013,0,.026,0,.039,0,.059,0,.122,0,.188,0,.011,0,.024,0,.035,0,.061,0,.126.006.193,0,.013,0,.024,0,.037,0,.074.009.153.015.234l0,.054c.007.085.015.171.025.263.006.058.013.114.02.169,0,.006,0,.012,0,.019,0,.022.005.043.008.065s0,.033.006.049.008.057.012.085,0,.029.007.043.009.056.014.083c0,.012,0,.025.006.037.006.032.012.063.017.094,0,.006,0,.012,0,.018.007.036.015.07.022.1l.008.033c0,.021.01.042.015.062l.01.039c0,.016.009.033.014.048s.008.025.012.038l.01.033,0,.007c.01.03.021.058.032.084l0,.009c.009.022.019.043.029.062l0,.009.005.009a.649.649,0,0,0,.039.062l0,.005,0,0a.385.385,0,0,0,.034.04h0a.269.269,0,0,0,.031.027.188.188,0,0,0,.029.017l.59.265.006,0a.18.18,0,0,1-.033-.019h0a.242.242,0,0,1-.032-.027.371.371,0,0,1-.034-.04l0-.007a.578.578,0,0,1-.038-.062l-.01-.018q-.014-.028-.028-.059l-.005-.012c-.009-.021-.018-.045-.026-.07l.528.237-.005,0-.523-.235,0-.012-.015-.044-.01-.032-.015-.054c0-.011-.006-.021-.009-.032s-.011-.045-.017-.068,0-.018-.007-.027c-.008-.033-.015-.067-.022-.1l0-.02c-.006-.03-.012-.059-.017-.091,0-.014,0-.029-.007-.043s-.009-.05-.013-.076l-.008-.052c0-.025-.008-.05-.011-.076s-.005-.039-.008-.058-.007-.048-.01-.073c-.007-.055-.014-.112-.02-.171-.01-.091-.018-.177-.025-.261,0-.019,0-.039,0-.058-.006-.08-.011-.157-.015-.231,0-.014,0-.027,0-.041q0-.1-.005-.187c0-.013,0-.026,0-.039,0-.066,0-.127,0-.186,0-.014,0-.027,0-.04,0-.058.006-.113.012-.165v0c.006-.052.013-.1.022-.145l.008-.037c.008-.039.017-.076.028-.109l0-.011a.727.727,0,0,1,.044-.109.826.826,0,0,1,.051-.088l.007-.01a.915.915,0,0,1,.059-.076l.025-.026c.017-.019.035-.037.054-.055l.022-.02c.028-.024.056-.048.088-.071a.478.478,0,0,1,.33-.129.121.121,0,0,1,.025.008l-.589-.265A.122.122,0,0,0,1333.678,1601.959Z" transform="translate(-1324.55 -1588.217)"/><path class="ba" d="M1340.672,1594.956c.015.009.029.02.043.03a.674.674,0,0,1,.075.063c.017.017.034.036.051.055l.014.018.033.043.027.04.023.036.027.047.02.036c.02.038.039.079.057.122l.011.028c.015.037.03.076.044.116l.012.034c.018.054.035.11.051.169l.009.035q.023.087.043.182l0,.017c.014.067.027.138.04.211l.008.048c.012.073.023.149.033.229q.01.077.019.158c.012.107.02.211.027.314,0,.019,0,.038,0,.057.005.1.009.2.01.29,0,.019,0,.037,0,.056,0,.1,0,.194-.006.288v.01c0,.092-.012.182-.021.27l0,.048q-.014.128-.035.25c0,.017-.006.033-.009.049-.015.084-.032.167-.052.248l-.006.022c-.011.045-.023.089-.036.133l-.016.051c-.01.032-.02.063-.03.094q-.032.1-.069.187c-.006.016-.013.031-.02.047-.017.04-.034.079-.052.118l-.029.061c-.015.031-.031.062-.047.092s-.033.063-.051.094l.59.265.034-.061.017-.033c.016-.031.032-.062.048-.094.006-.011.012-.023.018-.035l.011-.024c.018-.038.035-.078.052-.118.005-.012.011-.024.016-.037l0-.011q.037-.092.069-.187l0-.013c.009-.027.017-.054.025-.081l.016-.051q.021-.072.039-.145l0-.008h0v0c.02-.08.036-.162.051-.245,0-.016.006-.032.009-.049q.021-.123.035-.251c0-.006,0-.011,0-.017s0-.02,0-.03c.009-.089.016-.179.021-.271,0,0,0-.006,0-.01,0-.094.006-.19.005-.287,0-.019,0-.037,0-.056q0-.142-.01-.29c0-.019,0-.038,0-.057-.007-.1-.015-.208-.027-.314-.005-.051-.011-.1-.017-.149v-.007c-.01-.08-.021-.156-.034-.231l-.008-.047c-.013-.073-.026-.144-.04-.212l0-.017c-.014-.063-.028-.123-.043-.181l-.009-.035c-.016-.059-.033-.115-.051-.169l0-.013-.008-.021c-.014-.041-.029-.079-.044-.116l-.011-.028c-.018-.043-.038-.084-.057-.122a.077.077,0,0,1,0-.008l-.016-.028-.027-.047-.023-.035-.028-.041-.007-.011-.025-.031-.016-.02c-.016-.019-.033-.037-.05-.054h0a.707.707,0,0,0-.075-.064l-.009-.008-.034-.023a.573.573,0,0,0-.052-.028l-.014-.006-.59-.265A.568.568,0,0,1,1340.672,1594.956Z" transform="translate(-1330.519 -1582.754)"/><path class="az" d="M1335.366,1621.528a.616.616,0,0,0-.069.058l0,0a.691.691,0,0,0-.048.052l0,0-.006.008-.028.036-.017.025-.009.013-.007.01c-.011.017-.021.035-.031.053l-.006.011-.009.018-.016.031-.017.038c0,.008-.007.015-.01.023l-.005.012c-.007.017-.014.037-.02.055s-.01.025-.014.039l0,.006c0,.007,0,.015-.006.022-.012.037-.023.076-.033.116,0,.007,0,.013-.006.02-.006.024-.012.049-.017.075q-.014.066-.025.136c0,.016,0,.033-.006.05s-.009.061-.012.092v0c-.007.067-.012.136-.016.208,0,.017,0,.034,0,.052,0,.072,0,.146,0,.222v0c0,.078,0,.158.01.241,0,.02,0,.04,0,.06.006.083.013.168.022.256l.095.882q.006.055.013.107l.007.056,0,.034c.007.051.014.1.021.146l0,.024c.007.042.014.082.021.12l0,.02c.008.042.017.081.025.118l.005.021c.008.035.017.068.026.1l0,.007c.007.024.014.047.022.069l.006.016.01.028c.007.018.014.035.021.051l.011.024.007.015c.008.014.015.028.023.04l.009.013a.252.252,0,0,0,.026.031l.006,0,.007.006.014.012.013.006h0l-.013-.006a.208.208,0,0,0,.028.017l0,0,.59.265a.179.179,0,0,1-.047-.031l-.007-.006a.252.252,0,0,1-.041-.048.63.63,0,0,1-.03-.055l-.011-.024c-.007-.016-.014-.032-.021-.05l-.011-.029c-.009-.026-.018-.053-.027-.083l0-.011c-.008-.029-.016-.06-.024-.093l-.006-.025c-.008-.036-.016-.074-.024-.114l0-.025c-.007-.036-.014-.074-.02-.113,0-.01,0-.019,0-.029-.007-.046-.015-.093-.021-.143l0-.037c-.007-.052-.014-.1-.02-.161l-.095-.882c-.01-.088-.016-.172-.022-.255,0-.021,0-.042,0-.062,0-.082-.008-.162-.009-.239a.066.066,0,0,1,0-.007c0-.075,0-.147,0-.218,0-.018,0-.036,0-.053,0-.071.009-.141.016-.207,0-.033.008-.065.013-.1,0-.015,0-.031.006-.047.007-.047.016-.093.025-.137s.015-.064.023-.095.021-.079.033-.116c0-.01.006-.02.009-.03s.009-.025.014-.038.016-.046.026-.068l.011-.024c.01-.024.021-.047.033-.069l.009-.018q.021-.039.043-.074l.009-.013c.015-.022.029-.042.045-.062l.006-.008a.7.7,0,0,1,.055-.059.637.637,0,0,1,.069-.058.277.277,0,0,1,.284-.058l-.59-.265A.277.277,0,0,0,1335.366,1621.528Z" transform="translate(-1326.1 -1603.357)"/><path class="bb" d="M1335.264,1615.409a.614.614,0,0,1,.064.038l.021.015a.763.763,0,0,1,.084.071l.037.039.019.021c.019.021.037.045.055.069s.042.059.062.092l.019.031c.014.023.027.047.041.072s.028.052.042.08c.024.048.046.1.067.151.007.018.014.036.021.054.014.035.027.071.04.108.007.02.014.041.021.062.013.041.026.082.038.125.006.021.012.042.018.063.013.05.026.1.038.154,0,.014.007.028.01.043.015.067.028.136.04.207,0,.019.006.038.009.057.009.054.017.108.024.164s.013.1.018.147l.078.726c.012.119.021.236.027.351,0,.038,0,.074,0,.112,0,.076.006.152.007.227,0,.044,0,.087,0,.13,0,.065,0,.131,0,.194,0,.046-.006.091-.01.137s-.008.118-.014.175-.011.087-.017.131-.015.114-.024.17-.016.085-.025.128-.021.107-.033.16c-.017.075-.037.148-.058.22l-.012.038c-.024.079-.05.158-.079.234s-.058.141-.089.21c-.006.014-.012.029-.019.043q-.051.107-.109.211c-.011.02-.023.039-.034.059q-.043.074-.09.146c-.017.026-.034.052-.052.078s-.056.078-.085.117-.052.068-.079.1-.078.095-.119.141l-.026.03q-.082.089-.172.175l-.03.028c-.059.056-.121.111-.185.164l-.023.019c-.068.056-.138.111-.211.164q-.874.635-1.4.4l.59.265q.529.237,1.4-.4c.073-.053.143-.107.21-.163l.024-.02c.064-.053.125-.108.185-.164l.029-.028.031-.029c.049-.048.1-.1.141-.146l.026-.03c.028-.032.057-.063.084-.1.012-.015.023-.031.036-.046.027-.033.053-.067.079-.1s.032-.04.047-.061.025-.038.038-.057l.052-.077c.011-.017.024-.034.035-.051s.037-.063.056-.1l.034-.058.013-.023q.048-.088.091-.179l0-.009c.007-.014.012-.029.019-.043.021-.046.042-.092.061-.139l.028-.07c.019-.051.038-.1.055-.155.009-.026.016-.052.024-.079l.012-.038c.018-.061.036-.123.051-.186,0-.011,0-.022.007-.033.013-.053.023-.107.034-.161s.017-.084.025-.127.017-.115.024-.174c0-.035.011-.069.015-.105,0-.007,0-.015,0-.022.006-.059.01-.119.014-.179,0-.044.008-.088.01-.133,0-.064,0-.129,0-.194,0-.044,0-.086,0-.131,0-.073,0-.149-.006-.224,0-.038,0-.076,0-.114q-.009-.172-.027-.351l-.078-.726c0-.038-.008-.076-.013-.114,0-.011,0-.022,0-.033-.007-.056-.015-.11-.024-.164,0-.019-.006-.039-.009-.058q-.018-.106-.04-.207l-.01-.043c-.012-.052-.025-.1-.038-.154l-.018-.063q-.019-.065-.039-.127c0-.012-.007-.025-.011-.036l-.008-.023c-.013-.038-.027-.075-.041-.111l-.02-.052c-.021-.052-.044-.1-.068-.151-.011-.022-.022-.044-.033-.065l-.009-.016c-.013-.025-.026-.048-.04-.07l-.019-.033c-.021-.032-.041-.063-.062-.092h0c-.018-.024-.036-.047-.055-.069l-.019-.02c-.011-.012-.022-.025-.034-.036l0,0a.829.829,0,0,0-.085-.071l-.008-.007-.013-.008a.609.609,0,0,0-.064-.038l-.013-.008-.014-.007-.59-.265Z" transform="translate(-1324.739 -1598.653)"/><path class="ay" d="M1328.614,1595.183a3.782,3.782,0,0,0-1.361,1.664,4.929,4.929,0,0,0-.223,2.332q.181,1.681.937,1.778a3.872,3.872,0,0,0-.433,1.337,5.982,5.982,0,0,0-.043,1.568c.055.51.086.778.092.8q.163,1.363.7,1.692t1.482-.355a3.685,3.685,0,0,0,1.324-1.686,5.271,5.271,0,0,0,.241-2.407l-.078-.726a4.042,4.042,0,0,0-.345-1.334q-.258-.531-.613-.584a4.507,4.507,0,0,0,.442-2.779q-.152-1.415-.645-1.718T1328.614,1595.183Zm1.309,6.781.093.864a4.633,4.633,0,0,1,.02,1.172.973.973,0,0,1-.417.629q-.351.254-.5.034a2.7,2.7,0,0,1-.233-.992l-.095-.882a4.267,4.267,0,0,1,.03-1.322,1.169,1.169,0,0,1,.384-.731Q1329.749,1600.344,1329.923,1601.964Zm-.641-5.341a5.5,5.5,0,0,1,.164.958,6.638,6.638,0,0,1,.044,1.1,1.974,1.974,0,0,1-.126.647.825.825,0,0,1-.275.349l0,0c-.125.09-.228.118-.309.082q-.278-.122-.41-1.352a3.4,3.4,0,0,1,.069-1.622.966.966,0,0,1,.307-.345.479.479,0,0,1,.33-.129C1329.15,1596.323,1329.221,1596.427,1329.282,1596.622Z" transform="translate(-1319.943 -1582.565)"/><path class="az" d="M1353.47,1588.225a1.018,1.018,0,0,0-.1.087l-.013.011-.016.017-.031.033-.017.019-.021.027-.015.019-.008.01q-.018.025-.034.051l0,.008-.007.013-.017.029c-.008.015-.016.03-.024.046l0,0h0c-.009.019-.017.038-.025.057s-.005.014-.008.021-.006.016-.009.025l-.008.022c0,.012-.007.024-.01.036s-.009.028-.012.043,0,.009,0,.014c-.006.025-.012.051-.016.077-.008.043-.014.089-.02.137,0,.005,0,.009,0,.015s0,.039-.005.059,0,.025,0,.038c0,.04-.005.082-.007.125,0,0,0,.009,0,.014,0,.04,0,.08,0,.122,0,.016,0,.033,0,.049,0,.032,0,.064,0,.1s0,.038,0,.058,0,.066,0,.1,0,.039,0,.06c0,.038.005.076.009.115,0,.018,0,.035,0,.053,0,.058.01.117.017.178l.1.942c.007.068.015.134.023.2v.007l0,.02c.007.053.014.1.021.152l.005.037c.008.051.016.1.024.147,0,.01,0,.018.005.028.007.04.015.078.023.114l.005.027c.009.04.018.078.027.113l.007.026c.009.031.017.06.026.087l0,.014v0c.01.03.02.057.031.081l.008.019c.006.013.012.026.018.038l.013.023a.412.412,0,0,0,.023.035l0,0a.326.326,0,0,0,.024.027l.005.006h0l.013.011.016.013h0l.012.007.018.01.005,0,.589.265-.023-.013-.012-.007-.017-.014-.013-.011-.006-.006a.353.353,0,0,1-.024-.028.4.4,0,0,1-.024-.036.67.67,0,0,1-.031-.061l-.009-.019c-.011-.026-.022-.054-.032-.085l0-.014c-.009-.027-.017-.056-.026-.087l-.007-.026c-.009-.035-.018-.073-.027-.113l-.006-.028c-.008-.036-.015-.074-.022-.114l-.005-.028c-.008-.047-.017-.1-.024-.148l-.005-.036c-.007-.05-.015-.1-.022-.157l0-.014c-.008-.066-.016-.134-.024-.206l-.1-.942c-.006-.061-.012-.12-.017-.177,0-.018,0-.035,0-.052,0-.04-.006-.079-.009-.117,0-.019,0-.038,0-.057,0-.035,0-.07-.005-.1l0-.055c0-.034,0-.068,0-.1,0-.015,0-.03,0-.045,0-.044,0-.087,0-.128v-.008c0-.044,0-.086.007-.126,0-.012,0-.024,0-.037s0-.05.007-.074c.005-.048.012-.094.02-.137s.013-.062.021-.092c0-.014.008-.027.012-.041s.012-.04.019-.059l.009-.025c.01-.028.021-.054.034-.08l0,0c.012-.025.026-.05.04-.075l.008-.013q.022-.036.047-.069l.015-.019c.012-.015.025-.03.037-.045l.032-.034.028-.027a1.01,1.01,0,0,1,.1-.087q.218-.158.358-.095l-.59-.265Q1353.688,1588.067,1353.47,1588.225Z" transform="translate(-1340.162 -1577.466)"/><path class="au" d="M1353.416,1609.635l-.034.051-.033.045c-.019.026-.04.052-.061.079l-.036.043-.038.043-.05.055-.041.042-.057.056-.04.037-.064.057-.041.036-.075.062-.038.031c-.039.031-.079.061-.12.091q-.673.488-1.093.3l.59.265q.421.189,1.093-.3c.042-.03.082-.061.121-.091l.036-.029.077-.063.041-.035.065-.058.041-.038.029-.028.026-.027.042-.043.05-.055.038-.042.016-.019.02-.025c.021-.026.042-.052.061-.078l.018-.024.015-.022.034-.051.02-.03.027-.044-.59-.265C1353.449,1609.586,1353.432,1609.61,1353.416,1609.635Z" transform="translate(-1339.052 -1594.123)"/><path class="az" d="M1355.9,1618.02c.008.068.016.134.024.2,0,.009,0,.016,0,.025l0,.033q.011.083.022.16l.006.043c.009.058.017.114.026.166l0,.023q.012.066.024.125l.008.039c.009.042.017.081.026.118l0,.008c.009.038.019.073.029.1l.008.027c0,.009.006.02.009.029s.01.028.016.042l.006.016a.609.609,0,0,0,.027.059l.006.011a.34.34,0,0,0,.055.074h0a.226.226,0,0,0,.029.024h0l.028.017.082.037.512.23a.188.188,0,0,1-.032-.018h0a.213.213,0,0,1-.03-.025.247.247,0,0,1-.029-.034.338.338,0,0,1-.026-.041.615.615,0,0,1-.033-.07l-.007-.017c-.008-.021-.016-.044-.024-.069l-.009-.027c-.01-.033-.019-.067-.029-.105l0-.007c-.009-.037-.018-.077-.026-.119,0-.012-.005-.025-.008-.038-.008-.04-.016-.082-.024-.126l0-.023c-.009-.052-.018-.107-.026-.164,0-.016,0-.032-.007-.048q-.01-.071-.021-.149c0-.015,0-.03-.006-.045-.009-.069-.018-.141-.026-.217l-.024-.222-.589-.265Z" transform="translate(-1342.375 -1600.52)"/><path class="bb" d="M1355.385,1580.341a.678.678,0,0,1,.069.041l.029.021a.8.8,0,0,1,.062.052l.024.023a.982.982,0,0,1,.082.094c.019.025.037.052.054.081l.012.021c.012.022.025.044.037.068s.018.038.027.058.016.036.024.054.017.043.025.065.019.05.027.077c.015.047.03.1.045.15l.014.051c.01.036.019.073.029.112.005.021.01.044.016.066s.017.074.025.112.01.048.015.073.016.08.024.121l.014.075c.008.046.016.095.025.143l.011.066c.011.072.023.145.033.221,0,.015,0,.031.006.046.008.061.016.123.024.186.012.1.024.194.035.3l.454,4.219c.009.084.017.167.024.25,0,.027,0,.053.007.08,0,.056.009.111.012.165,0,.03,0,.059.006.089q0,.078.008.155c0,.027,0,.055,0,.082,0,.062,0,.124.005.184,0,.014,0,.028,0,.042,0,.073,0,.145,0,.216,0,.023,0,.045,0,.067,0,.049,0,.1,0,.146,0,.026,0,.051,0,.076,0,.045,0,.09-.008.134,0,.024,0,.047,0,.071,0,.05-.009.1-.014.149,0,.016,0,.032,0,.047s-.007.054-.01.081-.007.058-.011.086l-.012.074c0,.029-.009.058-.014.086s-.009.048-.014.072-.01.056-.016.083-.01.045-.015.068-.012.055-.018.081-.013.05-.02.076-.012.046-.018.068-.018.059-.027.088-.01.034-.016.051c-.028.084-.059.166-.092.246-.008.019-.017.038-.025.058-.026.059-.052.117-.081.174l-.032.062q-.048.091-.1.179l-.021.036q-.065.1-.137.2c-.019.026-.039.05-.058.074-.035.046-.07.091-.108.135l-.032.036c-.051.059-.1.116-.16.171l-.008.008c-.043.042-.09.083-.136.124-.023.02-.044.042-.068.062q-.106.09-.221.173-.855.621-1.341.4l.59.265q.486.218,1.341-.4.115-.083.22-.173c.027-.022.051-.047.077-.07.042-.037.085-.074.125-.113l0,0,.008-.008c.056-.056.109-.113.161-.172l.032-.036.025-.028c.029-.035.055-.071.083-.106s.039-.049.058-.074l.011-.014q.062-.087.119-.177l.007-.012.023-.039c.024-.04.049-.08.071-.121.01-.018.018-.036.028-.054l.033-.064c.01-.02.02-.039.03-.058.018-.037.034-.076.05-.114.008-.019.017-.039.025-.058l.009-.021q.045-.11.083-.225v0c.006-.016.01-.034.016-.051s.018-.057.026-.086.012-.046.019-.069.014-.049.02-.074v0c.006-.024.011-.049.016-.074s.011-.046.016-.07.01-.052.015-.077.01-.052.015-.078l.012-.076c0-.028.009-.056.013-.085s.007-.052.01-.078.008-.058.011-.088v-.009c0-.012,0-.025,0-.037.005-.049.01-.1.014-.15,0-.023,0-.047,0-.07,0-.045.006-.09.008-.135,0-.025,0-.05,0-.075,0-.049,0-.1,0-.149,0-.021,0-.042,0-.063,0-.071,0-.144,0-.218,0-.01,0-.022,0-.032q0-.1-.005-.194c0-.025,0-.051,0-.076,0-.053-.005-.107-.008-.161,0-.028,0-.056-.005-.084,0-.056-.008-.113-.013-.171l-.006-.075c-.007-.083-.015-.166-.024-.251l-.454-4.219c-.011-.1-.023-.2-.034-.3,0-.007,0-.014,0-.021-.007-.057-.015-.111-.022-.165,0-.015,0-.031-.006-.046-.01-.076-.022-.149-.033-.221,0-.022-.007-.044-.011-.065-.008-.049-.016-.1-.025-.144,0-.025-.009-.05-.014-.075l-.024-.122c0-.025-.01-.049-.015-.073s-.017-.076-.025-.112-.01-.044-.016-.066c-.009-.039-.019-.076-.029-.112,0-.017-.009-.035-.014-.051-.015-.052-.029-.1-.045-.15l-.011-.034c-.005-.015-.011-.028-.016-.043s-.016-.043-.024-.064-.016-.037-.025-.055-.018-.039-.027-.057l-.009-.018c-.009-.017-.019-.033-.029-.05l-.012-.021c-.016-.027-.034-.053-.052-.078l0,0-.009-.012a.7.7,0,0,0-.05-.059l-.016-.017-.011-.012-.017-.015a.736.736,0,0,0-.062-.052l-.015-.012-.015-.008a.645.645,0,0,0-.069-.041l-.019-.011-.016-.008-.59-.265C1355.362,1580.327,1355.373,1580.335,1355.385,1580.341Z" transform="translate(-1340.8 -1571.416)"/><path class="ay" d="M1350.163,1580.078q-.438-.106-1.274.5a3.673,3.673,0,0,0-1.229,1.487,6.086,6.086,0,0,0-.27,3.049l.041.384a4.005,4.005,0,0,0,.618,2.08q.449.51,1.323-.125a2.747,2.747,0,0,0,.776-.8l.17,1.578a5.36,5.36,0,0,1,.056.965q-.029.173-.081.37a.84.84,0,0,1-.348.411c-.2.143-.341.13-.435-.037a4.145,4.145,0,0,1-.25-1.225l-.024-.222-1.242.9.062.576q.158,1.419.651,1.727t1.417-.362a3.447,3.447,0,0,0,1.278-1.74,6.959,6.959,0,0,0,.163-2.864l-.454-4.219a9.08,9.08,0,0,0-.315-1.719A.941.941,0,0,0,1350.163,1580.078Zm-.641,1.917a2.975,2.975,0,0,1,.236,1.039l.215,2a1.121,1.121,0,0,1-.5.919q-.334.242-.485-.016a3.38,3.38,0,0,1-.247-1.134l-.1-.942a4.453,4.453,0,0,1,0-1.22,1.02,1.02,0,0,1,.407-.671Q1349.371,1581.738,1349.523,1582Z" transform="translate(-1335.737 -1571.215)"/></svg>