<svg xmlns="http://www.w3.org/2000/svg" xmlns:xlink="http://www.w3.org/1999/xlink" width="26.726" height="23.597" viewBox="0 0 26.726 23.597"><defs><style>.a{fill:none;}.b{fill:#dedede;}.c{clip-path:url(#a);}.d{fill:#999;}.e{fill:#9c9c9c;}.f{fill:#9e9e9e;}.g{fill:#a0a0a0;}.h{fill:#a3a3a3;}.i{fill:#a5a5a5;}.j{fill:#a7a7a7;}.k{fill:#a9a9a9;}.l{fill:#acacac;}.m{fill:#aeaeae;}.n{fill:#b0b0b0;}.o{fill:#b2b2b2;}.p{fill:#b4b4b4;}.q{fill:#b6b6b6;}.r{fill:#b7b7b7;}.s{fill:#b9b9b9;}.t{fill:#bbb;}.u{fill:#bdbdbd;}.v{fill:#bebebe;}.w{fill:silver;}.x{fill:#c1c1c1;}.y{fill:#c3c3c3;}.z{fill:#c4c4c4;}.aa{fill:#c6c6c6;}.ab{fill:#c7c7c7;}.ac{fill:#c9c9c9;}.ad{fill:#cacaca;}.ae{fill:#cbcbcb;}.af{fill:#ccc;}.ag{fill:#cdcdcd;}.ah{fill:#cfcfcf;}.ai{fill:#d0d0d0;}.aj{fill:#d1d1d1;}.ak{fill:#d2d2d2;}.al{fill:#d3d3d3;}.am{fill:#d4d4d4;}.an{fill:#d5d5d5;}.ao{fill:#d6d6d6;}.ap{fill:#d7d7d7;}.aq{fill:#d8d8d8;}.ar{fill:#d9d9d9;}.as{fill:#dadada;}.at{fill:#dbdbdb;}.au{fill:#dcdcdc;}.av{fill:#ddd;}.aw{fill:#dfdfdf;}.ax{fill:#e0e0e0;}.ay{fill:red;}.az{fill:#c5c5c5;}.ba{fill:#b8b8b8;}.bb{fill:#a8a8a8;}</style><clipPath id="a"><path class="a" d="M1149.521,1509.453a13.9,13.9,0,0,0,1.263-5.181,6.482,6.482,0,0,0-.883-3.968,11.843,11.843,0,0,0-1.534-1.58,32.283,32.283,0,0,0-7.008-4.381,27.4,27.4,0,0,0-8.9-2.074,3.523,3.523,0,0,1,2.121.744s1.951,1.364,1.512,5.806a14.876,14.876,0,0,1-3.448,7.736c-3.01,3.3-5.329,2.758-5.329,2.758a3.524,3.524,0,0,1-1.971-1.08,27.406,27.406,0,0,0,7.491,5.231,32.287,32.287,0,0,0,7.943,2.283,11.845,11.845,0,0,0,2.2.085,6.483,6.483,0,0,0,3.541-2,13.9,13.9,0,0,0,3.009-4.4Z" transform="translate(-1125.345 -1492.27)"/></clipPath></defs><path class="b" d="M1134.321,1503.083a14.582,14.582,0,0,1-1.032,4.657h0v0a14.58,14.58,0,0,1-2.773,3.881c-2.83,2.405-4.546,1.059-4.546,1.059-1.927-1.434-1.674-4.182-1.674-4.182a12.293,12.293,0,0,1,3.545-7.953s1.875-2.025,4.229-1.551C1132.07,1498.995,1134.218,1499.37,1134.321,1503.083Z" transform="translate(-1123.25 -1497.436)"/><g transform="translate(1.272 0)"><g class="c"><rect class="d" width="21.129" height="22.591" transform="matrix(0.407, -0.913, 0.913, 0.407, -0.743, 17.631)"/><path class="d" d="M1143,1489.7l6.719,2.995,2.032.906-7.957,17.853.234.1q-.406.105-.822.187a15.637,15.637,0,0,1-3.446.276l.171-.384-16.2-7.219-.026.059q-.4-.4-.794-.813-.2-.208-.389-.421l.02.009,8.428-18.911Z" transform="translate(-1123.154 -1486.114)"/><path class="e" d="M1142.179,1489.664l6.624,2.952,2.215.987-7.877,17.674.019.008q-.4.1-.81.185a15.424,15.424,0,0,1-3.4.272l.079-.177-14.062-6.267-.22.493a30.023,30.023,0,0,1-3.169-3.127l.412.183,8.247-18.5Z" transform="translate(-1122.423 -1486.114)"/><path class="f" d="M1142.694,1489.625l6.53,2.91,2.4,1.069-7.583,17.014.37.165a13.354,13.354,0,0,1-1.579.41,15.191,15.191,0,0,1-3.348.268q-.431-.012-.867-.046l.114-.254-13.12-5.848-.126.282a29.6,29.6,0,0,1-3.123-3.083l.324.144,8.162-18.313Z" transform="translate(-1123.025 -1486.114)"/><path class="g" d="M1143.207,1489.585l6.435,2.868,2.581,1.15-7.506,16.842.147.066a13.153,13.153,0,0,1-1.556.4,14.994,14.994,0,0,1-3.3.264q-.85-.023-1.718-.135l.129-.29-12.177-5.427-.031.07a29.182,29.182,0,0,1-3.078-3.038l.236.1,8.077-18.122Z" transform="translate(-1123.627 -1486.114)"/><path class="h" d="M1143.722,1489.546l6.34,2.826,2.763,1.232-7.208,16.172.441.2q-.364.145-.738.268a12.994,12.994,0,0,1-1.533.4,16.21,16.21,0,0,1-6.664-.176l.206-.462-8.628-3.846-.142.319q-.821-.6-1.616-1.271a28.749,28.749,0,0,1-3.033-2.993l.147.066,7.992-17.931Z" transform="translate(-1124.23 -1486.114)"/><path class="i" d="M1144.235,1489.506l6.246,2.784,2.9,1.293.079-.177q.1.445.177.888l-.433-.193-6.913,15.51.21.093q-.359.144-.727.264a12.788,12.788,0,0,1-1.51.392,15.971,15.971,0,0,1-6.565-.174l.108-.242-6.722-3-.182.409a27.427,27.427,0,0,1-6.22-5.3l.059.026,7.907-17.741Z" transform="translate(-1124.832 -1486.114)"/><path class="j" d="M1143.555,1489.467l6.151,2.741,2.857,1.274.043-.1q.1.438.174.874l-.2-.089-6.58,14.763.446.2a12.138,12.138,0,0,1-2.9.951,15.728,15.728,0,0,1-6.465-.171l.01-.021-6.62-2.95-.083.186a27,27,0,0,1-6.126-5.221q-.174-.2-.344-.4l.407.181,7.73-17.343Z" transform="translate(-1124.239 -1486.114)"/><path class="k" d="M1144.087,1489.428l6.057,2.7,2.813,1.254.007-.016q.1.431.172.861t.133.855l-.393-.175-6.182,13.872.208.093a11.966,11.966,0,0,1-2.854.936,15.489,15.489,0,0,1-6.366-.169,21.724,21.724,0,0,1-6.59-2.743,26.585,26.585,0,0,1-6.032-5.141q-.172-.2-.339-.395l.312.139,7.646-17.156Z" transform="translate(-1124.86 -1486.114)"/><path class="l" d="M1144.619,1489.389l5.962,2.657,2.529,1.127.113-.253q.052.213.1.425.094.425.169.847t.13.841l-.152-.068-5.852,13.13.388.173q-.32.18-.652.339a11.762,11.762,0,0,1-2.809.921,15.245,15.245,0,0,1-6.266-.166,23.9,23.9,0,0,1-12.425-7.76q-.169-.193-.333-.389l.217.1,7.563-16.968Z" transform="translate(-1125.48 -1486.114)"/><path class="m" d="M1145.151,1489.349l5.867,2.615,2.244,1,.213-.477a19.616,19.616,0,0,1,.589,3.321l-.292-.13-5.469,12.27.144.064q-.315.177-.642.333a11.574,11.574,0,0,1-2.765.906,15,15,0,0,1-6.167-.163,23.522,23.522,0,0,1-12.228-7.637q-.166-.19-.328-.382l.122.054,7.479-16.781Z" transform="translate(-1126.101 -1486.114)"/><path class="n" d="M1144.594,1489.31l5.772,2.573,2.208.984.172-.387a19.284,19.284,0,0,1,.58,3.267l-.046-.02-5.142,11.537.27.12a10.557,10.557,0,0,1-1.241.7,11.4,11.4,0,0,1-2.72.892,14.756,14.756,0,0,1-6.067-.161,23.143,23.143,0,0,1-12.031-7.514q-.327-.374-.636-.756l.43.192,7.306-16.393Z" transform="translate(-1125.631 -1486.114)"/><path class="o" d="M1145.144,1489.271l5.678,2.531,2.171.968.132-.3a18.971,18.971,0,0,1,.57,3.214q.069.791.064,1.563l-.433-.193-4.487,10.068.019.009a10.358,10.358,0,0,1-1.221.687,11.2,11.2,0,0,1-2.675.878,14.519,14.519,0,0,1-5.968-.158,22.765,22.765,0,0,1-11.833-7.391q-.322-.368-.626-.744l.328.146,7.224-16.208Z" transform="translate(-1126.269 -1486.114)"/><path class="p" d="M1145.694,1489.231l5.583,2.489,2.135.952.091-.2a18.651,18.651,0,0,1,.561,3.16q.068.777.063,1.537l-.176-.078-3.916,8.786.381.17c-2.823,2.468-6.746,3.137-10.808,2.224a22.383,22.383,0,0,1-11.636-7.267q-.317-.362-.616-.731l.227.1,7.142-16.024Z" transform="translate(-1126.908 -1486.114)"/><path class="q" d="M1146.244,1489.192l5.489,2.446,2.1.935.051-.114a18.331,18.331,0,0,1,.551,3.106,15.42,15.42,0,0,1-.02,2.978l-.4-.176-3.29,7.382.12.053c-2.775,2.426-6.632,3.084-10.624,2.187a22.007,22.007,0,0,1-11.439-7.144q-.311-.356-.605-.719l.126.056,7.06-15.84Z" transform="translate(-1127.546 -1486.114)"/><path class="r" d="M1146.794,1489.153l5.394,2.4,2.063.919.01-.023a17.98,17.98,0,0,1,.542,3.053,15.145,15.145,0,0,1-.02,2.927l-.13-.058-2.722,6.107.3.132a9.744,9.744,0,0,1-.949.952c-5.454,4.768-15.162,2.587-21.683-4.872q-.306-.35-.595-.706l.024.011,6.978-15.656Z" transform="translate(-1128.184 -1486.114)"/><path class="s" d="M1146.371,1489.113l5.3,2.362,1.562.7.216-.485q.118.38.218.759a17.682,17.682,0,0,1,.532,3,13.553,13.553,0,0,1-.6,5.54l-.372-.166-1.069,2.4.3.132a9.608,9.608,0,0,1-1.72,1.979c-5.358,4.685-14.9,2.542-21.3-4.786q-.3-.344-.584-.694-.142-.175-.28-.352l.287.128,6.811-15.282Z" transform="translate(-1127.849 -1486.114)"/><path class="t" d="M1146.939,1489.074l5.2,2.32,1.534.684.171-.384q.116.373.214.746a17.387,17.387,0,0,1,.523,2.946,13.307,13.307,0,0,1-.587,5.441,9.777,9.777,0,0,1-2.813,4.267c-5.263,4.6-14.63,2.5-20.922-4.7q-.295-.337-.574-.681-.14-.172-.275-.346l.179.08,6.73-15.1Z" transform="translate(-1128.506 -1486.114)"/><path class="u" d="M1146.6,1489.035l5.11,2.278,1.506.671.126-.283q.113.366.21.732a17.057,17.057,0,0,1,.513,2.892c.331,3.8-.755,7.273-3.339,9.531-5.167,4.517-14.364,2.451-20.542-4.615q-.579-.663-1.1-1.351l.417.186,6.566-14.732Z" transform="translate(-1128.251 -1486.114)"/><path class="v" d="M1147.18,1489l5.016,2.235,1.479.659.082-.183q.111.359.207.718a16.742,16.742,0,0,1,.5,2.839c.325,3.725-.742,7.138-3.277,9.355-5.071,4.433-14.1,2.405-20.161-4.53q-.568-.65-1.075-1.325l.3.135,6.487-14.554Z" transform="translate(-1128.924 -1486.114)"/><path class="w" d="M1147.765,1488.956l4.921,2.193,1.451.647.037-.082q.109.352.2.7a16.428,16.428,0,0,1,.494,2.785c.319,3.655-.727,7-3.215,9.178-4.975,4.35-13.832,2.36-19.781-4.445q-.558-.638-1.055-1.3l.188.084,6.408-14.377Z" transform="translate(-1129.596 -1486.114)"/><path class="x" d="M1148.349,1488.917l4.826,2.151.974.434.211-.474q.245.692.428,1.383a16.132,16.132,0,0,1,.485,2.732c.313,3.585-.713,6.868-3.153,9-4.88,4.266-13.566,2.315-19.4-4.359q-.547-.626-1.035-1.276l.073.033,6.329-14.2Z" transform="translate(-1130.269 -1486.114)"/><path class="y" d="M1148.116,1488.877l4.732,2.109.955.425.162-.364q.24.679.42,1.356a15.776,15.776,0,0,1,.475,2.678c.307,3.514-.7,6.734-3.091,8.825-4.784,4.183-13.3,2.269-19.02-4.274q-.536-.613-1.014-1.25-.12-.159-.235-.319l.274.122,6.17-13.843Z" transform="translate(-1130.124 -1486.114)"/><path class="z" d="M1147.941,1488.838l4.637,2.067.936.417.113-.253q.236.665.412,1.329a15.482,15.482,0,0,1,.466,2.625,10.008,10.008,0,0,1-3.03,8.648c-4.688,4.1-13.034,2.224-18.64-4.188q-.525-.6-.994-1.225-.234-.312-.454-.628l.457.2,6.012-13.489Z" transform="translate(-1130.036 -1486.114)"/><path class="aa" d="M1148.557,1488.8l4.542,2.025.916.408.064-.143q.231.651.4,1.3a15.159,15.159,0,0,1,.456,2.571,9.8,9.8,0,0,1-2.968,8.472c-4.593,4.015-12.768,2.178-18.259-4.1q-.515-.589-.974-1.2-.229-.305-.445-.615l.33.147,5.936-13.319Z" transform="translate(-1130.741 -1486.114)"/><path class="ab" d="M1149.174,1488.759l4.448,1.982.9.4.015-.033q.226.638.4,1.275a14.879,14.879,0,0,1,.447,2.518,9.6,9.6,0,0,1-2.906,8.3c-4.5,3.932-12.5,2.133-17.879-4.017q-.5-.576-.953-1.175-.225-.3-.436-.6l.2.09,5.86-13.149Z" transform="translate(-1131.446 -1486.114)"/><path class="ac" d="M1149.791,1488.72l4.353,1.94.45.2.158-.355q.124.312.235.624.221.624.387,1.248a14.54,14.54,0,0,1,.437,2.464,9.4,9.4,0,0,1-2.844,8.119c-4.4,3.848-12.236,2.087-17.5-3.932q-.494-.564-.933-1.15-.22-.292-.426-.59l.076.034,5.785-12.979Z" transform="translate(-1132.151 -1486.114)"/><path class="ad" d="M1149.05,1488.681l4.258,1.9.441.2.105-.236q.122.305.23.61.216.61.378,1.22a14.217,14.217,0,0,1,.428,2.41,9.192,9.192,0,0,1-2.782,7.943c-4.305,3.764-11.969,2.042-17.118-3.846a19.31,19.31,0,0,1-1.72-2.287l.492.219,5.556-12.466Z" transform="translate(-1131.499 -1486.114)"/><path class="ae" d="M1149.7,1488.641l4.164,1.856.431.192.052-.116q.119.3.225.6.211.6.37,1.193a13.9,13.9,0,0,1,.418,2.357,8.988,8.988,0,0,1-2.72,7.766c-4.21,3.681-11.7,2-16.738-3.761a18.852,18.852,0,0,1-1.682-2.237l.353.158,5.483-12.3Z" transform="translate(-1132.233 -1486.114)"/><path class="af" d="M1150.344,1488.6l4.069,1.814.174-.391a14.6,14.6,0,0,1,1.235,4.634,8.784,8.784,0,0,1-2.659,7.59c-4.114,3.6-11.438,1.951-16.357-3.676a18.432,18.432,0,0,1-1.644-2.186l.214.1,5.411-12.14Z" transform="translate(-1132.969 -1486.114)"/><path class="ag" d="M1150.991,1488.563l3.975,1.771.117-.262a14.261,14.261,0,0,1,1.206,4.526,8.578,8.578,0,0,1-2.6,7.413c-4.018,3.514-11.172,1.906-15.977-3.59a17.994,17.994,0,0,1-1.606-2.135l.075.034,5.339-11.978Z" transform="translate(-1133.704 -1486.114)"/><path class="ah" d="M1150.485,1488.523l3.88,1.729.059-.133a13.923,13.923,0,0,1,1.177,4.419,8.375,8.375,0,0,1-2.535,7.237c-3.923,3.43-10.906,1.861-15.6-3.5a17.611,17.611,0,0,1-1.567-2.084q-.172-.268-.332-.539l.413.184,5.12-11.489Z" transform="translate(-1133.286 -1486.114)"/><path class="ai" d="M1151.16,1488.484l3.785,1.687,0,0a13.576,13.576,0,0,1,1.149,4.311,8.17,8.17,0,0,1-2.473,7.06c-3.827,3.346-10.64,1.815-15.216-3.419a17.1,17.1,0,0,1-1.529-2.033q-.168-.262-.323-.526l.263.117,5.052-11.334Z" transform="translate(-1134.05 -1486.114)"/><path class="aj" d="M1151.835,1488.445l1.981.883,1.309.583.1-.222q.129.262.246.526a13.237,13.237,0,0,1,1.12,4.2,7.967,7.967,0,0,1-2.411,6.884c-3.732,3.262-10.374,1.77-14.836-3.334a16.723,16.723,0,0,1-1.491-1.982q-.163-.255-.315-.513l.112.05,4.983-11.179Z" transform="translate(-1134.813 -1486.114)"/><path class="ak" d="M1151.519,1488.406l1.93.86.867.387.183-.411q.274.507.5,1.021a12.9,12.9,0,0,1,1.091,4.1,7.761,7.761,0,0,1-2.349,6.707c-3.636,3.179-10.108,1.725-14.455-3.248a16.326,16.326,0,0,1-1.453-1.931q-.319-.5-.592-1l.387.172,4.773-10.709Z" transform="translate(-1134.586 -1486.114)"/><path class="al" d="M1152.221,1488.366l1.879.838.845.376.118-.265q.267.494.489.994a12.554,12.554,0,0,1,1.063,3.988,7.558,7.558,0,0,1-2.288,6.531c-3.54,3.1-9.842,1.679-14.075-3.163a15.845,15.845,0,0,1-1.414-1.881q-.31-.484-.577-.978l.225.1,4.708-10.563Z" transform="translate(-1135.375 -1486.114)"/><path class="am" d="M1152.922,1488.327l1.829.815.822.366.053-.119q.259.48.476.967a12.222,12.222,0,0,1,1.034,3.88,7.353,7.353,0,0,1-2.226,6.354c-3.445,3.012-9.576,1.634-13.695-3.077a15.44,15.44,0,0,1-1.376-1.83q-.3-.471-.561-.952l.063.028,4.643-10.417Z" transform="translate(-1136.164 -1486.114)"/><path class="am" d="M1152.783,1488.288l1.778.792.407.182.117-.263q.136.232.262.465.252.467.462.94a11.878,11.878,0,0,1,1.005,3.772,7.149,7.149,0,0,1-2.164,6.177c-3.349,2.928-9.31,1.589-13.314-2.992a14.956,14.956,0,0,1-1.338-1.779q-.294-.458-.546-.925-.126-.233-.241-.469l.277.124,4.443-9.969Z" transform="translate(-1136.114 -1486.114)"/><path class="an" d="M1152.763,1488.248l1.727.77.169-.379a13.623,13.623,0,0,1,.979,1.812,11.546,11.546,0,0,1,.976,3.664,6.945,6.945,0,0,1-2.1,6c-3.253,2.844-9.044,1.543-12.934-2.906a14.111,14.111,0,0,1-2.279-3.54l.454.2,4.247-9.529Z" transform="translate(-1136.182 -1486.114)"/><path class="ao" d="M1153.51,1488.209l1.676.747.1-.217a13.237,13.237,0,0,1,.95,1.759,11.2,11.2,0,0,1,.948,3.557,6.74,6.74,0,0,1-2.04,5.824c-3.157,2.761-8.778,1.5-12.553-2.821a13.712,13.712,0,0,1-2.212-3.436l.271.121,4.19-9.4Z" transform="translate(-1137.017 -1486.114)"/><path class="ap" d="M1154.257,1488.17l1.625.724.024-.054a12.829,12.829,0,0,1,.921,1.706,10.862,10.862,0,0,1,.919,3.449,6.537,6.537,0,0,1-1.979,5.648c-3.062,2.677-8.512,1.452-12.173-2.735a13.287,13.287,0,0,1-2.144-3.332l.088.039,4.132-9.271Z" transform="translate(-1137.853 -1486.114)"/><path class="aq" d="M1153.839,1488.13l.813.362.157-.352q.3.394.556.8a12.423,12.423,0,0,1,.893,1.652,10.524,10.524,0,0,1,.89,3.341,6.333,6.333,0,0,1-1.917,5.472c-2.966,2.593-8.246,1.407-11.792-2.65a12.885,12.885,0,0,1-2.078-3.228q-.186-.419-.335-.84l.5.222,3.818-8.567Z" transform="translate(-1137.523 -1486.114)"/><path class="aq" d="M1154.624,1488.091l.787.351.078-.175q.287.382.538.775a12.047,12.047,0,0,1,.864,1.6,10.183,10.183,0,0,1,.861,3.233,6.128,6.128,0,0,1-1.855,5.3c-2.87,2.51-7.98,1.361-11.412-2.564a12.454,12.454,0,0,1-2.01-3.124q-.18-.4-.324-.812l.3.131,3.769-8.456Z" transform="translate(-1138.396 -1486.114)"/><path class="ar" d="M1155.579,1487.668c3.318,3.795,3.758,8.838.983,11.264s-7.714,1.316-11.031-2.479a12.049,12.049,0,0,1-1.944-3.02q-.174-.392-.313-.786l.093.042,3.72-8.346,8.321,3.709Z" transform="translate(-1139.269 -1486.114)"/><path class="ar" d="M1155.46,1487.82c3.2,3.664,3.629,8.533.949,10.875s-7.448,1.271-10.651-2.393a11.632,11.632,0,0,1-1.876-2.916,10.168,10.168,0,0,1-.538-1.518l.37.165,3.427-7.69,8.233,3.669Z" transform="translate(-1139.323 -1486.114)"/><path class="as" d="M1156.19,1488.4c3.089,3.533,3.5,8.228.916,10.487s-7.182,1.225-10.271-2.308a11.219,11.219,0,0,1-1.81-2.812,9.782,9.782,0,0,1-.519-1.464l.151.067,3.161-7.093-.257-.115a5.232,5.232,0,0,1,.618-.161,5.951,5.951,0,0,1,1.31-.105l-.193.432,6.892,3.072Z" transform="translate(-1140.225 -1486.543)"/><path class="at" d="M1156.378,1489.53c2.975,3.4,3.369,7.924.882,10.1s-6.916,1.18-9.891-2.222a10.8,10.8,0,0,1-1.743-2.708,9.436,9.436,0,0,1-.5-1.409q-.094-.352-.155-.7l.322.144,2.632-5.905-.421-.188a4.861,4.861,0,0,1,1.16-.38,5.729,5.729,0,0,1,1.261-.1l-.1.225,5.223,2.328.153-.343A11.129,11.129,0,0,1,1156.378,1489.53Z" transform="translate(-1140.587 -1487.522)"/><path class="at" d="M1156.821,1490.659c2.86,3.271,3.24,7.619.848,9.71s-6.65,1.135-9.51-2.137a9.486,9.486,0,0,1-2.394-5.3l.409.182,2.3-5.156-.183-.082a4.669,4.669,0,0,1,1.115-.366,6.048,6.048,0,0,1,2.486.066l-.159.356,2.546,1.135.187-.42A10.387,10.387,0,0,1,1156.821,1490.659Z" transform="translate(-1141.203 -1488.499)"/><path class="au" d="M1157.583,1491.788c2.746,3.141,3.11,7.314.814,9.322s-6.384,1.089-9.13-2.051a9.106,9.106,0,0,1-2.3-5.086l.162.072,1.821-4.086-.5-.222a4.9,4.9,0,0,1,4.4-.9A9.105,9.105,0,0,1,1157.583,1491.788Z" transform="translate(-1142.138 -1489.477)"/><path class="au" d="M1158.259,1492.917c2.631,3.01,2.98,7.009.78,8.933s-6.118,1.044-8.749-1.966a8.727,8.727,0,0,1-2.2-4.874,6.106,6.106,0,0,1,.008-1.181l.348.155,1.3-2.927-.238-.106a4.7,4.7,0,0,1,4.213-.867A8.727,8.727,0,0,1,1158.259,1492.917Z" transform="translate(-1142.987 -1490.455)"/><path class="av" d="M1159.024,1494.047c2.517,2.879,2.851,6.7.746,8.545s-5.852,1-8.369-1.88a8.348,8.348,0,0,1-2.106-4.662,5.327,5.327,0,0,1,.235-2.176,3.909,3.909,0,0,1,1.126-1.707,4.493,4.493,0,0,1,4.03-.829A8.347,8.347,0,0,1,1159.024,1494.047Z" transform="translate(-1143.926 -1491.432)"/><path class="av" d="M1159.79,1495.176c2.4,2.748,2.721,6.4.712,8.156s-5.586.953-7.988-1.795a7.968,7.968,0,0,1-2.01-4.45,4.29,4.29,0,0,1,1.3-3.707C1153.81,1491.624,1157.387,1492.427,1159.79,1495.176Z" transform="translate(-1144.865 -1492.41)"/><ellipse class="av" cx="4.602" cy="6.295" rx="4.602" ry="6.295" transform="translate(3.679 4.237) rotate(-41.163)"/><ellipse class="b" cx="4.372" cy="5.98" rx="4.372" ry="5.98" transform="translate(4.059 4.322) rotate(-41.163)"/><ellipse class="b" cx="4.142" cy="5.665" rx="4.142" ry="5.665" transform="matrix(0.753, -0.658, 0.658, 0.753, 4.439, 4.408)"/><ellipse class="b" cx="3.912" cy="5.35" rx="3.912" ry="5.35" transform="translate(4.82 4.493) rotate(-41.163)"/><ellipse class="aw" cx="3.682" cy="5.036" rx="3.682" ry="5.036" transform="matrix(0.753, -0.658, 0.658, 0.753, 5.2, 4.579)"/><ellipse class="aw" cx="3.452" cy="4.721" rx="3.452" ry="4.721" transform="matrix(0.753, -0.658, 0.658, 0.753, 5.581, 4.664)"/><ellipse class="aw" cx="3.222" cy="4.406" rx="3.222" ry="4.406" transform="translate(5.961 4.75) rotate(-41.163)"/><ellipse class="aw" cx="2.992" cy="4.091" rx="2.992" ry="4.091" transform="matrix(0.753, -0.658, 0.658, 0.753, 6.341, 4.835)"/><ellipse class="aw" cx="2.761" cy="3.777" rx="2.761" ry="3.777" transform="translate(6.722 4.921) rotate(-41.163)"/><ellipse class="aw" cx="2.531" cy="3.462" rx="2.531" ry="3.462" transform="matrix(0.753, -0.658, 0.658, 0.753, 7.102, 5.006)"/><ellipse class="ax" cx="2.301" cy="3.147" rx="2.301" ry="3.147" transform="matrix(0.753, -0.658, 0.658, 0.753, 7.483, 5.092)"/><ellipse class="ax" cx="2.071" cy="2.833" rx="2.071" ry="2.833" transform="matrix(0.753, -0.658, 0.658, 0.753, 7.863, 5.177)"/><ellipse class="ax" cx="1.841" cy="2.518" rx="1.841" ry="2.518" transform="translate(8.243 5.263) rotate(-41.162)"/><ellipse class="ax" cx="1.611" cy="2.203" rx="1.611" ry="2.203" transform="matrix(0.753, -0.658, 0.658, 0.753, 8.624, 5.348)"/><ellipse class="ax" cx="1.381" cy="1.888" rx="1.381" ry="1.888" transform="matrix(0.753, -0.658, 0.658, 0.753, 9.004, 5.434)"/><path class="ax" d="M1172.038,1513.241a1.208,1.208,0,1,1-1.9-.427A1.413,1.413,0,0,1,1172.038,1513.241Z" transform="translate(-1159.885 -1508.052)"/><ellipse class="ax" cx="0.92" cy="1.259" rx="0.92" ry="1.259" transform="translate(9.765 5.605) rotate(-41.163)"/><ellipse class="ax" cx="0.69" cy="0.944" rx="0.69" ry="0.944" transform="matrix(0.753, -0.658, 0.658, 0.753, 10.145, 5.69)"/><path class="ax" d="M1174.334,1516.629a.483.483,0,1,1-.761-.171A.565.565,0,0,1,1174.334,1516.629Z" transform="translate(-1162.701 -1510.985)"/><path class="ax" d="M1175.1,1517.758a.241.241,0,1,1-.38-.085A.283.283,0,0,1,1175.1,1517.758Z" transform="translate(-1163.64 -1511.963)"/></g></g><path class="z" d="M1125.82,1504.408a12.163,12.163,0,0,1,.731-1.447,9.673,9.673,0,0,1,2.978-3.147,4.065,4.065,0,0,1,2.155-.72,1.881,1.881,0,0,1,.825.062,1.667,1.667,0,0,0-.433-.164,3.708,3.708,0,0,0-1.489.005,6.4,6.4,0,0,0-3.573,2.46,12.595,12.595,0,0,0-2.588,5.807,6.4,6.4,0,0,0,.56,4.3,3.717,3.717,0,0,0,.992,1.111,1.678,1.678,0,0,0,.411.213c-.232-.087-.448-.395-.6-.572a4.061,4.061,0,0,1-.905-2.083,9.668,9.668,0,0,1,.35-4.318,12.136,12.136,0,0,1,.588-1.511Z" transform="translate(-1123.255 -1497.433)"/><path class="ay" d="M1128.039,1492.27a6.175,6.175,0,0,0-4.038,1.922c-.224.207-.436.426-.638.653a15.3,15.3,0,0,0-3.65,8.189c-.034.3-.055.607-.059.911a6.176,6.176,0,0,0,1.271,4.288,3.524,3.524,0,0,0,1.971,1.08s2.318.539,5.329-2.757a14.876,14.876,0,0,0,3.448-7.736c.438-4.443-1.512-5.806-1.512-5.806A3.523,3.523,0,0,0,1128.039,1492.27Zm2.684,5.647a14.581,14.581,0,0,1-1.032,4.657h0v0a14.582,14.582,0,0,1-2.773,3.881c-2.83,2.405-4.546,1.059-4.546,1.059-1.927-1.434-1.674-4.182-1.674-4.182a12.293,12.293,0,0,1,3.545-7.953s1.874-2.025,4.229-1.551C1128.472,1493.828,1130.62,1494.2,1130.723,1497.916Z" transform="translate(-1119.652 -1492.27)"/><path class="az" d="M1138.877,1523.2a.24.24,0,0,0-.166.065c-.016.011-.03.023-.044.035l-.011.01-.013.011-.015.016-.013.014-.005.006-.02.026,0,.006,0,.005-.007.01-.012.02-.007.013,0,.009-.008.018-.009.025v0l0,.006c0,.01-.006.021-.009.032l0,.022c0,.006,0,.012,0,.019,0,.023-.008.047-.011.073h0v0c0,.026,0,.054-.006.084v.019c0,.03,0,.061,0,.095v.018c0,.031,0,.063,0,.1v.019c0,.038,0,.077.008.118,0,.009,0,.018,0,.027,0,.043.008.086.012.132q0,.044.01.085v.009c0,.011,0,.022,0,.033l0,.025c0,.015,0,.029.006.043l0,.022c0,.014,0,.028.007.042l0,.019.009.047,0,.009c0,.018.007.035.011.052l0,.016.008.031.005.019.007.024c0,.007,0,.013.006.019l.005.017v0c.005.015.011.03.016.043l0,0,.015.031,0,0,0,0a.287.287,0,0,0,.019.031l0,0h0a.171.171,0,0,0,.017.02h0l.016.014.014.009.3.133h0l-.017-.01h0l-.016-.014a.181.181,0,0,1-.017-.02l0,0a.3.3,0,0,1-.019-.031l-.005-.009c0-.009-.009-.019-.014-.03l0-.006c0-.011-.009-.023-.013-.035l.265.119,0,0-.263-.118,0-.006-.007-.022-.005-.016-.008-.027,0-.016-.008-.034,0-.014c0-.016-.007-.034-.011-.052l0-.01-.009-.046,0-.022-.006-.038,0-.026-.006-.038,0-.029,0-.037c0-.028-.007-.056-.01-.086-.005-.046-.009-.089-.013-.131,0-.01,0-.019,0-.029,0-.04-.006-.079-.008-.116,0-.007,0-.014,0-.02,0-.033,0-.064,0-.094,0-.006,0-.013,0-.02,0-.033,0-.064,0-.093,0-.007,0-.014,0-.02,0-.029,0-.057.006-.083v0c0-.026.007-.05.011-.073l0-.019c0-.02.008-.038.014-.055l0-.006a.389.389,0,0,1,.022-.055.4.4,0,0,1,.026-.044l0-.005c.009-.013.019-.025.03-.038l.012-.013.027-.028.011-.01c.014-.012.028-.024.044-.036a.24.24,0,0,1,.166-.065l.012,0-.3-.133Z" transform="translate(-1134.286 -1516.291)"/><path class="ba" d="M1142.394,1519.68l.022.015a.338.338,0,0,1,.038.032l.026.028.007.009.017.022.014.02.012.018.014.023.01.018c.01.019.02.04.029.062l.006.014c.008.019.015.038.022.058l.006.017c.009.027.018.055.026.085l0,.017c.008.029.015.059.022.091l0,.009c.007.034.014.069.02.106,0,.008,0,.016,0,.024.006.037.012.075.017.115s.006.052.009.08c.006.054.01.106.013.158l0,.028q0,.074.005.146v.028c0,.049,0,.1,0,.145v0c0,.046-.006.091-.01.136l0,.024c0,.043-.011.085-.018.126l0,.025c-.008.042-.016.084-.026.125l0,.011c-.006.023-.011.045-.018.067l-.008.026c0,.016-.01.032-.015.048-.011.032-.022.063-.035.094l-.01.024-.026.059-.015.03-.024.047c-.009.016-.017.032-.026.047l.3.133.017-.03.009-.017.024-.047.009-.017.005-.012c.009-.019.018-.039.026-.059l.008-.019,0-.006c.012-.031.024-.062.035-.094l0-.006c0-.013.009-.027.013-.041l.008-.026c.007-.024.014-.048.02-.073v0h0c.01-.04.018-.082.026-.124l0-.024c.007-.041.013-.083.018-.126v-.009s0-.01,0-.015c0-.045.008-.09.01-.136v0c0-.047,0-.1,0-.145v-.028c0-.048,0-.1-.005-.146,0-.01,0-.019,0-.029,0-.052-.008-.1-.013-.158q0-.038-.009-.075v0c-.005-.04-.011-.079-.017-.116l0-.024c-.006-.037-.013-.073-.02-.107l0-.009c-.007-.032-.014-.062-.022-.091l0-.018c-.008-.03-.016-.058-.026-.085l0-.007,0-.01c-.007-.02-.014-.04-.022-.058l-.006-.014c-.009-.022-.019-.042-.029-.061l0,0-.008-.014-.013-.024-.012-.018-.014-.021,0-.005-.012-.015-.008-.01-.025-.027h0a.379.379,0,0,0-.038-.032l0,0-.017-.011-.026-.014-.007,0-.3-.133Z" transform="translate(-1137.288 -1513.543)"/><path class="az" d="M1139.726,1533.044a.328.328,0,0,0-.035.03l0,0-.024.026h0l0,0-.014.018-.009.013,0,.007,0,.005-.015.027,0,.005,0,.009-.008.016-.009.019-.005.012,0,.006c0,.009-.007.018-.01.028l-.007.02v0l0,.011c-.006.019-.011.038-.017.058l0,.01-.009.038q-.007.034-.013.069c0,.008,0,.017,0,.025s0,.031-.006.046h0c0,.034-.006.069-.008.1,0,.008,0,.017,0,.026,0,.036,0,.073,0,.112v0c0,.039,0,.079,0,.121,0,.01,0,.02,0,.03,0,.042.006.085.011.129l.048.443c0,.018,0,.036.006.054s0,.019,0,.028l0,.017c0,.026.007.05.011.073l0,.012c0,.021.007.041.011.061l0,.01c0,.021.008.041.013.059l0,.01c0,.017.008.034.013.049v0l.011.035,0,.008.005.014.011.026.005.012,0,.008.012.02,0,.006.013.016,0,0,0,0,.007.006.006,0h0l-.006,0,.014.009h0l.3.133a.1.1,0,0,1-.024-.015l0,0a.147.147,0,0,1-.021-.024.3.3,0,0,1-.015-.028l-.006-.012-.01-.025-.005-.015c0-.013-.009-.027-.014-.042l0-.006c0-.015-.008-.03-.012-.047l0-.012c0-.018-.008-.037-.012-.057l0-.013c0-.018-.007-.037-.01-.057l0-.014c0-.023-.007-.047-.011-.072l0-.019c0-.026-.007-.052-.01-.081l-.048-.443c0-.044-.008-.087-.011-.128,0-.01,0-.021,0-.031,0-.041,0-.082,0-.12v0c0-.038,0-.074,0-.109,0-.009,0-.018,0-.027,0-.036,0-.071.008-.1,0-.017,0-.033.006-.049l0-.023q.006-.035.013-.069c0-.017.008-.032.011-.048s.011-.04.017-.058l0-.015.007-.019c0-.012.008-.023.013-.034l.005-.012.016-.035,0-.009c.007-.013.014-.026.022-.037l0-.007.023-.031,0,0,.027-.03a.336.336,0,0,1,.035-.029.14.14,0,0,1,.143-.029l-.3-.133A.14.14,0,0,0,1139.726,1533.044Z" transform="translate(-1135.065 -1523.905)"/><path class="bb" d="M1139.674,1529.966l.032.019.01.007a.393.393,0,0,1,.043.036l.018.02.01.01.028.035c.011.014.021.03.031.046l.009.016.021.036.021.04c.012.024.023.05.034.076l.01.027q.01.027.02.054l.01.031c.007.021.013.041.019.063l.009.032c.007.025.013.051.019.078l.005.021c.007.034.014.068.02.1l0,.029c0,.027.009.054.012.083s.006.049.009.074l.039.365q.009.09.014.177c0,.019,0,.037,0,.056,0,.038,0,.077,0,.114,0,.022,0,.044,0,.065s0,.066,0,.1,0,.046,0,.069,0,.059-.007.088-.006.044-.009.066-.007.057-.012.085-.008.043-.013.064-.01.054-.017.08-.018.074-.029.11l-.006.019c-.012.04-.026.08-.04.118s-.029.071-.045.105l-.009.022c-.017.036-.036.071-.055.106l-.017.03c-.014.025-.029.049-.045.073l-.026.039-.043.059-.04.051c-.02.024-.039.048-.06.071l-.013.015c-.028.03-.057.06-.086.088l-.015.014c-.03.028-.061.056-.093.083l-.012.009c-.034.028-.069.056-.106.083q-.44.319-.705.2l.3.133q.266.119.705-.2c.037-.026.072-.054.106-.082l.012-.01c.032-.027.063-.054.093-.082l.015-.014.016-.015c.025-.024.048-.049.071-.073l.013-.015.042-.048.018-.023c.014-.016.027-.034.04-.051l.024-.031.019-.029.026-.039.017-.026c.01-.016.019-.032.028-.048l.017-.03.007-.011c.016-.03.031-.059.046-.09l0,0,.01-.022c.01-.023.021-.046.031-.07l.014-.036c.01-.026.019-.052.028-.078l.012-.04.006-.019c.009-.031.018-.062.026-.094,0-.005,0-.011,0-.017.006-.026.012-.054.017-.081s.009-.042.012-.064.008-.058.012-.088.006-.035.008-.053,0-.007,0-.011c0-.029,0-.06.007-.09s0-.044.005-.067,0-.065,0-.1,0-.043,0-.066,0-.075,0-.113c0-.019,0-.038,0-.057,0-.058-.008-.117-.014-.177l-.039-.365c0-.019,0-.038-.007-.057l0-.017c0-.028-.008-.055-.012-.082,0-.01,0-.02,0-.029-.006-.036-.013-.07-.02-.1l-.005-.022c-.006-.026-.012-.052-.019-.077l-.009-.031c-.006-.022-.013-.043-.02-.064l-.006-.018,0-.011c-.007-.019-.014-.038-.021-.056l-.01-.026c-.011-.026-.022-.052-.034-.076l-.016-.032,0-.008-.02-.036-.01-.016c-.01-.016-.021-.032-.031-.046h0l-.028-.035-.009-.01-.017-.018v0a.415.415,0,0,0-.042-.036l0,0-.006,0-.032-.019-.007,0-.007,0-.3-.133Z" transform="translate(-1134.381 -1521.539)"/><path class="ay" d="M1136.33,1519.794a1.9,1.9,0,0,0-.684.837,2.482,2.482,0,0,0-.112,1.173q.091.845.471.894a1.949,1.949,0,0,0-.218.672,3.018,3.018,0,0,0-.021.788c.028.256.043.391.046.4q.082.686.354.851t.746-.178a1.855,1.855,0,0,0,.666-.848,2.653,2.653,0,0,0,.122-1.211l-.039-.365a2.034,2.034,0,0,0-.174-.671c-.087-.178-.189-.276-.309-.294a2.267,2.267,0,0,0,.223-1.4q-.077-.712-.324-.864T1136.33,1519.794Zm.658,3.411.047.434a2.326,2.326,0,0,1,.01.59.49.49,0,0,1-.21.316q-.177.128-.25.017a1.363,1.363,0,0,1-.117-.5l-.048-.443a2.151,2.151,0,0,1,.015-.665.588.588,0,0,1,.193-.368Q1136.9,1522.39,1136.988,1523.2Zm-.322-2.687a2.754,2.754,0,0,1,.082.482,3.345,3.345,0,0,1,.022.554,1,1,0,0,1-.063.326.414.414,0,0,1-.139.175l0,0c-.063.046-.115.059-.156.041q-.14-.061-.206-.68a1.711,1.711,0,0,1,.034-.816.49.49,0,0,1,.154-.174.24.24,0,0,1,.166-.065C1136.6,1520.367,1136.635,1520.42,1136.666,1520.518Z" transform="translate(-1131.969 -1513.447)"/><path class="az" d="M1148.831,1516.295a.547.547,0,0,0-.052.044l-.006.005-.008.009-.016.017-.009.009-.01.014-.007.009,0,.005-.017.025,0,0,0,.006-.009.015-.012.023v0h0l-.013.029,0,.011,0,.012,0,.011-.005.018c0,.007,0,.014-.006.022l0,.007c0,.012-.006.025-.008.039s-.007.045-.01.069v.007c0,.009,0,.02,0,.03l0,.019c0,.02,0,.041,0,.063v.007c0,.02,0,.041,0,.062s0,.016,0,.025,0,.032,0,.049,0,.019,0,.029,0,.033,0,.051,0,.02,0,.03,0,.038,0,.058,0,.018,0,.027c0,.029.005.059.009.089l.051.474c0,.034.008.068.012.1v.014c0,.027.007.052.01.076l0,.019c0,.026.008.051.012.074l0,.014.011.058,0,.013c0,.02.009.039.014.057l0,.013c0,.015.009.03.013.044l0,.007v0c0,.015.01.029.016.041l0,.009c0,.006.006.013.009.019l.006.011.011.017h0l.012.014,0,0h0l.007.006.008.007h0l.006,0,.009.005h0l.3.133-.012-.006-.006,0-.009-.007-.007-.006,0,0-.012-.014a.164.164,0,0,1-.012-.018.286.286,0,0,1-.015-.031l0-.009c-.006-.013-.011-.027-.016-.043l0-.007c0-.013-.009-.028-.013-.044l0-.013c0-.018-.009-.037-.014-.057l0-.014-.011-.057,0-.014q-.006-.035-.012-.074l0-.018c0-.025-.007-.052-.011-.079v-.007c0-.033-.008-.067-.012-.1l-.051-.474c0-.031-.006-.06-.008-.089,0-.009,0-.017,0-.026s0-.04,0-.059,0-.02,0-.029,0-.035,0-.052,0-.019,0-.028,0-.034,0-.051,0-.015,0-.023c0-.022,0-.044,0-.065v0c0-.022,0-.043,0-.064l0-.018c0-.013,0-.025,0-.037s.006-.047.01-.069.007-.031.01-.046l.006-.021.009-.03,0-.012c.005-.014.011-.027.017-.04v0c.006-.013.013-.025.02-.037l0-.007.023-.035.008-.01.019-.022.016-.017.014-.014a.492.492,0,0,1,.052-.044q.109-.079.18-.048l-.3-.133Q1148.941,1516.215,1148.831,1516.295Z" transform="translate(-1142.138 -1510.883)"/><path class="au" d="M1148.8,1527.063l-.017.026-.016.023-.031.04-.018.022-.019.021-.025.028-.021.021-.029.028-.02.019-.032.029-.021.018-.038.031-.019.015-.061.046q-.338.245-.55.151l.3.133q.212.1.55-.151l.061-.046.018-.015.039-.032.021-.018.032-.029.02-.019.015-.014.013-.014.021-.022.026-.027.019-.021.008-.009.01-.013.031-.04.009-.012.007-.011.017-.026.01-.015.013-.022-.3-.133Z" transform="translate(-1141.58 -1519.261)"/><path class="az" d="M1150.052,1531.28c0,.034.008.067.012.1l0,.012,0,.016c0,.028.007.055.011.081l0,.021c0,.029.009.057.013.083l0,.011c0,.022.008.043.012.063l0,.019c0,.021.009.041.013.059v0c0,.019.01.036.014.053l0,.013,0,.014c0,.008.005.014.008.021l0,.008a.287.287,0,0,0,.013.03l0,.006a.164.164,0,0,0,.028.037h0l.014.012h0l.014.008.041.018.258.116-.016-.009h0l-.015-.013-.014-.017a.16.16,0,0,1-.013-.021.3.3,0,0,1-.017-.035l0-.009c0-.01-.008-.022-.012-.035l0-.014c0-.016-.01-.033-.014-.053v0c0-.018-.009-.039-.013-.06l0-.019c0-.02-.008-.041-.012-.063l0-.012c0-.026-.009-.054-.013-.083l0-.024q-.005-.036-.01-.075l0-.023c0-.035-.009-.071-.013-.109l-.012-.112-.3-.133Z" transform="translate(-1143.251 -1522.478)"/><path class="bb" d="M1149.795,1512.329l.035.021.015.01a.375.375,0,0,1,.031.026l.012.011a.445.445,0,0,1,.041.047c.009.013.019.026.027.041l.006.011.019.034.014.029.012.027.012.033c0,.013.01.025.014.039s.015.049.022.075l.007.026.015.056.008.033c0,.018.009.037.013.057l.008.037c0,.02.008.04.012.061s.005.025.007.038.008.048.012.072,0,.022.006.033c.006.036.011.073.016.111,0,.008,0,.016,0,.023,0,.031.009.062.012.094.006.048.012.1.017.149l.228,2.122c0,.042.009.084.012.126l0,.04c0,.028,0,.056.006.083s0,.03,0,.045,0,.052,0,.078,0,.027,0,.041c0,.031,0,.062,0,.093v.021c0,.037,0,.073,0,.109v.034c0,.025,0,.049,0,.073s0,.025,0,.038,0,.045,0,.067,0,.024,0,.036,0,.05-.007.075c0,.008,0,.016,0,.024s0,.027,0,.04,0,.029-.006.043,0,.025-.006.037,0,.029-.007.043,0,.024-.007.036-.005.028-.008.042l-.008.034c0,.014-.006.027-.009.041l-.01.038-.009.034c0,.015-.009.029-.014.044l-.008.026c-.014.042-.03.083-.046.124l-.013.029c-.013.03-.026.059-.041.088l-.016.031c-.016.03-.033.06-.051.09l-.01.018q-.033.053-.069.1l-.029.037c-.018.023-.035.046-.054.068l-.016.018c-.026.03-.052.058-.081.086l0,0c-.022.021-.045.042-.068.062l-.034.031q-.053.045-.111.087-.43.312-.674.2l.3.133q.245.11.675-.2.057-.042.111-.087l.038-.035c.021-.019.043-.037.063-.057h0l0,0c.028-.028.055-.057.081-.086l.016-.018.013-.014c.014-.017.028-.036.042-.053l.029-.037.006-.007c.021-.029.041-.058.06-.089l0-.006.011-.02c.012-.02.025-.04.036-.061l.014-.027.017-.032.015-.029c.009-.019.017-.038.025-.057l.013-.03,0-.01c.015-.037.029-.075.042-.113h0l.008-.026.013-.043.009-.035.01-.037v0c0-.012.005-.025.008-.037l.008-.036.007-.039c0-.013.005-.026.007-.039s0-.026.006-.038,0-.028.007-.042,0-.026,0-.039,0-.029.006-.044v0c0-.006,0-.013,0-.019,0-.025,0-.05.007-.076l0-.035c0-.023,0-.045,0-.068s0-.025,0-.037,0-.05,0-.075,0-.021,0-.032c0-.036,0-.072,0-.11,0-.005,0-.011,0-.016,0-.032,0-.065,0-.1,0-.013,0-.026,0-.038s0-.054,0-.081,0-.028,0-.042,0-.057-.006-.086c0-.013,0-.025,0-.038,0-.042-.008-.083-.012-.126l-.228-2.122c-.006-.051-.011-.1-.017-.149v-.01c0-.028-.007-.056-.011-.083l0-.023c-.005-.038-.011-.075-.017-.111l-.005-.033c0-.025-.008-.049-.012-.072l-.007-.038-.012-.061-.008-.037-.013-.057-.008-.033c0-.019-.01-.038-.015-.056l-.007-.026c-.007-.026-.015-.052-.023-.075l-.006-.017c0-.007-.006-.014-.008-.021l-.012-.032-.013-.028c0-.01-.009-.02-.013-.029l0-.009-.014-.025-.006-.011c-.008-.014-.017-.027-.026-.039l0,0,0-.006-.026-.03-.008-.009-.006-.006-.009-.007a.372.372,0,0,0-.031-.026l-.008-.006-.007,0a.322.322,0,0,0-.035-.02l-.01-.006-.008,0-.3-.133Z" transform="translate(-1142.459 -1507.841)"/><path class="ay" d="M1147.169,1512.2q-.22-.053-.641.252a1.846,1.846,0,0,0-.618.748,3.06,3.06,0,0,0-.136,1.533l.021.193a2.017,2.017,0,0,0,.311,1.046q.226.256.665-.063a1.381,1.381,0,0,0,.39-.4l.085.794a2.685,2.685,0,0,1,.028.485q-.014.087-.041.186a.423.423,0,0,1-.175.207c-.1.072-.172.065-.219-.019a2.08,2.08,0,0,1-.126-.616l-.012-.112-.625.453.031.29q.079.714.327.868t.713-.182a1.733,1.733,0,0,0,.643-.875,3.5,3.5,0,0,0,.082-1.441l-.228-2.122a4.557,4.557,0,0,0-.158-.865A.473.473,0,0,0,1147.169,1512.2Zm-.322.964a1.489,1.489,0,0,1,.119.522l.108,1.008a.565.565,0,0,1-.251.462q-.168.122-.245-.009a1.705,1.705,0,0,1-.124-.57l-.051-.474a2.242,2.242,0,0,1,0-.613.515.515,0,0,1,.2-.338Q1146.77,1513.032,1146.846,1513.162Z" transform="translate(-1139.913 -1507.739)"/></svg>