<svg xmlns="http://www.w3.org/2000/svg" width="139.28" height="17.52" viewBox="0 0 139.28 17.52"><defs><style>.a{fill:#fff;}</style></defs><path class="a" d="M11.2-16.554h3.919L9.58-6.222V0H6.121V-6.222L.393-16.554H4.47l3.437,7.21ZM24.415-2.471a3.951,3.951,0,0,0,3.262-1.516A6.775,6.775,0,0,0,28.885-8.3a6.779,6.779,0,0,0-1.207-4.307,3.945,3.945,0,0,0-3.262-1.522,4,4,0,0,0-3.279,1.516A6.708,6.708,0,0,0,19.912-8.3a6.708,6.708,0,0,0,1.224,4.313A4,4,0,0,0,24.415-2.471ZM32.344-8.3q0,4.458-2.5,6.828A7.218,7.218,0,0,1,24.415.46a7.218,7.218,0,0,1-5.424-1.932Q16.475-3.841,16.475-8.3q0-4.548,2.516-6.828a7.218,7.218,0,0,1,5.424-1.932,7.218,7.218,0,0,1,5.424,1.932Q32.344-12.848,32.344-8.3Zm2.639-8.254H38.5V-6.379a5.746,5.746,0,0,0,.4,2.493,2.683,2.683,0,0,0,2.74,1.393,2.672,2.672,0,0,0,2.729-1.393,5.746,5.746,0,0,0,.4-2.493V-16.554h3.515V-6.379a8.523,8.523,0,0,1-.82,4.11q-1.527,2.7-5.829,2.7t-5.84-2.7a8.523,8.523,0,0,1-.82-4.11Zm20.069,2.875v4.447h3.919a4.368,4.368,0,0,0,1.752-.27,1.844,1.844,0,0,0,1.033-1.864,2.057,2.057,0,0,0-1-2.021,3.777,3.777,0,0,0-1.685-.292Zm4.739-2.875a7.565,7.565,0,0,1,2.678.427,4.184,4.184,0,0,1,1.589,1.157,5.125,5.125,0,0,1,.854,1.393,4.539,4.539,0,0,1,.314,1.741,4.959,4.959,0,0,1-.6,2.319,3.327,3.327,0,0,1-1.965,1.612A3.091,3.091,0,0,1,64.289-6.6a5.446,5.446,0,0,1,.477,2.589V-2.9a8.5,8.5,0,0,0,.09,1.539,1.382,1.382,0,0,0,.629.943V0H61.678q-.157-.55-.225-.887a8.152,8.152,0,0,1-.146-1.426l-.022-1.539a3.006,3.006,0,0,0-.578-2.111,3.069,3.069,0,0,0-2.083-.528H55.052V0h-3.38V-16.554Zm14.8,0h3.459V-2.976h8.2V0H74.593ZM95.964-2.471a3.951,3.951,0,0,0,3.262-1.516A6.775,6.775,0,0,0,100.434-8.3a6.779,6.779,0,0,0-1.207-4.307,3.945,3.945,0,0,0-3.262-1.522,4,4,0,0,0-3.279,1.516A6.708,6.708,0,0,0,91.461-8.3a6.708,6.708,0,0,0,1.224,4.313A4,4,0,0,0,95.964-2.471ZM103.893-8.3q0,4.458-2.5,6.828A7.218,7.218,0,0,1,95.964.46,7.218,7.218,0,0,1,90.54-1.471Q88.024-3.841,88.024-8.3q0-4.548,2.516-6.828a7.218,7.218,0,0,1,5.424-1.932,7.218,7.218,0,0,1,5.424,1.932Q103.893-12.848,103.893-8.3Zm13.769-3.088a3.241,3.241,0,0,0-1.92-2.37,4.717,4.717,0,0,0-1.9-.371,4.122,4.122,0,0,0-3.285,1.51,6.866,6.866,0,0,0-1.286,4.543q0,3.055,1.393,4.324a4.573,4.573,0,0,0,3.167,1.269,4.091,4.091,0,0,0,2.853-1.005,4.345,4.345,0,0,0,1.37-2.634h-3.83V-8.883h6.9V0H118.83l-.348-2.066a7.932,7.932,0,0,1-1.8,1.662,6.32,6.32,0,0,1-3.369.842,7,7,0,0,1-5.391-2.28,8.694,8.694,0,0,1-2.19-6.267,9.2,9.2,0,0,1,2.212-6.446A7.54,7.54,0,0,1,113.8-16.98a7.648,7.648,0,0,1,5.071,1.6,5.95,5.95,0,0,1,2.2,3.992Zm14.083,8.917a3.951,3.951,0,0,0,3.262-1.516A6.775,6.775,0,0,0,136.214-8.3a6.779,6.779,0,0,0-1.207-4.307,3.945,3.945,0,0,0-3.262-1.522,4,4,0,0,0-3.279,1.516A6.708,6.708,0,0,0,127.241-8.3a6.708,6.708,0,0,0,1.224,4.313A4,4,0,0,0,131.745-2.471ZM139.673-8.3q0,4.458-2.5,6.828A7.218,7.218,0,0,1,131.745.46a7.218,7.218,0,0,1-5.424-1.932Q123.8-3.841,123.8-8.3q0-4.548,2.516-6.828a7.218,7.218,0,0,1,5.424-1.932,7.218,7.218,0,0,1,5.424,1.932Q139.673-12.848,139.673-8.3Z" transform="translate(-0.393 17.059)"/></svg>